<svg xmlns="http://www.w3.org/2000/svg" xmlns:xlink="http://www.w3.org/1999/xlink" width="472.848" height="453.043" viewBox="0 0 472.848 453.043">
  <defs>
    <clipPath id="clip-path">
      <path id="Clip_44" data-name="Clip 44" d="M0,0H77.325V46.778H0Z" fill="none"/>
    </clipPath>
    <clipPath id="clip-path-2">
      <path id="Clip_54" data-name="Clip 54" d="M0,0H48.786V80.8H0Z" fill="none"/>
    </clipPath>
    <clipPath id="clip-path-3">
      <path id="Clip_95" data-name="Clip 95" d="M0,0H76.88V47.228H0Z" fill="none"/>
    </clipPath>
    <clipPath id="clip-path-4">
      <path id="Clip_98" data-name="Clip 98" d="M0,0H76.88V38.429H0Z" fill="none"/>
    </clipPath>
  </defs>
  <g id="emo" transform="translate(0.001 -0.758)">
    <path id="Fill_1" data-name="Fill 1" d="M35.815,2.394q-1.092-.514-2.23-.92c-.755-.271-1.523-.506-2.3-.7C30.948.682,30.6.605,30.263.534,30.189.517,30.116.5,30.04.487,29.7.419,29.357.355,29.014.3c-.028-.006-.058-.009-.087-.013Q28.421.211,27.916.154L27.784.137c-.362-.038-.726-.07-1.09-.092l-.064,0Q25.492-.024,24.362.016a.092.092,0,0,0-.023,0,21.374,21.374,0,0,0-5.735,1l-.055.017q-.385.124-.764.265l-.077.028A19.393,19.393,0,0,0,15.338,2.4c-.04.021-.079.043-.119.066-.2.113-.409.23-.609.35l-.179.107q-.28.172-.555.356l-.172.113c-.211.145-.421.294-.628.448l-.066.047q-.345.26-.681.538c-.045.038-.087.075-.132.113-.172.145-.341.294-.511.446-.07.064-.138.128-.206.194-.145.134-.285.269-.424.408-.072.072-.143.143-.215.216-.141.145-.279.294-.415.444-.06.068-.123.136-.185.2-.194.22-.387.446-.572.678C6.482,11.1,6.48,15.29,7.533,19.5c.089.35.181.7.283,1.052.121.418.251.834.387,1.25q.311.954.657,1.907a35.806,35.806,0,0,1,2.23,6.489c.051.233.1.465.147.7.134.695.238,1.384.3,2.067.023.228.04.456.053.683a17.652,17.652,0,0,1-.108,3.386,17.081,17.081,0,0,1-.789,3.362q-.232.675-.524,1.35a22.582,22.582,0,0,1-2.339,4.09q-.379.534-.779,1.054c-1.862,2.43-4.007,4.646-6.045,6.927a4.49,4.49,0,0,0-.634.9,3.259,3.259,0,0,0-.219.486.017.017,0,0,1,0,.009,2.8,2.8,0,0,0-.094.343L.054,55.6a2.553,2.553,0,0,0-.045.316v.017a3.391,3.391,0,0,0,.026.728,4.587,4.587,0,0,0,.172.717v0c.04.122.085.245.134.371s.108.256.168.39c.134.286.277.572.426.858s.306.57.47.853q.492.85,1.07,1.673T3.709,63.11c.219.258.445.508.675.753a19.148,19.148,0,0,0,1.456,1.393q.572.488,1.183.924c.272.192.547.376.828.55q.209.13.424.254c.2.113.4.22.6.322.181.094.366.183.553.267.251.115.508.22.766.318a11.851,11.851,0,0,0,1.73.508,12.86,12.86,0,0,0,5.224.128c.153-.034.308-.073.457-.119s.287-.088.426-.139c.07-.026.138-.053.208-.081a5.281,5.281,0,0,0,.789-.407,4.508,4.508,0,0,0,.591-.442q.15-.133.289-.282a3.911,3.911,0,0,0,.385-.488,4.509,4.509,0,0,0,.572-1.222c.794-2.647-.028-5.468.243-8.166.013-.13.026-.258.043-.388.043-.3.091-.606.145-.905q.235-1.35.585-2.633a28.906,28.906,0,0,1,1.556-4.723q.28-.652.592-1.291a30,30,0,0,1,1.738-3.095,30.692,30.692,0,0,1,8.907-9.034c5.33-3.578,14.029-5.538,14.137-13.086a21.576,21.576,0,0,0-13-19.633" transform="translate(282.939 32.381)" fill="rgba(255,255,255,0.14)"/>
    <path id="Fill_3" data-name="Fill 3" d="M47.016,64.862a4.432,4.432,0,0,1-1.039-1.442,103.611,103.611,0,0,0-5.185-10.251c-5.225-8.382-12.364-10.559-21.9-10.378a47.472,47.472,0,0,1-4.805-.44c-4.7-.718-8.929-2.491-11.592-7.376-4.437-8.146-2.585-17.5,2.681-24.482A27.687,27.687,0,0,1,8.72,6.612C15.23.307,25.562-1.9,34.01,1.8c7.577,3.294,5.893,12.9,7.262,19.776A33.226,33.226,0,0,0,54.2,42.135a32.23,32.23,0,0,0,3.267,2.23c2.67,1.6,6.063,1.892,8.514,3.9,3.272,2.686,1.367,7.331-.682,10.3-3.259,4.725-9.641,6.951-15.168,7.178a4.181,4.181,0,0,1-3.116-.884" transform="translate(44.832 72.232)" fill="#383075"/>
    <path id="Fill_5" data-name="Fill 5" d="M7.963,6.594a27.739,27.739,0,0,0-3.536,3.87A26,26,0,0,0,0,19.518a25.259,25.259,0,0,1,6.521-8.2c7.43-6.49,20.612-9.895,26.391-1.621,3.676,5.293,3.435,12.894,3.866,19.959.264,3.08,1.064,6.83,4.173,9.009.733.541,1.527,1.084,2.356,1.634a22.385,22.385,0,0,0,3.312,1.994A4.073,4.073,0,0,1,47.95,43.5c.194.5.557,1.533.294,1.557-7.216,5.489-7.952,14.637-.793,19.834,2.292,1.651,5.387.558,8.044-.243.691-.268,1.378-.571,2.047-.907a20.535,20.535,0,0,0,3.625-2.29,17.907,17.907,0,0,0,1.787-1.676,16.269,16.269,0,0,0,3.687-6.315C67,51.56,66.5,49.2,64.818,48.3c-2.5-1.1-4.988-2-7.287-3.15A24.709,24.709,0,0,1,55.3,43.9a18.045,18.045,0,0,1-2.068-1.521,15.52,15.52,0,0,1-1.868-1.887q-.941-.809-1.819-1.687a33.442,33.442,0,0,1-9.121-17.282c-1.363-6.865.314-16.439-7.24-19.725C24.76-1.9,14.456.306,7.963,6.594" transform="translate(45.828 73.228)" fill="#be0152"/>
    <path id="Fill_7" data-name="Fill 7" d="M40.866,48.617A12.312,12.312,0,0,1,43.221,52.8c4.516-3.393,6.61-6.828,6.587-12.756a2.2,2.2,0,0,0-1.079-1.935A8.781,8.781,0,0,0,46.379,37c-.442-.217-.871-.426-1.254-.626a13.863,13.863,0,0,1-1.185-.832c-.343-.23-.677-.461-1.005-.689s-.647-.457-.954-.683c-3.129-2.2-3.936-5.985-4.2-9.1-.432-7.133-.192-14.8-3.894-20.149C28.063-3.425,14.787.012,7.3,6.564A25.46,25.46,0,0,0,.736,14.846,20.991,20.991,0,0,0,2.5,30.358c2.676,4.919,6.928,6.706,11.644,7.427a47.608,47.608,0,0,0,4.829.445c5.39-.1,10.016.544,13.967,2.634.44.232.869.481,1.294.75a16.289,16.289,0,0,1,3.63,3.068c.556.611,1.089,1.262,1.593,1.93s.973,1.34,1.409,2.006" transform="translate(44.832 77.213)" fill="#eb0065"/>
    <path id="Fill_9" data-name="Fill 9" d="M4.963,16.936C2.135,15.417.733,12.172.1,9.232-.489,5.135,1.476-1.326,6.466.24c4.543,1.318,4.211,6.91,4.484,10.95.183,2.691-2.374,5.056-5.207,5.6-.251.05-.509.1-.78.148" transform="translate(50.809 91.161)" fill="#be0152"/>
    <path id="Fill_11" data-name="Fill 11" d="M63.236,13.036c-.356-.722-.749-1.425-1.171-2.109S61.187,9.582,60.7,8.945c-.212-.279-.431-.552-.655-.822-.047-.058-.095-.117-.146-.175-.223-.266-.452-.53-.689-.786L59.154,7.1c-.233-.251-.467-.5-.71-.735-.032-.032-.061-.064-.095-.094q-.389-.384-.8-.75l-.047-.045q-.851-.76-1.765-1.43a.1.1,0,0,0-.017-.013A21.463,21.463,0,0,0,50.6,1.238a.438.438,0,0,0-.053-.019c-.254-.1-.509-.185-.764-.269L49.707.925A19.077,19.077,0,0,0,47.173.292c-.045-.009-.091-.015-.136-.023-.231-.04-.464-.075-.7-.106C46.27.154,46.2.145,46.132.137c-.218-.026-.439-.049-.658-.068-.068-.006-.136-.013-.2-.017C45.012.033,44.755.018,44.5.011c-.028,0-.057,0-.081,0C44.125,0,43.835,0,43.544,0c-.059,0-.117.006-.174.006-.227.008-.452.017-.681.032-.095.006-.189.015-.286.023-.193.015-.39.034-.585.057-.1.011-.2.023-.3.036-.2.026-.4.057-.606.089-.091.015-.182.028-.272.045-.291.051-.581.107-.872.173-4.984,1.119-7.614,4.4-9.427,8.353q-.227.495-.437,1c-.167.4-.325.808-.481,1.219q-.355.938-.679,1.9A35.44,35.44,0,0,1,26.421,19.4c-.106.215-.21.426-.322.637-.329.627-.679,1.23-1.058,1.807-.125.192-.252.383-.384.569A17.791,17.791,0,0,1,22.451,25a17.164,17.164,0,0,1-2.727,2.141q-.6.382-1.256.729a22.681,22.681,0,0,1-4.4,1.745q-.636.181-1.273.339c-2.982.744-6.053,1.142-9.083,1.66a4.574,4.574,0,0,0-1.06.307,3.625,3.625,0,0,0-.475.245l-.008.006a3.2,3.2,0,0,0-.288.209.257.257,0,0,0-.032.032c-.081.07-.161.141-.235.219l-.011.015a3.248,3.248,0,0,0-.433.586,0,0,0,0,1,0,0,4.444,4.444,0,0,0-.314.667,0,0,0,0,0,0,0c-.044.121-.087.243-.127.371s-.076.269-.112.411c-.074.309-.142.62-.2.937s-.117.637-.167.961c-.1.648-.167,1.308-.206,1.975S-.011,39.9.011,40.574c.011.335.03.673.057,1.008a18.564,18.564,0,0,0,.272,2q.142.741.346,1.46c.093.318.193.635.3.946.057.155.114.309.174.462.085.213.176.422.271.629.085.187.174.371.267.552.127.247.261.49.4.727A11.747,11.747,0,0,0,3.141,49.83,12.9,12.9,0,0,0,7.16,53.184c.142.068.288.132.431.19s.282.109.424.156c.07.023.142.045.212.064a5.06,5.06,0,0,0,.874.175,4.2,4.2,0,0,0,.738.021,3.674,3.674,0,0,0,.407-.041,3.787,3.787,0,0,0,.6-.141,4.536,4.536,0,0,0,1.217-.6c2.28-1.577,3.4-4.3,5.306-6.241.093-.092.182-.187.278-.275q.335-.317.681-.62,1.03-.907,2.11-1.7a29.045,29.045,0,0,1,4.18-2.725q.627-.336,1.273-.643a29.882,29.882,0,0,1,3.3-1.342,30.917,30.917,0,0,1,12.644-1.524c6.422.516,14.474,4.4,19.289-1.443a21.531,21.531,0,0,0,2.106-23.46" transform="translate(374.595 138.982)" fill="rgba(255,255,255,0.14)"/>
    <path id="Fill_15" data-name="Fill 15" d="M16.086,1.667c-.808.3-1.6.63-2.374,1s-1.531.775-2.263,1.213c-.321.192-.636.393-.948.6l-.2.132c-.308.207-.615.419-.913.638-.027.019-.05.038-.075.056-.292.214-.579.436-.86.662-.038.028-.075.058-.111.088-.3.243-.6.495-.887.75-.017.017-.034.034-.052.049-.6.536-1.175,1.1-1.716,1.689a.122.122,0,0,0-.015.017,22.51,22.51,0,0,0-3.532,5.057l-.029.053q-.189.384-.367.773c-.011.026-.025.053-.034.079a19.7,19.7,0,0,0-.95,2.58c-.011.045-.025.09-.036.137-.069.237-.13.478-.189.718-.017.071-.034.143-.05.213-.052.228-.1.455-.143.683-.013.071-.029.141-.042.213-.048.267-.09.534-.126.8,0,.028-.01.056-.013.085-.04.3-.073.606-.1.912-.006.06-.008.12-.013.181-.015.237-.029.476-.038.717,0,.1-.006.2-.008.3,0,.2-.006.412,0,.619,0,.107,0,.216.006.323.006.213.017.427.031.641,0,.1.008.192.015.288.023.31.054.619.092.931C.8,30.189,4.019,33.288,8.038,35.6q.5.291,1.021.564c.409.218.827.427,1.25.632.64.314,1.294.619,1.953.914a38.583,38.583,0,0,1,6.649,3.111c.216.134.43.267.642.4.634.41,1.24.841,1.816,1.3.189.15.378.307.564.463a18.914,18.914,0,0,1,2.517,2.58,18.057,18.057,0,0,1,1.989,3.08q.341.671.642,1.39a23.41,23.41,0,0,1,1.387,4.781c.082.455.159.91.226,1.367.47,3.2.566,6.449.789,9.668a4.676,4.676,0,0,0,.214,1.14,3.564,3.564,0,0,0,.208.523l.006.009a3.365,3.365,0,0,0,.195.322.3.3,0,0,0,.029.039,2.819,2.819,0,0,0,.21.267.082.082,0,0,0,.011.013,3.468,3.468,0,0,0,.581.517h0a4.78,4.78,0,0,0,.678.4h0c.122.06.25.118.382.171s.279.111.426.162c.321.111.646.216.978.314s.665.19,1.005.275c.68.171,1.378.316,2.085.429s1.424.2,2.144.246c.359.023.72.039,1.082.047a20.621,20.621,0,0,0,2.158-.071c.537-.047,1.07-.115,1.6-.207.352-.064.7-.135,1.042-.218.172-.041.344-.087.514-.134.235-.066.468-.139.7-.216.206-.068.413-.141.615-.218.279-.105.55-.22.82-.342a13.185,13.185,0,0,0,1.686-.927,13.7,13.7,0,0,0,4.007-3.844c.09-.141.172-.284.25-.429s.147-.282.212-.427c.032-.071.065-.143.092-.214a5.12,5.12,0,0,0,.283-.9,4.529,4.529,0,0,0,.1-.771,3.976,3.976,0,0,0,0-.427,4.023,4.023,0,0,0-.084-.649A4.669,4.669,0,0,0,53.2,59.41c-1.435-2.554-4.218-4.017-6.083-6.214-.09-.105-.178-.209-.262-.32-.2-.256-.4-.515-.589-.777q-.86-1.174-1.582-2.387a29.963,29.963,0,0,1-2.456-4.658c-.195-.463-.38-.929-.55-1.4A32.256,32.256,0,0,1,40.6,40.062a31.848,31.848,0,0,1-.262-13.381c1.244-6.656,6.253-14.658.541-20.313C34.518.042,24.3-1.663,16.086,1.667" transform="translate(131.507 44.337)" fill="rgba(255,255,255,0.14)"/>
    <path id="Fill_17" data-name="Fill 17" d="M2.579,13.675c-.364.769-.694,1.556-.982,2.355s-.545,1.611-.758,2.431c-.092.359-.175.72-.255,1.082-.015.077-.032.155-.049.232q-.11.544-.2,1.088c0,.03-.008.062-.013.093-.058.355-.106.712-.147,1.069l-.017.14q-.065.575-.1,1.152c0,.023,0,.047,0,.07q-.074,1.2-.036,2.4a.078.078,0,0,1,0,.021,22.644,22.644,0,0,0,1.029,6.076c0,.019.011.038.017.057.087.272.181.542.279.81.009.026.021.053.028.081A20.232,20.232,0,0,0,2.5,35.344c.023.043.045.083.068.127.119.217.241.433.368.648.038.062.075.125.115.187.119.2.245.395.373.589.041.062.079.123.121.183.151.223.307.446.469.665.019.023.032.047.051.07.183.246.37.487.567.725.036.045.079.093.117.138.153.183.309.365.471.544l.2.221q.212.227.43.448c.075.077.153.153.23.229.153.151.309.3.468.442.074.066.143.132.217.2.232.208.468.412.713.608,4.183,3.388,8.625,3.409,13.087,2.314.371-.093.745-.191,1.116-.3.441-.125.884-.263,1.325-.4.673-.217,1.348-.446,2.019-.687a37.833,37.833,0,0,1,6.881-2.331q.368-.082.735-.153,1.106-.21,2.191-.314c.241-.021.483-.04.724-.053a18.767,18.767,0,0,1,3.584.127,18.334,18.334,0,0,1,3.557.852c.473.166.948.351,1.425.561a23.887,23.887,0,0,1,4.319,2.491c.375.27.748.548,1.114.831,2.564,1.981,4.9,4.259,7.307,6.425a4.706,4.706,0,0,0,.946.674,3.417,3.417,0,0,0,.513.232l.011,0a3.122,3.122,0,0,0,.362.1c.015,0,.032,0,.047.008a3.341,3.341,0,0,0,.336.049H59.1a3.555,3.555,0,0,0,.773-.026,4.774,4.774,0,0,0,.76-.178h0c.128-.042.26-.089.392-.142s.271-.111.415-.176q.455-.21.909-.446c.3-.157.605-.323.907-.495.6-.344,1.193-.72,1.774-1.126s1.144-.837,1.687-1.3c.273-.23.541-.468.8-.71A19.943,19.943,0,0,0,69,45.663c.349-.4.677-.82.986-1.247.2-.285.4-.578.584-.874.092-.147.183-.3.271-.448.121-.21.234-.423.345-.637q.147-.289.283-.584.184-.4.341-.812a12.723,12.723,0,0,0,.547-1.826,13.655,13.655,0,0,0,.156-5.528c-.036-.162-.077-.325-.124-.484s-.092-.3-.147-.453c-.025-.074-.055-.145-.085-.217a5.216,5.216,0,0,0-.424-.839,4.889,4.889,0,0,0-.466-.625,3.867,3.867,0,0,0-.3-.308,4.225,4.225,0,0,0-.511-.41,4.758,4.758,0,0,0-1.293-.608c-2.8-.852-5.79.008-8.642-.293-.138-.015-.273-.028-.409-.049-.322-.045-.643-.1-.96-.155q-1.425-.255-2.786-.633a30.3,30.3,0,0,1-4.99-1.668c-.46-.2-.914-.41-1.367-.631a32.19,32.19,0,0,1-3.267-1.851,32.437,32.437,0,0,1-9.524-9.466C33.446,9.365,31.41.15,23.418,0,14.5-.179,6.074,5.621,2.579,13.675" transform="translate(28.892 155.918)" fill="rgba(255,255,255,0.14)"/>
    <path id="Fill_21" data-name="Fill 21" d="M2.635,41.815q.549,1.089,1.2,2.12c.431.686.9,1.352,1.387,1.992.218.28.44.553.666.824l.148.175c.228.267.459.53.7.787.021.021.042.044.061.065q.353.375.719.736c.032.03.065.063.095.093q.4.386.808.751l.049.044q.86.761,1.784,1.428a.1.1,0,0,0,.017.013,21.385,21.385,0,0,0,5.165,2.77l.055.019c.254.093.512.181.77.263l.08.025a19.206,19.206,0,0,0,2.546.614l.135.021c.233.038.467.071.7.1.068.01.137.017.207.025.22.025.44.044.662.061.068.006.137.011.2.015.258.015.516.029.776.034l.082,0c.29.006.581,0,.873-.006.059,0,.118-.006.175-.01.226-.008.455-.021.683-.038.093-.008.19-.015.285-.025.2-.019.391-.04.588-.065.1-.011.2-.025.305-.04.2-.029.4-.061.6-.1.093-.017.182-.031.275-.048.288-.055.579-.116.873-.185,4.984-1.188,7.586-4.535,9.36-8.554q.222-.5.429-1.016c.163-.408.317-.822.469-1.239.23-.635.45-1.281.66-1.929a36.441,36.441,0,0,1,2.254-6.567c.1-.219.207-.435.315-.648.323-.639.668-1.252,1.042-1.84.121-.2.25-.389.379-.58A18.063,18.063,0,0,1,43.4,29.271a17.3,17.3,0,0,1,2.713-2.194c.4-.265.818-.515,1.25-.753a22.679,22.679,0,0,1,4.391-1.813c.421-.128.846-.246,1.273-.358,2.983-.782,6.056-1.22,9.089-1.775a4.566,4.566,0,0,0,1.057-.322,3.4,3.4,0,0,0,.474-.254l.008-.006a2.992,2.992,0,0,0,.288-.215c.009-.01.019-.021.032-.032a2.586,2.586,0,0,0,.231-.225.083.083,0,0,0,.011-.013,3.372,3.372,0,0,0,.429-.6h0a4.639,4.639,0,0,0,.307-.679s0,0,0,0c.044-.12.085-.246.121-.377s.076-.273.11-.416q.105-.469.194-.949c.059-.322.112-.646.156-.974.091-.656.154-1.325.188-2s.038-1.357.008-2.038c-.015-.339-.038-.681-.068-1.02a18.844,18.844,0,0,0-.294-2.017c-.1-.5-.222-.989-.364-1.474q-.142-.483-.315-.953c-.057-.156-.118-.313-.18-.467-.087-.214-.18-.425-.277-.633-.087-.187-.178-.372-.275-.557-.127-.246-.264-.49-.41-.73a12.041,12.041,0,0,0-1.055-1.481A12.978,12.978,0,0,0,58.428.6C58.285.527,58.139.466,58,.407S57.711.3,57.568.253L57.354.19a5.2,5.2,0,0,0-.878-.166A4.191,4.191,0,0,0,55.733.01c-.135.01-.269.023-.406.046A4.444,4.444,0,0,0,54.722.2a4.519,4.519,0,0,0-1.211.623C51.24,2.449,50.146,5.213,48.258,7.2c-.091.1-.18.191-.275.282-.224.215-.448.427-.675.633-.681.621-1.383,1.2-2.1,1.74a28.841,28.841,0,0,1-4.161,2.8q-.626.349-1.269.665a30.321,30.321,0,0,1-3.3,1.392A30.726,30.726,0,0,1,23.817,16.39C17.376,15.938,9.259,12.1,4.494,18.06-.837,24.7-1.384,34.466,2.635,41.815" transform="translate(43.836 301.372)" fill="rgba(255,255,255,0.14)"/>
    <path id="Fill_25" data-name="Fill 25" d="M67.353,35.706q.515-1.1.922-2.238c.273-.759.51-1.53.708-2.31.084-.341.16-.683.235-1.027.013-.074.031-.148.046-.221.067-.344.13-.687.185-1.031a.757.757,0,0,0,.011-.089c.053-.337.1-.675.134-1.014.006-.044.011-.087.015-.132.038-.363.069-.728.09-1.092,0-.023,0-.045,0-.068a22.6,22.6,0,0,0,.017-2.274c0-.006,0-.013,0-.021a21.216,21.216,0,0,0-1.031-5.747c-.006-.019-.013-.038-.019-.055-.084-.257-.174-.511-.271-.764-.01-.026-.019-.051-.031-.078a18.938,18.938,0,0,0-1.1-2.372c-.023-.04-.044-.079-.067-.119-.116-.2-.235-.409-.359-.611-.034-.059-.073-.117-.109-.176-.118-.189-.239-.373-.365-.556-.036-.059-.076-.115-.115-.172-.147-.212-.3-.42-.454-.628-.017-.021-.032-.044-.05-.064-.178-.233-.359-.46-.548-.683-.036-.044-.078-.087-.115-.131-.149-.172-.3-.342-.456-.511-.065-.07-.13-.138-.2-.208-.136-.142-.275-.284-.414-.422l-.221-.216c-.147-.14-.3-.278-.454-.414-.069-.062-.136-.125-.206-.185-.223-.193-.45-.384-.687-.571C58.415,6.327,54.165,6.34,49.9,7.412c-.355.089-.712.185-1.067.288-.422.123-.842.255-1.265.392-.643.21-1.288.433-1.93.666a36.372,36.372,0,0,1-6.569,2.261c-.237.055-.471.1-.706.149q-1.056.21-2.1.314-.346.034-.693.057a18.07,18.07,0,0,1-3.432-.095,17.466,17.466,0,0,1-3.414-.779q-.684-.23-1.37-.52A22.839,22.839,0,0,1,23.2,7.815q-.544-.38-1.073-.778c-2.47-1.86-4.726-4-7.048-6.037a4.686,4.686,0,0,0-.91-.632,3.406,3.406,0,0,0-.494-.216l-.01,0a2.853,2.853,0,0,0-.347-.093c-.013,0-.031,0-.046-.008A3.036,3.036,0,0,0,12.95.008h-.019a3.34,3.34,0,0,0-.737.03,4.545,4.545,0,0,0-.727.174l0,0c-.124.04-.248.083-.376.134s-.26.108-.393.17c-.29.136-.578.28-.868.429s-.576.31-.865.475Q8.1,1.92,7.272,2.5c-.552.388-1.09.8-1.607,1.243-.26.221-.513.446-.762.679A18.945,18.945,0,0,0,3.5,5.893c-.328.384-.641.779-.931,1.188-.195.272-.382.551-.555.832-.088.142-.172.284-.256.428-.115.2-.221.4-.326.605-.094.183-.183.369-.267.554-.115.255-.221.511-.319.772a11.6,11.6,0,0,0-.51,1.735,12.769,12.769,0,0,0-.109,5.24c.036.155.076.306.122.456s.09.289.143.429c.025.07.053.138.084.206a5.034,5.034,0,0,0,.414.791,4.342,4.342,0,0,0,.45.588,3.787,3.787,0,0,0,.288.291,4.322,4.322,0,0,0,.494.382,4.542,4.542,0,0,0,1.241.568c2.689.787,5.546-.049,8.281.212.132.013.261.026.391.044.309.044.618.089.922.142q1.366.23,2.672.577a29.158,29.158,0,0,1,4.792,1.544c.441.185.88.38,1.311.586a30.331,30.331,0,0,1,3.145,1.731,30.939,30.939,0,0,1,9.194,8.9c3.647,5.329,5.67,14.046,13.326,14.124a21.887,21.887,0,0,0,19.855-13.11" transform="translate(384.558 275.47)" fill="rgba(255,255,255,0.14)"/>
    <path id="Fill_27" data-name="Fill 27" d="M13.693,67.664c.742.319,1.5.606,2.266.853s1.547.46,2.331.635c.343.076.689.143,1.036.2l.222.04c.345.057.691.11,1.039.154l.087.01c.339.042.678.076,1.019.1l.133.011c.363.027.731.046,1.094.055.023,0,.044,0,.066,0q1.144.031,2.276-.049l.021,0A21.416,21.416,0,0,0,31,68.481l.055-.019c.254-.093.505-.19.755-.293l.076-.032a19.358,19.358,0,0,0,2.344-1.165l.114-.07c.2-.12.4-.245.6-.374l.172-.114c.184-.124.367-.249.545-.378l.168-.12c.208-.152.413-.31.615-.471.021-.019.042-.034.064-.051q.338-.274.665-.566c.045-.038.085-.078.129-.118.168-.152.333-.308.5-.468.068-.067.136-.135.2-.2.138-.139.275-.281.411-.426.07-.076.138-.15.208-.228.134-.15.269-.306.4-.462.059-.07.119-.139.18-.211.186-.23.371-.462.551-.7,3.061-4.108,2.923-8.341,1.728-12.557-.1-.35-.208-.7-.32-1.053q-.2-.624-.43-1.249-.344-.949-.723-1.9a36.224,36.224,0,0,1-2.452-6.474c-.061-.234-.117-.466-.168-.7-.161-.7-.286-1.388-.377-2.078-.028-.228-.055-.458-.078-.688a18.261,18.261,0,0,1,0-3.42,17.247,17.247,0,0,1,.682-3.422c.138-.458.3-.916.479-1.378a22.84,22.84,0,0,1,2.209-4.207q.363-.55.746-1.089c1.787-2.515,3.864-4.822,5.833-7.195a4.688,4.688,0,0,0,.606-.926,3.15,3.15,0,0,0,.2-.5l0-.01a3.225,3.225,0,0,0,.081-.35.305.305,0,0,0,.006-.044,3.138,3.138,0,0,0,.034-.321v-.019a3.32,3.32,0,0,0-.053-.732v0a4.785,4.785,0,0,0-.193-.719,0,0,0,0,1,0,0c-.044-.122-.091-.243-.148-.369s-.115-.257-.182-.388c-.142-.285-.3-.568-.456-.852s-.324-.565-.5-.846c-.348-.561-.725-1.114-1.13-1.652s-.833-1.063-1.289-1.564q-.344-.376-.7-.736a19.159,19.159,0,0,0-1.507-1.355c-.394-.317-.8-.618-1.217-.9-.28-.184-.562-.361-.848-.527-.144-.084-.29-.163-.437-.241-.2-.108-.407-.209-.613-.306-.187-.089-.373-.171-.564-.251C37.72.893,37.462.794,37.2.7A11.673,11.673,0,0,0,35.446.248,12.826,12.826,0,0,0,30.2.294c-.155.04-.3.086-.456.133s-.284.1-.422.158c-.068.029-.136.057-.2.087a5.206,5.206,0,0,0-.78.437,4.49,4.49,0,0,0-.574.466,3.819,3.819,0,0,0-.284.3,4.059,4.059,0,0,0-.367.5,4.5,4.5,0,0,0-.532,1.255c-.708,2.7.212,5.518.028,8.248-.009.131-.019.262-.03.393-.034.308-.072.616-.115.918q-.19,1.371-.5,2.678a28.827,28.827,0,0,1-1.4,4.817c-.172.447-.354.888-.549,1.323a30.564,30.564,0,0,1-1.64,3.182A30.856,30.856,0,0,1,13.741,34.6C8.517,38.393-.144,40.66,0,48.285A21.783,21.783,0,0,0,13.693,67.664" transform="translate(155.417 372.107)" fill="rgba(255,255,255,0.14)"/>
    <path id="Fill_29" data-name="Fill 29" d="M39.493,68.757c.792-.324,1.57-.686,2.326-1.084s1.494-.83,2.208-1.3c.312-.2.618-.417.922-.633l.2-.14c.3-.218.595-.44.884-.671.025-.019.049-.04.076-.059.281-.225.557-.458.83-.7l.108-.091c.291-.258.574-.519.855-.788.017-.015.032-.032.049-.049q.869-.841,1.649-1.758a.123.123,0,0,1,.015-.017,22.651,22.651,0,0,0,3.339-5.206c.008-.019.017-.038.025-.057.118-.26.232-.523.338-.788.011-.027.023-.053.034-.081a19.922,19.922,0,0,0,.855-2.628c.013-.047.023-.093.034-.14.059-.241.112-.485.163-.729.015-.072.029-.144.042-.218.046-.229.084-.458.122-.69.011-.072.021-.144.032-.216.038-.269.07-.54.1-.813l.011-.085c.029-.305.049-.612.065-.921,0-.061,0-.121.006-.184q.017-.358.017-.722c0-.1,0-.2,0-.3,0-.206-.008-.415-.017-.623-.006-.108-.011-.216-.017-.326-.013-.212-.03-.428-.051-.644-.009-.1-.017-.193-.027-.29-.032-.311-.072-.621-.122-.934-.832-5.342-4.133-8.356-8.206-10.556-.338-.184-.684-.362-1.034-.534-.412-.2-.834-.4-1.26-.595-.648-.3-1.307-.58-1.973-.856a38.093,38.093,0,0,1-6.712-2.914c-.22-.125-.437-.254-.654-.385q-.966-.588-1.845-1.247c-.2-.146-.39-.3-.578-.447a18.964,18.964,0,0,1-2.586-2.516A18,18,0,0,1,27.629,21.8c-.243-.441-.471-.9-.686-1.377A24.055,24.055,0,0,1,25.4,15.651q-.148-.682-.27-1.37c-.574-3.2-.777-6.473-1.11-9.707a4.8,4.8,0,0,0-.249-1.14,3.485,3.485,0,0,0-.228-.519.041.041,0,0,0-.006-.009,3.013,3.013,0,0,0-.2-.318c-.01-.015-.021-.025-.03-.038a3.262,3.262,0,0,0-.217-.263.1.1,0,0,1-.015-.013,3.533,3.533,0,0,0-.591-.5h0a4.754,4.754,0,0,0-.688-.383h0c-.124-.057-.251-.11-.388-.161s-.277-.1-.426-.148Q20.5.93,20,.8T18.99.552C18.308.4,17.611.281,16.9.19S15.482.039,14.764.014C14.407,0,14.046,0,13.689,0a19.7,19.7,0,0,0-2.144.142c-.53.063-1.058.15-1.577.261C9.62.478,9.278.563,8.94.658c-.171.049-.338.1-.505.152-.232.074-.462.155-.688.241-.2.076-.407.155-.606.241-.272.116-.54.241-.8.371a12.893,12.893,0,0,0-1.644.989,13.667,13.667,0,0,0-3.856,4C.755,6.8.677,6.946.6,7.094s-.135.29-.2.436c-.03.072-.057.146-.084.22a5.382,5.382,0,0,0-.249.909A4.465,4.465,0,0,0,0,9.437c0,.144,0,.288.013.432a4.288,4.288,0,0,0,.106.65,4.773,4.773,0,0,0,.553,1.324C2.186,14.366,5,15.749,6.925,17.9c.093.1.186.206.276.313q.311.381.608.763.9,1.154,1.653,2.351a30.41,30.41,0,0,1,2.6,4.609c.209.458.4.923.593,1.391a32.553,32.553,0,0,1,1.188,3.582,32.5,32.5,0,0,1,.709,13.464c-1.011,6.742-5.724,14.963.144,20.468,6.535,6.161,16.746,7.54,24.8,3.918" transform="translate(301.868 353.178)" fill="rgba(255,255,255,0.14)"/>
    <path id="Fill_31" data-name="Fill 31" d="M132.9,7.076C26.581,36.543-34.174,160.682,20.421,259.846c32.683,59.358,100.2,94,167.4,90.61,76.78-3.87,153.646-55.84,176.117-130.939C398.563,103.786,292.7-3.112,178.469.069A191.277,191.277,0,0,0,132.9,7.076" transform="translate(54.794 58.284)" fill="#eb0065"/>
    <path id="Fill_33" data-name="Fill 33" d="M306.282,0c-5.677,11.577,8.393,18.286,12.763,27.518a213.184,213.184,0,0,1,13.444,38.051q.859,3.444,1.584,6.924a144.367,144.367,0,0,1,3.168,28.255q.128,6.741-.334,13.41C332.961,171.784,296.22,226.64,240,247.4a186.264,186.264,0,0,1-17.338,7.159,200.911,200.911,0,0,1-92.723,9.655c-6.576-.855-13.12-2.009-19.593-3.4a110.915,110.915,0,0,1-18.2-4.658,127.219,127.219,0,0,1-39.822-22.672q-3.528-2.931-6.86-6.094a181.744,181.744,0,0,1-21.069-25.785q-1.531-2.324-2.966-4.723c-8.09-13.255-14.318-27.937-16.073-43.579A7.621,7.621,0,0,0,.412,146.54c-2.356,17.637,5.914,34,11.6,50.061.647,1.721,1.313,3.4,2,5.056a125.24,125.24,0,0,0,12.828,23.61c1.992,2.935,4.076,5.772,6.254,8.545,15.236,19.4,34.913,35.651,56,48.107,4.364,2.281,8.763,4.363,13.23,6.272a194.163,194.163,0,0,0,41.863,12.525,192.707,192.707,0,0,0,25.786,2.873,171.779,171.779,0,0,0,23.193-.263,179.885,179.885,0,0,0,22.77-3.283,208.04,208.04,0,0,0,27.518-8.112,220.058,220.058,0,0,0,50.561-26.761q7.813-5.561,15.085-11.815c41.956-33.175,65.7-87.862,59.552-141.055q-.706-6.148-1.952-12.267A167.753,167.753,0,0,0,346.113,46q-1.849-3.112-3.833-6.141C332.331,26,322.133,11.955,308.4,1.761A21.687,21.687,0,0,1,306.282,0" transform="translate(55.791 105.109)" fill="#be0152"/>
    <path id="Fill_35" data-name="Fill 35" d="M.73,53.7A4.732,4.732,0,0,1,2.17,52.47,109.848,109.848,0,0,0,12.6,46.042c8.439-6.31,10.126-14.115,9.1-24.274a51.127,51.127,0,0,1,.049-5.166c.351-5.071,1.864-9.742,6.818-13.009C36.816-1.853,46.9-.7,54.776,4.307A29.549,29.549,0,0,1,59.2,7.75c7.261,6.393,10.507,17.219,7.318,26.557-2.836,8.37-13.169,7.415-20.355,9.478A35.4,35.4,0,0,0,25.476,59.377a34.156,34.156,0,0,0-2.083,3.68c-1.459,2.986-1.476,6.632-3.4,9.422-2.564,3.727-7.663,2.1-10.992.176C3.706,69.592.785,62.979.062,57.1A4.492,4.492,0,0,1,.73,53.7" transform="translate(341.718 55.295)" fill="#302d6d"/>
    <path id="Fill_37" data-name="Fill 37" d="M59.2,7.419a29.681,29.681,0,0,0-4.429-3.46A27.58,27.58,0,0,0,44.754,0a26.968,26.968,0,0,1,9.3,6.286C61.61,13.7,66.39,27.566,58.09,34.509c-5.31,4.418-13.419,4.831-20.9,5.917-3.255.556-7.175,1.746-9.22,5.281-5.1,8.346-10.079,23.558-21.5,15.375C4.232,59.6,1.531,57.614.071,55.19a6.326,6.326,0,0,0-.009,1.826C.784,62.921,3.705,69.567,9,72.644c3.331,1.935,8.428,3.569,10.994-.177C21.915,69.664,21.934,66,23.391,63a34.382,34.382,0,0,1,2.085-3.7,35.416,35.416,0,0,1,20.69-15.668c7.184-2.074,17.52-1.114,20.356-9.525,3.187-9.384-.057-20.263-7.318-26.688" transform="translate(341.718 55.295)" fill="#be0152"/>
    <path id="Fill_39" data-name="Fill 39" d="M6.442,61.418c11.49,8.177,16.5-7.025,21.631-15.368,2.058-3.533,6-4.722,9.275-5.278,7.526-1.085,15.684-1.5,21.029-5.914,8.348-6.94,3.541-20.8-4.061-28.209A27.15,27.15,0,0,0,44.957.367,22.223,22.223,0,0,0,28.665,3.606c-4.984,3.283-6.506,7.975-6.86,13.068a51.268,51.268,0,0,0-.049,5.189c1.033,10.2-.665,18.044-9.155,24.38A110.572,110.572,0,0,1,2.111,52.7,4.759,4.759,0,0,0,.663,53.94,3.577,3.577,0,0,0,0,55.529c1.47,2.423,4.188,4.4,6.442,5.889" transform="translate(341.718 55.295)" fill="#eb0065"/>
    <path id="Fill_41" data-name="Fill 41" d="M.787,15.756c-1.492-3.21-.637-7,.695-10.011,2.106-4.005,7.957-8.408,11.3-3.729,3.115,4.163-.752,8.88-3.1,12.625-1.564,2.5-5.307,2.894-8.124,1.5-.25-.12-.5-.247-.773-.385" transform="translate(368.617 61.273)" fill="#be0152"/>
    <g id="Group_45" data-name="Group 45" transform="translate(0 235.786)">
      <path id="Clip_44-2" data-name="Clip 44" d="M0,0H77.325V46.778H0Z" transform="translate(0 0)" fill="none"/>
      <g id="Group_45-2" data-name="Group 45" transform="translate(0 0)" clip-path="url(#clip-path)">
        <path id="Fill_43" data-name="Fill 43" d="M67.5,7.407a4.466,4.466,0,0,0-1.732.409A104.785,104.785,0,0,1,55.1,12.146c-9.463,2.9-16.313-.109-23.436-6.449a46.962,46.962,0,0,0-3.938-2.8c-4.035-2.516-8.413-3.937-13.641-2C5.378,4.136.647,12.368.062,21.044a27.471,27.471,0,0,0,.148,5.22A23.517,23.517,0,0,0,16.253,46.333c7.915,2.454,12.932-5.856,18.489-10.137a33.536,33.536,0,0,1,23.3-7.039,32.749,32.749,0,0,1,3.944.449c3.072.539,5.843,2.523,9.024,2.606,4.246.111,5.845-4.621,6.239-8.182.625-5.67-2.762-11.5-6.806-15.261A4.223,4.223,0,0,0,67.5,7.407" transform="translate(0 0)" fill="#eb0065"/>
      </g>
    </g>
    <g id="Group_48" data-name="Group 48" transform="translate(-0.001 243.046)">
      <path id="Fill_46" data-name="Fill 46" d="M.21,18.727a28.047,28.047,0,0,1-.148-5.289A26.32,26.32,0,0,1,2.647,3.6a25.6,25.6,0,0,0-.43,10.569C3.6,24.035,11.4,35.342,21.242,32.847c6.277-1.611,11.1-7.57,16.069-12.678,2.229-2.176,5.3-4.51,9.1-4.118,9.122.719,23.35,5.325,23.531-7.908.125-2.532.133-5.689-.883-8.142a5.914,5.914,0,0,1,1.384,1c4.045,3.813,7.432,9.715,6.8,15.457-.392,3.61-1.992,8.4-6.239,8.289-3.178-.082-5.949-2.092-9.022-2.638a31.975,31.975,0,0,0-3.944-.455,33.237,33.237,0,0,0-23.3,7.13c-5.557,4.336-10.574,12.753-18.489,10.269C7.412,36.3,1.017,27.818.21,18.727" transform="translate(0 0)" fill="#be0152"/>
    </g>
    <path id="Fill_49" data-name="Fill 49" d="M67.687,15.932C67.508,29.092,53.365,24.511,44.3,23.8c-3.777-.39-6.835,1.931-9.051,4.095C30.306,32.971,25.519,38.9,19.279,40.5,9.494,42.98,1.747,31.736.368,21.927A25.4,25.4,0,0,1,.8,11.417,20.759,20.759,0,0,1,12.167.911c5.2-1.954,9.548-.522,13.559,2.01a48.217,48.217,0,0,1,3.915,2.816c7.08,6.387,13.887,9.417,23.3,6.5a103.6,103.6,0,0,0,10.6-4.363,4.432,4.432,0,0,1,1.724-.412,3.369,3.369,0,0,1,1.554.374c1.01,2.44,1,5.579.876,8.1" transform="translate(0.996 235.619)" fill="#eb0065"/>
    <path id="Fill_51" data-name="Fill 51" d="M16.936,4.911C15.4,2.088,12.141.707,9.2.092,5.1-.473-1.352,1.543.251,6.534,1.6,11.076,7.19,10.706,11.23,10.951c2.694.165,5.041-2.416,5.564-5.259.048-.249.1-.51.142-.781" transform="translate(10.959 240.6)" fill="#be0152"/>
    <g id="Group_55" data-name="Group 55" transform="translate(197.856 0.758)">
      <path id="Clip_54-2" data-name="Clip 54" d="M0,0H48.786V80.8H0Z" transform="translate(0 0)" fill="none"/>
      <g id="Group_55-2" data-name="Group 55" transform="translate(0 0)" clip-path="url(#clip-path-2)">
        <path id="Fill_53" data-name="Fill 53" d="M13.817,72.4a4.685,4.685,0,0,1,.209-1.856A110.092,110.092,0,0,0,17.2,58.905C19.04,48.692,15.067,41.947,7.594,35.34A49.873,49.873,0,0,1,4.2,31.6C1.085,27.717-.932,23.343.436,17.66,2.715,8.186,10.68,2.225,19.621.519A28.511,28.511,0,0,1,25.067.011,24.543,24.543,0,0,1,47.909,14.162c3.53,7.924-4.481,14.2-8.241,20.518a35.223,35.223,0,0,0-4.422,25.132A34.11,34.11,0,0,0,36.2,63.86c.941,3.127,3.346,5.759,3.828,9.057.642,4.4-4.076,6.666-7.731,7.528-5.815,1.368-12.286-1.417-16.7-5.151A4.411,4.411,0,0,1,13.817,72.4" transform="translate(0 0)" fill="#eb0065"/>
      </g>
    </g>
    <path id="Fill_56" data-name="Fill 56" d="M23.173,71.214c13.74-1.84,7.16-16.055,5.266-25.45-.885-3.9,1.154-7.39,3.136-9.979,4.687-5.809,10.277-11.56,11.164-18.29C44.1,6.949,31.357.259,20.927.046A26.833,26.833,0,0,0,9.99,1.814,21.833,21.833,0,0,0,.442,15.027C-.945,20.708,1.1,25.08,4.259,28.956A50.13,50.13,0,0,0,7.7,32.7c7.574,6.6,11.6,13.343,9.741,23.55a109.345,109.345,0,0,1-3.22,11.632,4.623,4.623,0,0,0-.216,1.855,3.534,3.534,0,0,0,.59,1.578c2.679.751,5.962.348,8.577-.1" transform="translate(197.26 3.49)" fill="#eb0065"/>
    <path id="Fill_58" data-name="Fill 58" d="M6.323,17.933C3.2,16.67,1.362,13.409.359,10.379-.737,6.121.554-.945,5.937.105,10.82.948,11.13,6.9,11.887,11.134c.505,2.824-1.883,5.632-4.771,6.549-.254.085-.518.168-.794.25" transform="translate(203.238 13.452)" fill="#be0152"/>
    <path id="Fill_60" data-name="Fill 60" d="M34.79,2.5a4.45,4.45,0,0,0-.583,1.676,102.615,102.615,0,0,1-2.03,11.285c-2.615,9.507-8.882,13.643-18.155,16.214a48.187,48.187,0,0,0-4.519,1.8C5.174,35.519,1.6,38.433.444,43.865c-1.919,9.056,2.588,17.455,9.709,22.613a28.188,28.188,0,0,0,4.555,2.685c8.129,4.149,18.755,3.284,25.846-2.681C46.92,61.154,42.5,52.469,41.823,45.5a32.878,32.878,0,0,1,6.519-23.357,31.956,31.956,0,0,1,2.51-3.071c2.116-2.29,5.31-3.552,7.092-6.178,2.384-3.508-.808-7.4-3.652-9.643C49.769-.322,42.951-.612,37.544.762A4.241,4.241,0,0,0,34.79,2.5" transform="translate(84.682 342.219)" fill="#383075"/>
    <path id="Fill_62" data-name="Fill 62" d="M11.326,69.162a27.719,27.719,0,0,1-4.493-2.685A25.939,25.939,0,0,1,0,59.084a25.158,25.158,0,0,0,8.593,5.974c8.967,4.07,22.545,3.527,25.692-6.065,1.991-6.131-.423-13.338-2.043-20.228-.632-3.026-.946-6.849,1.4-9.831,5.448-7.281,16.851-16.786,5.9-23.963C37.5,3.522,34.866,1.838,32.279,1.39a5.763,5.763,0,0,1,1.57-.628c5.333-1.374,12.059-1.084,16.52,2.49,2.8,2.245,5.954,6.134,3.6,9.643-1.76,2.624-4.91,3.885-7,6.176A32.125,32.125,0,0,0,44.5,22.144,33.217,33.217,0,0,0,38.071,45.5c.667,6.968,5.025,15.651-1.252,20.98-6.995,5.965-17.475,6.83-25.493,2.681" transform="translate(88.667 342.219)" fill="#be0152"/>
    <path id="Fill_64" data-name="Fill 64" d="M38.217,27.828c-2.372,3.013-2.054,6.876-1.416,9.933,1.64,6.961,4.08,14.245,2.066,20.437C35.686,67.888,21.962,68.439,12.9,64.327a29.779,29.779,0,0,1-9.683-6.036A20.994,20.994,0,0,1,.442,42.913c1.15-5.487,4.715-8.432,9.032-10.489A47.471,47.471,0,0,1,13.98,30.6c9.243-2.6,15.491-6.777,18.1-16.382A104.93,104.93,0,0,0,34.1,2.819a4.5,4.5,0,0,1,.58-1.693A3.421,3.421,0,0,1,35.843,0a24.257,24.257,0,0,1,8.339,3.619C55.252,10.872,43.725,20.473,38.217,27.828Z" transform="translate(84.682 343.215)" fill="#eb0065"/>
    <path id="Fill_66" data-name="Fill 66" d="M11.023.018C7.74-.217,4.768,1.882,2.632,4.144c-2.723,3.31-4.494,10.161.7,11.568,4.669,1.376,7.4-3.783,9.81-7.223C14.752,6.2,13.8,2.658,11.619.584c-.188-.184-.387-.372-.6-.566" transform="translate(89.664 379.081)" fill="#be0152"/>
    <path id="Fill_68" data-name="Fill 68" d="M3.151,64.117A17.255,17.255,0,0,1,.186,51.423C.3,50.451.442,49.477.6,48.507A97.812,97.812,0,0,1,5.915,29.119C9.687,19.35,16.706,3.365,28.207.559c8.253-2.014,13,1.5,11.3,9.209-3.213,14.525-11.946,29.91-18.524,43.306a37.879,37.879,0,0,1-5.193,8.558,16.2,16.2,0,0,1-1.414,1.429c-2.348,2.281-6.249,3.768-9.468,1.725-.548-.208-1.131-.432-1.756-.668" transform="translate(77.709 153.925)" fill="#f43285"/>
    <path id="Fill_70" data-name="Fill 70" d="M35.456,14.482C34.778,7.122,28.853.532,21.343.045a23.335,23.335,0,0,0-9.062,1.27A21.15,21.15,0,0,0,4.5,5.962,15.176,15.176,0,0,0,.437,20.578,18.748,18.748,0,0,0,14.165,34.154a18.95,18.95,0,0,0,9.5.208C30.231,32.556,35.676,26.567,35.81,19.6a17.623,17.623,0,0,0-.354-5.12" transform="translate(269.987 219.679)" fill="#eb0065"/>
    <path id="Fill_72" data-name="Fill 72" d="M1.406,24.739C-1.333,19.2.147,12.867,3.975,8.161,9,1.981,18.994-3.386,25.618,2.623c7.814,6.954.092,18.254-7.035,22.8a22.981,22.981,0,0,1-4.1,2.24,12.258,12.258,0,0,1-8.7.71A8.776,8.776,0,0,1,2.035,25.76c-.2-.341-.406-.684-.629-1.021" transform="translate(117.559 116.067)" fill="#f43285"/>
    <path id="Fill_74" data-name="Fill 74" d="M4.4,15.877C3.783,11.834,2.782,5.285,7.921,4.125c2.843-.643,5.778.107,7.2,2.762,1.242,2.314,1.466,5.06,1.87,7.6.393,2.471,4.3,2.12,3.9-.367C20.045,8.771,19.129,2.278,13.066.467A11.284,11.284,0,0,0,3.857,1.687,9.383,9.383,0,0,0,.171,8.256,27.574,27.574,0,0,0,.5,16.244c.378,2.476,4.283,2.124,3.9-.367" transform="translate(228.144 235.619)" fill="#81063b"/>
    <path id="Fill_76" data-name="Fill 76" d="M.075,17.5C-.64,10.141,3.833,2.565,10.957.692A22.361,22.361,0,0,1,19.9.26a20.468,20.468,0,0,1,8.334,3.12,15.351,15.351,0,0,1,6.621,13.608A18.656,18.656,0,0,1,24.186,32.875a18.125,18.125,0,0,1-9.09,1.97C8.45,34.29,2.1,29.416.685,22.6a17.864,17.864,0,0,1-.61-5.1" transform="translate(169.365 229.641)" fill="#eb0065"/>
    <path id="Fill_78" data-name="Fill 78" d="M.054,11.955A12.293,12.293,0,0,1,.179,8.712a12.147,12.147,0,0,1,.932-2.991C2.367,3.054,4.42.543,7.252.272c6.748-1.227,15.88,1.661,16.6,9.4a12.2,12.2,0,0,1-.127,3.241A11.937,11.937,0,0,1,.054,11.955" transform="translate(177.335 230.638)" fill="#740333"/>
    <path id="Fill_80" data-name="Fill 80" d="M0,4.111A4.48,4.48,0,0,1,.135,2.9,3.881,3.881,0,0,1,5.162.2,4.033,4.033,0,0,1,7.895,4.744,4.256,4.256,0,0,1,2.539,7.764,3.933,3.933,0,0,1,0,4.111" transform="translate(181.32 236.615)" fill="#fff"/>
    <path id="Fill_82" data-name="Fill 82" d="M23.856,9.934a11.761,11.761,0,0,0-2.194-5.807C19.933,1.793,17.45-.244,14.615.024,7.759.1-.681,4.579.044,12.169a11.837,11.837,0,0,0,.725,3.1A11.969,11.969,0,0,0,23.856,9.934" transform="translate(272.976 221.671)" fill="#740333"/>
    <path id="Fill_84" data-name="Fill 84" d="M7.915,3.381a4.379,4.379,0,0,0-.356-1.163A3.859,3.859,0,0,0,2.119.509a4.07,4.07,0,0,0-1.842,5A4.231,4.231,0,0,0,6.1,7.463,3.973,3.973,0,0,0,7.915,3.381" transform="translate(277.957 226.653)" fill="#fff"/>
    <path id="Fill_86" data-name="Fill 86" d="M36.859,160.083c-11.485-6.19-24.5-7.64-36.164-14.59-1.7-.914.106-4.575,1.22-4.143,57.833,21.37,120.929,13.247,172.409-17.8q8.6-4.7,16.75-10.142c23.827-15.32,43.583-36.252,54.2-63.032C251.98,33.366,257.092,16.5,264.118,0c12.408,26.209-1.224,55.153-14.749,79.523-9.392,17-21.608,29.7-35.5,41.554q-7.78,6.638-16.17,12.487-7.328,5.106-15.062,9.541t-15.793,8.125c-36.162,18.2-77.434,21.567-116.337,11.708-4.535-.86-9.1-1.816-13.65-2.854" transform="translate(144.458 234.623)" fill="#f43285"/>
    <path id="Fill_88" data-name="Fill 88" d="M6.022,10.329a4.583,4.583,0,0,0,.459,1.73,105.13,105.13,0,0,1,4.642,10.586c3.172,9.425.359,16.4-5.781,23.74a47.81,47.81,0,0,0-2.687,4.039c-2.4,4.129-3.7,8.57-1.606,13.766,3.486,8.658,11.861,13.167,20.56,13.5a27.107,27.107,0,0,0,5.223-.3A23.593,23.593,0,0,0,46.458,60.676c2.226-8.025-6.234-12.822-10.679-18.277A33.786,33.786,0,0,1,28.066,19.19a32.42,32.42,0,0,1,.335-3.976c.451-3.1,2.356-5.946,2.348-9.143C30.737,1.8,25.958.33,22.378.04,16.686-.422,10.953,3.152,7.3,7.33a4.254,4.254,0,0,0-1.28,3" transform="translate(232.129 376.092)" fill="#383075"/>
    <path id="Fill_90" data-name="Fill 90" d="M15.4,77.688a26.041,26.041,0,0,1-9.881-2.311,25.319,25.319,0,0,0,10.551.126c9.794-1.68,20.843-9.841,18.07-19.659-1.791-6.263-7.872-10.929-13.11-15.78-2.231-2.174-4.65-5.2-4.368-9.027.452-9.187,4.631-23.618-8.57-23.414C5.567,7.57,2.419,7.654,0,8.748A6.017,6.017,0,0,1,.962,7.328C4.648,3.152,10.433-.422,16.178.04,19.789.33,26.606,1.8,26.617,6.071c.008,3.2-2.913,6.04-3.366,9.143a32.14,32.14,0,0,0-.34,3.976C22.43,27.564,24.355,36.02,29.7,42.4c4.485,5.457,13.023,10.254,10.775,18.279a23.744,23.744,0,0,1-19.8,16.711A27.767,27.767,0,0,1,15.4,77.688Z" transform="translate(238.107 376.092)" fill="#be0152"/>
    <path id="Fill_92" data-name="Fill 92" d="M22.994,24.2c-.282,3.794,2.129,6.789,4.353,8.942,5.221,4.805,11.282,9.427,13.067,15.631C43.177,58.5,32.166,66.583,22.4,68.248a25.389,25.389,0,0,1-10.516-.125A20.77,20.77,0,0,1,1.056,57.039c-2.1-5.147-.8-9.544,1.615-13.634a47.284,47.284,0,0,1,2.7-4c6.178-7.274,8.011-14.179,4.819-23.516A120.426,120.426,0,0,0,5.523,4.406c-.289-.613.556-1.178.535-1.714a3.367,3.367,0,0,1,.327-1.566C8.8.042,11.933-.041,14.452.012,27.61-.188,23.444,15.1,22.994,24.2Z" transform="translate(232.129 383.066)" fill="#eb0065"/>
    <g id="Group_96" data-name="Group 96" transform="translate(395.967 199.871)">
      <path id="Clip_95-2" data-name="Clip 95" d="M0,0H76.88V47.228H0Z" transform="translate(0 0)" fill="none"/>
      <g id="Group_96-2" data-name="Group 96" transform="translate(0 0)" clip-path="url(#clip-path-3)">
        <path id="Fill_94" data-name="Fill 94" d="M7.018,16.84a4.437,4.437,0,0,1,1.782.08,103.153,103.153,0,0,0,11.308,2.315c9.858,1.109,16.024-3.2,21.825-10.892A48.109,48.109,0,0,1,45.277,4.8C48.768,1.518,52.8-.731,58.312.22c9.181,1.586,15.392,8.927,17.614,17.5a28.636,28.636,0,0,1,.844,5.255C77.677,32.1,72.979,41.7,64.8,46.091c-7.317,3.952-13.83-3.412-20.1-6.643a33.124,33.124,0,0,0-24.252-2.632,31.681,31.681,0,0,0-3.793,1.2c-2.92,1.121-5.268,3.631-8.38,4.315C4.113,43.243,1.642,38.811.58,35.32c-1.689-5.555.535-12.024,3.8-16.559a4.2,4.2,0,0,1,2.638-1.92" transform="translate(0 0)" fill="#383075"/>
      </g>
    </g>
    <g id="Group_99" data-name="Group 99" transform="translate(395.968 208.674)">
      <path id="Clip_98-2" data-name="Clip 98" d="M0,0H76.88V38.429H0Z" transform="translate(0 0)" fill="none"/>
      <g id="Group_99-2" data-name="Group 99" transform="translate(0 0)" clip-path="url(#clip-path-4)">
        <path id="Fill_97" data-name="Fill 97" d="M76.769,14.363a28.182,28.182,0,0,0-.844-5.211A26.153,26.153,0,0,0,71.539,0a25.432,25.432,0,0,1,2.4,10.278c.48,9.925-5.069,22.47-15.215,21.874-6.477-.4-12.329-5.336-18.176-9.407-2.6-1.714-6.061-3.423-9.724-2.325-8.837,2.418-21.967,9.606-24.622-3.33-.6-2.457-1.2-5.549-.655-8.145a5.838,5.838,0,0,0-1.171,1.243C1.114,14.686-1.11,21.1.581,26.616c1.061,3.463,3.532,7.858,7.687,6.951,3.112-.679,5.46-3.169,8.38-4.283A32.219,32.219,0,0,1,20.441,28.1,33.361,33.361,0,0,1,44.693,30.71C50.967,33.917,57.48,41.223,64.8,37.3c8.181-4.357,12.881-13.877,11.972-22.937" transform="translate(0)" fill="#be0152"/>
      </g>
    </g>
    <path id="Fill_100" data-name="Fill 100" d="M.869,25.671c2.657,13.016,15.808,5.784,24.662,3.351,3.666-1.1,7.135.617,9.739,2.339,5.856,4.1,11.718,9.064,18.205,9.465,10.161.6,15.719-12.022,15.238-22.01A25.668,25.668,0,0,0,66.307,8.475,20.89,20.89,0,0,0,53.057.219C47.539-.73,43.5,1.516,40,4.79a48.509,48.509,0,0,0-3.349,3.538c-5.81,7.68-11.986,11.978-21.86,10.872A103.629,103.629,0,0,1,3.466,16.89a4.459,4.459,0,0,0-1.785-.08,3.38,3.38,0,0,0-1.469.666c-.542,2.612.059,5.722.658,8.2" transform="translate(401.494 200.75)" fill="#eb0065"/>
    <path id="Fill_102" data-name="Fill 102" d="M0,6.865C.989,3.747,3.961,1.747,6.769.574,10.737-.768,17.531.024,16.895,5.323c-.473,4.8-6.1,5.493-10.07,6.506C4.179,12.5,1.356,10.368.29,7.62.194,7.379.1,7.129,0,6.865" transform="translate(442.341 205.731)" fill="#be0152"/>
    <path id="Fill_104" data-name="Fill 104" d="M14.159.183A14.221,14.221,0,0,0,5.4,1.477c-4.221,2.261-7.371,7-3.935,11.411,5.567,7.15,16.823,8.271,23.005,1.645,3.457-3.706.029-9.873-3.562-11.985A18.908,18.908,0,0,0,14.159.183" transform="translate(253.051 78.209)" fill="#eb0065"/>
    <path id="Fill_106" data-name="Fill 106" d="M12.67.387C7.337-1.029-.023,1.479,0,7.246c-.071,7.61,9.955,10.1,16.262,7.953a7.03,7.03,0,0,0,4.221-4.056A7.177,7.177,0,0,0,18,2.8,14.013,14.013,0,0,0,12.67.387" transform="translate(296.886 91.161)" fill="#eb0065"/>
    <path id="Fill_108" data-name="Fill 108" d="M10.684,0C5.2-.117-1.254,4.076.211,9.7c1.841,7.45,12.107,7.51,17.638,3.917a6.937,6.937,0,0,0,3.043-4.963A7.363,7.363,0,0,0,16.413,1.1,13.913,13.913,0,0,0,10.684,0" transform="translate(179.327 144.959)" fill="#eb0065"/>
    <path id="Fill_110" data-name="Fill 110" d="M9.5.173C5.37-.735.743,2.028.074,6.254c-.646,4.486,3,8.322,7.662,8.681,4.1.151,8.287-1.531,9.814-5.315,1.07-2.962-.123-6.76-3.4-7.732A10.737,10.737,0,0,0,9.5.173" transform="translate(273.972 105.109)" fill="#eb0065"/>
    <path id="Fill_112" data-name="Fill 112" d="M7.658.068C3.4.151-.4,3.918.033,8.183c.519,4.51,5.049,7.387,9.677,6.645,4.027-.811,7.675-3.425,8.2-7.459.283-3.128-1.849-6.54-5.29-6.718A10.922,10.922,0,0,0,7.658.068" transform="translate(162.391 175.843)" fill="#eb0065"/>
    <path id="Fill_114" data-name="Fill 114" d="M10.683,0C5.2-.117-1.254,4.076.211,9.7c1.84,7.45,12.106,7.51,17.638,3.917a6.931,6.931,0,0,0,3.044-4.963A7.362,7.362,0,0,0,16.413,1.1,13.915,13.915,0,0,0,10.683,0" transform="translate(169.365 330.264)" fill="#eb0065"/>
    <path id="Fill_116" data-name="Fill 116" d="M7.658.068C3.4.153-.4,3.918.033,8.182c.519,4.509,5.049,7.386,9.677,6.646,4.028-.812,7.675-3.424,8.2-7.46C18.191,4.242,16.058.829,12.618.65A10.923,10.923,0,0,0,7.658.068" transform="translate(209.215 335.245)" fill="#eb0065"/>
    <path id="Fill_118" data-name="Fill 118" d="M9.5.173C5.37-.735.743,2.028.074,6.255c-.646,4.485,3,8.319,7.662,8.68,4.1.149,8.287-1.533,9.814-5.316,1.07-2.961-.123-6.759-3.4-7.729A10.717,10.717,0,0,0,9.5.173" transform="translate(347.696 264.511)" fill="#eb0065"/>
    <path id="Fill_120" data-name="Fill 120" d="M6.336.115A5.292,5.292,0,0,0,.05,4.17,5.275,5.275,0,0,0,5.156,9.957c2.733.1,5.526-1.022,6.545-3.545A3.912,3.912,0,0,0,9.432,1.259,7.15,7.15,0,0,0,6.336.115" transform="translate(334.744 286.428)" fill="#eb0065"/>
    <path id="Fill_122" data-name="Fill 122" d="M15.9,11.256c.5-5.466-3.251-12.2-8.979-11.144C-.655,1.417-1.422,11.657,1.791,17.435a6.977,6.977,0,0,0,4.753,3.391,7.358,7.358,0,0,0,7.86-3.932A13.934,13.934,0,0,0,15.9,11.256" transform="translate(99.626 308.346)" fill="#eb0065"/>
    <path id="Fill_124" data-name="Fill 124" d="M14.934,8.183c.2-4.242-3.309-8.3-7.6-8.18C2.788.189-.391,4.485.039,9.146c.543,4.067,2.91,7.888,6.909,8.7,3.107.51,6.662-1.362,7.072-4.773a10.841,10.841,0,0,0,.914-4.894" transform="translate(81.694 288.421)" fill="#eb0065"/>
    <path id="Fill_126" data-name="Fill 126" d="M.793,20.27a4.453,4.453,0,0,0,1.4,1.09A103.666,103.666,0,0,1,12.24,26.918C20.415,32.448,22.329,39.666,21.8,49.2a48.249,48.249,0,0,0,.266,4.824c.546,4.72,2.161,9.017,6.941,11.858,7.968,4.733,17.368,3.22,24.533-1.791a27.808,27.808,0,0,0,4-3.4c6.531-6.282,9.112-16.535,5.725-25.117-3.015-7.7-12.655-6.362-19.476-7.981A33.188,33.188,0,0,1,23.739,13.91a32.189,32.189,0,0,1-2.108-3.346c-1.495-2.728-1.669-6.133-3.585-8.656C15.483-1.462,10.777.274,7.74,2.215,2.906,5.3.45,11.605.025,17.122A4.184,4.184,0,0,0,.793,20.27" transform="translate(354.67 320.301)" fill="#383075"/>
    <path id="Fill_128" data-name="Fill 128" d="M57.542,61.168a27.867,27.867,0,0,1-4,3.432,25.921,25.921,0,0,1-9.223,4.142,25.331,25.331,0,0,0,8.449-6.291c6.763-7.272,10.65-20.468,2.582-26.614-5.163-3.91-12.779-3.946-19.833-4.639-3.073-.381-6.8-1.327-8.862-4.55-5.134-7.6-10.444-21.632-20.8-13.475-2.037,1.489-4.485,3.462-5.75,5.8a6.023,6.023,0,0,1-.085-1.712C.45,11.7,2.906,5.344,7.739,2.233c3.039-1.956,7.745-3.708,10.307-.31,1.918,2.544,2.092,5.975,3.587,8.725a32.082,32.082,0,0,0,2.108,3.375A33.176,33.176,0,0,0,43.791,27.806c6.82,1.632,16.462.286,19.475,8.045,3.386,8.652.808,18.985-5.723,25.317" transform="translate(354.67 320.301)" fill="#be0152"/>
    <path id="Fill_130" data-name="Fill 130" d="M5.751,2.435c10.353-8.046,15.664,5.8,20.8,13.291,2.065,3.179,5.79,4.112,8.864,4.488,7.055.684,14.671.719,19.837,4.574,8.069,6.062,4.182,19.081-2.583,26.253a25.307,25.307,0,0,1-8.45,6.2,20.849,20.849,0,0,1-15.313-2.3c-4.782-2.825-6.4-7.1-6.944-11.79a47.689,47.689,0,0,1-.266-4.8c.531-9.477-1.386-16.653-9.561-22.152A104.093,104.093,0,0,0,2.088,10.678a4.437,4.437,0,0,1-1.4-1.084A3.369,3.369,0,0,1,0,8.153C1.265,5.85,3.714,3.9,5.751,2.435" transform="translate(354.67 331.26)" fill="#eb0065"/>
    <path id="Fill_132" data-name="Fill 132" d="M.616,1.317C-.7,4.436.3,8,1.732,10.811c2.236,3.719,8.15,7.646,11.221,3.046,2.864-4.1-1.124-8.416-3.584-11.875C7.728-.323,4.05-.534,1.355.916c-.239.126-.484.259-.739.4" transform="translate(381.569 368.122)" fill="#be0152"/>
    <path id="Fill_134" data-name="Fill 134" d="M4.694,0C1.891,1.622.591,4.918.057,7.881-.395,12,1.826,18.387,6.816,16.641c4.546-1.483,4.009-7.063,4.141-11.113.087-2.7-2.587-4.97-5.47-5.41C5.233.078,4.968.039,4.694,0" transform="translate(237.111 424.909)" fill="#be0152"/>
  </g>
</svg>
