<svg xmlns="http://www.w3.org/2000/svg" width="126.525" height="126.525" viewBox="0 55 20.525 126.525">
  <g id="Group_17_Copy_7" data-name="Group 17 Copy 7" transform="translate(0.5 0.5)" opacity="0.15">
    <path id="Stroke_1" data-name="Stroke 1" d="M21.642,10.821A10.821,10.821,0,1,1,10.821,0,10.822,10.822,0,0,1,21.642,10.821Z" transform="translate(36.792 32.463)" fill="none" stroke="#fff" stroke-miterlimit="10" stroke-width="1"/>
    <path id="Stroke_3" data-name="Stroke 3" d="M13.851,6.926A6.926,6.926,0,1,1,6.926,0,6.925,6.925,0,0,1,13.851,6.926Z" transform="translate(73.151 79.211)" fill="none" stroke="#fff" stroke-miterlimit="10" stroke-width="1"/>
    <path id="Stroke_5" data-name="Stroke 5" d="M13.851,6.926A6.926,6.926,0,1,1,6.926,0,6.925,6.925,0,0,1,13.851,6.926Z" transform="translate(30.732 64.061)" fill="none" stroke="#fff" stroke-miterlimit="10" stroke-width="1"/>
    <path id="Stroke_7" data-name="Stroke 7" d="M13.851,6.926A6.926,6.926,0,1,1,6.925,0,6.926,6.926,0,0,1,13.851,6.926Z" transform="translate(57.568 64.061)" fill="none" stroke="#fff" stroke-miterlimit="10" stroke-width="1"/>
    <path id="Stroke_9" data-name="Stroke 9" d="M10.821,5.411A5.411,5.411,0,1,1,5.411,0,5.411,5.411,0,0,1,10.821,5.411Z" transform="translate(87.002 61.031)" fill="none" stroke="#fff" stroke-miterlimit="10" stroke-width="1"/>
    <path id="Stroke_11" data-name="Stroke 11" d="M7.791,3.895A3.9,3.9,0,1,1,3.9,0,3.9,3.9,0,0,1,7.791,3.895Z" transform="translate(58.434 91.763)" fill="none" stroke="#fff" stroke-miterlimit="10" stroke-width="1"/>
    <path id="Stroke_13" data-name="Stroke 13" d="M7.791,3.895A3.9,3.9,0,1,1,3.895,0,3.9,3.9,0,0,1,7.791,3.895Z" transform="translate(74.449 41.553)" fill="none" stroke="#fff" stroke-miterlimit="10" stroke-width="1"/>
    <path id="Stroke_15" data-name="Stroke 15" d="M124.983,61.042c-.905-2.066-2.55-2.648-4.242-1.914-1,.435-1.875.782-1.875.782a13.555,13.555,0,0,1-4.989,1.456h-.5a3.339,3.339,0,0,1-3.311-3.05,47.776,47.776,0,0,0-3.37-13.656,3.331,3.331,0,0,1,1.4-4.166l.622-.361a13.579,13.579,0,0,1,5.05-1.233s.929-.137,2.014-.261c1.834-.209,2.966-1.538,2.718-3.778a7.048,7.048,0,0,0-2.712-4.7c-1.819-1.335-3.532-1.019-4.632.464-.65.878-1.233,1.616-1.233,1.616A13.541,13.541,0,0,1,106.327,36l-.418.242a3.343,3.343,0,0,1-4.4-.991A47.2,47.2,0,0,0,91.761,25.13a3.332,3.332,0,0,1-.882-4.31l.367-.63A13.487,13.487,0,0,1,95,16.6s.736-.583,1.614-1.233c1.483-1.1,1.8-2.816.464-4.63a7.028,7.028,0,0,0-4.7-2.712c-2.24-.25-3.569.884-3.779,2.716-.123,1.085-.258,2.014-.258,2.014A13.628,13.628,0,0,1,87.11,17.8l-.254.437a3.335,3.335,0,0,1-4.3,1.34,47.233,47.233,0,0,0-13.5-3.922,3.333,3.333,0,0,1-2.919-3.294v-.71A13.554,13.554,0,0,1,67.6,6.661s.347-.872.782-1.875c.736-1.692.15-3.339-1.914-4.242a7.028,7.028,0,0,0-5.424,0c-2.064.9-2.648,2.55-1.914,4.242.437,1,.782,1.875.782,1.875a13.554,13.554,0,0,1,1.456,4.991v.5a3.334,3.334,0,0,1-3.05,3.309,47.766,47.766,0,0,0-13.655,3.372,3.334,3.334,0,0,1-4.168-1.4l-.359-.622A13.543,13.543,0,0,1,38.9,11.76s-.137-.929-.26-2.016C38.431,7.912,37.1,6.778,34.86,7.028a7.049,7.049,0,0,0-4.7,2.712c-1.335,1.817-1.017,3.534.466,4.63.878.652,1.614,1.233,1.614,1.233A13.6,13.6,0,0,1,36,19.2l.244.42a3.344,3.344,0,0,1-.993,4.4A47.247,47.247,0,0,0,25.13,33.766a3.331,3.331,0,0,1-4.31.88l-.63-.365A13.542,13.542,0,0,1,16.6,30.525s-.583-.736-1.233-1.614c-1.1-1.483-2.814-1.8-4.63-.464a7.037,7.037,0,0,0-2.712,4.7c-.248,2.24.884,3.569,2.716,3.778,1.087.125,2.016.26,2.016.26a13.572,13.572,0,0,1,5.05,1.235l.439.254a3.331,3.331,0,0,1,1.337,4.3,47.224,47.224,0,0,0-3.918,13.5,3.335,3.335,0,0,1-3.3,2.917h-.71a13.554,13.554,0,0,1-4.991-1.456s-.872-.345-1.875-.78c-1.692-.736-3.337-.152-4.242,1.912a7.033,7.033,0,0,0,0,5.426c.905,2.064,2.55,2.648,4.242,1.912,1-.435,1.875-.78,1.875-.78a13.554,13.554,0,0,1,4.991-1.456h.5a3.333,3.333,0,0,1,3.307,3.048,47.909,47.909,0,0,0,3.372,13.656,3.332,3.332,0,0,1-1.4,4.168l-.62.359a13.59,13.59,0,0,1-5.05,1.235s-.931.137-2.018.26c-1.832.211-2.964,1.538-2.716,3.779a7.05,7.05,0,0,0,2.712,4.7c1.817,1.337,3.534,1.019,4.632-.464.65-.878,1.231-1.614,1.231-1.614A13.569,13.569,0,0,1,19.2,89.529l.421-.242a3.337,3.337,0,0,1,4.394.991A47.156,47.156,0,0,0,33.768,100.4a3.331,3.331,0,0,1,.878,4.31l-.363.632a13.589,13.589,0,0,1-3.756,3.592s-.738.583-1.616,1.233c-1.483,1.1-1.8,2.816-.464,4.632a7.036,7.036,0,0,0,4.7,2.71c2.242.25,3.569-.884,3.778-2.716.125-1.085.261-2.014.261-2.014a13.5,13.5,0,0,1,1.235-5.05l.254-.439a3.332,3.332,0,0,1,4.3-1.339,47.223,47.223,0,0,0,13.5,3.92,3.335,3.335,0,0,1,2.917,3.3v.71a13.554,13.554,0,0,1-1.456,4.991s-.347.872-.782,1.875c-.736,1.692-.152,3.337,1.914,4.242a7.052,7.052,0,0,0,5.424,0c2.066-.905,2.65-2.55,1.914-4.242-.437-1-.782-1.875-.782-1.875a13.554,13.554,0,0,1-1.456-4.991v-.5a3.337,3.337,0,0,1,3.05-3.309A47.782,47.782,0,0,0,80.866,106.7a3.335,3.335,0,0,1,4.168,1.4l.359.624a13.571,13.571,0,0,1,1.235,5.048s.137.931.261,2.016c.209,1.832,1.536,2.966,3.778,2.716a7.018,7.018,0,0,0,4.7-2.712c1.337-1.817,1.02-3.532-.462-4.63-.878-.65-1.616-1.233-1.616-1.233a13.514,13.514,0,0,1-3.756-3.594l-.242-.42a3.337,3.337,0,0,1,.991-4.394A47.155,47.155,0,0,0,100.4,91.759a3.333,3.333,0,0,1,4.31-.88l.632.365A13.57,13.57,0,0,1,108.932,95s.581.738,1.233,1.614c1.1,1.485,2.814,1.8,4.63.464a7.039,7.039,0,0,0,2.712-4.7c.25-2.242-.884-3.569-2.718-3.779-1.083-.123-2.014-.26-2.014-.26a13.552,13.552,0,0,1-5.05-1.235l-.437-.254a3.331,3.331,0,0,1-1.34-4.3,47.241,47.241,0,0,0,3.92-13.5,3.335,3.335,0,0,1,3.3-2.917h.712a13.555,13.555,0,0,1,4.989,1.456s.872.347,1.875.782c1.692.734,3.337.15,4.242-1.914a7.052,7.052,0,0,0,0-5.424Z" transform="translate(0 0)" fill="none" stroke="#fff" stroke-miterlimit="10" stroke-width="1"/>
  </g>
</svg>
