<svg xmlns="http://www.w3.org/2000/svg" width="276.606" height="303" viewBox="0 0 276.606 303">
  <text id="Stats_Overview" data-name="Stats Overview" transform="translate(7.153 27)" fill="#6468a1" font-size="33" font-family="Graphik-Regular, Graphik"><tspan x="0" y="0">Hubei province</tspan></text>
  <path id="CN-42" d="M482.831,421.915l.394-2.418,1.63-.928-1.883-3.711,1.63-1.8-1.546-3.4,1.237-3.233-1.181-1.968.534-2.333-1.911-.787-1.968-3.149,1.124-5.595,1.828-3.205,2.08-1.293-.618-2.193,3.429-.675,3.6,1.349,3.317-.647,3.8,1.912,2.361-1.406.225-1.518,2.643.956,1.49-1.631-1.855-2.389-.478-5-4.077-2.7-5.65-1.659-2.5,1.406-1.152-1.209.956-6.831-3.655-1.968-3.963.253L477.77,362.4l2.417-3.318,3.346-.084,1.237-1.827.59,1.124,2.306.674,4.779-.618,6.353,2.362,4.751-.731,2.417,2.109,6.86-.534,4.891-3.515,1.35,4.246h2l1.883,2.473,1.237-2.165,2.558-.141.506-2.389,2.9.028,2.474-2.165h0l2.586,2.756-.59,1.518,1.911-1.012,3.458,3.964-1.518,1.883,3.2.057,1.237,2.9-1.068,1.462.253,2.221,1.265-.7.168,1.659,3.177,1.406,1.265,2.868,1.884-.562-1.659,1.827,3.149,2.249,2.193,3.458,2.417-1.714.2,1.209,2.67.084,5.989,4.217,2.221-.562,1.884,2.558,1.883-.675,3.2,3.627,2.9-.254,3.317,2.727,1.294-1.771,2.952.674,3.8-2.08,7.59,2.39,3.8-2.221.309.985,1.153-.675,2.727.759.112-1.574,1.237-.618,4.048,1.968.788-1.715,1.771-.365,4.246,3.486-.478.731,1.266,1.322,2.445.927,6.494-3.2-.338-.619,1.04.253,1.462-2.53,2.333.168.394,2.305,1.012-.084-1.1,4.751,1.518,2.08-.562,3.008-1.237.113,1.968,3.514-1.152,1.883,2,1.1,1.265,5.06,1.461-.084.928-1.265,1.293.844-.141,2.446,1.068,1.772,3.964-1.293,1.434-2.137,1.715-.534,2.193.843,2.053,3.43,5.538.787,1.8-.225.253-1.35.844,1.237,1.49-1.1-.675,8.631,2.53-1.293,2.419,2.418,2.755.365.393,1.49,1.8,1.068,4.892-1.574.984,1.181.76-2.277,2.923.253.7-3.177,1.153-.394,2.783,2.109-.535,5.426,3.149,1.687,2.165-.872h0l.618,2.39,1.659-.2.956,1.434L691.8,441l2.25.7,1.827,4.414,2.727-2.642,1.6.394,2.474,3.654,3.683-1.405,2.361,4.245,3.74,1.181,1.012,2.109-7.337,4.048-.9,1.293.9,2.445-3.093.843-.731,2.9,1.63,1.6.226,2.024,2.08.281,1.546,2.9-.674,2.67,1.742,1.153-2.136,1.743,1.153,1.94-.422,1.012,2.727.59.478,1.687,2.5,2.052.927,6.888-.618,2.98,2.08,3.036.084,2.7h0l-3.092,3.036-4.245,1.04-3.57-1.349-5.342-3.993-5.932.562-1.209,1.35-.225,2.726-6.466,4.7-.787-1.462-3.936.056-1.631-.928,1.181,1.35-.31,2.024,1.378.252-.534,3.149-2.952-.478.787-1.435-3.4-.449-1.855,1.321.281,1.518-1.94-1.124-1.181,2.024.928,1.405.843-1.49.871.534-2.024,3.093-1.124-.394-3.6,1.6-.73-1.237-2.108-.085-5.735,2.952-5.792-.057-1.547-1.546-1.349.422-.674,4.723-6.466,1.1-3.936,4.47-.366,2.137h0l-2.446.421.056-1.321-1.04.366-1.153-1.828-2.727,1.771L630,529.477l-1.35.871-1.152-3.121,1.434-2.839-3.261-1.181,2.137-4.752,2.418-.7.7-2.08-2.277-2.531-2-.422,3.8-2.277-1.237-2.221-1.18-.253-.141-1.715-4.133-.028.759-6.776-6.916,5.932-8.659,10.542-1.461-.674-.45,1.068-1.349-3.064-3.486,1.321-1.012-6.494,3.57-2.783.45-2.755-3.177,3.4-1.687-4.526-7.337,8.294-4.048-1.124-1.181.9-3.093-1.321-1.743,2.839-1.152,1.04-1.6-.253-1.293,1.94.59-3.542-2.418-1.518.337-1.715-1.687,1.434-.674-1.378-3.936-.844-.056-3.626-.2,1.124-3.065-1.911-.477-1.912-7.591-3.346-3.092,1.209-3.908-.085-.844-1.462-4.751.45-.506-1.574-.984.478-3.542-3.992-11.414-.984-.169-1.912-3.486-.562-2.558.337-.309,3.009-1.237.281-2.081-1.687-4.554.843-.9,1.18,2,1.631-1.687,3.121,1.434,2.249,2.389.956.985,2.39-3.908,3.2-2.445-.562-.76,1.827-2.615,1.237-.843-1.349-1.687.141-1.8-2.783-4.723-2.305-8.631.59-3.346.788-.393,2.67-2.333.9.731,2.418-2.052.478-1.94-1.547-1.518,1.069-1.574-.45-1.94,4.245L477.6,512.3l.281,1.715-1.1-.31.253,1.8-1.6,1.068.449,1.63-1.574,1.265.366,2.615-3.317,2.642.59,3.711-1.462.506h0l-4.3-3.261.815-2.558-.956-1.181.028-2.783-1.406-1.265-3.345,2.614-2.193.225.844-3.8-2.615-2.193,1.406-5.032-1.209.056.478-1.265-1.181-1.012-2.08.674-.112-1.574-1.04,1.04-1.35-1.827-1.461-.028-.759-6.522-2.334-.2-2.193,2.867.281,2.053-1.068,1.04-2.5-.985-.618-3.2-.759-.872-.59.759.253-1.968,1.631-.759,3.036.59.619-4.92-.366-2.783-.9.225,2.137-3.683.394-4.3-6.129-5.791.844-4.048,3.12-.647,2.137,1.181,2.614-2.727-.478-1.771,2.052-.141,1.49,3.627,3.233.112,4.835-5.117,2.84-1.405,2.726.31-1.04,3.4,1.827,1.294,5.9-4.1,1.574,2.839-.14,2.9,3.964-5.258,2.923-2.164,1.434.787.31-1.771,2.08-.759.591-2,4.048-3.514,4.273-1.6,2.475.731,1.292-1.152.619,2.755,2.08,1.265,3.149-7.534-1.575-2.109L502,448.2l2.643-2.136-1.855-10.149-6.945-3.542,1.068-1.546-3.4-.506-2.277-1.6-3.177.562.871-2.475-.7-3.57Z" transform="translate(-439.538 -295.757)" fill="#ebd94e" stroke="#c33825" stroke-width="1"/>
  <g id="Ellipse_1" data-name="Ellipse 1" transform="translate(198.153 165)" fill="#c33825" stroke="#c33825" stroke-width="1">
    <ellipse cx="6" cy="7" rx="6" ry="7" stroke="none"/>
    <ellipse cx="6" cy="7" rx="5.5" ry="6.5" fill="none"/>
  </g>
  <line id="Line_1" data-name="Line 1" y2="83.388" transform="translate(205.166 172.835)" fill="none" stroke="#707070" stroke-width="1"/>
  <text id="Stats_Overview-2" data-name="Stats Overview" transform="translate(158.153 297)" fill="#6468a1" font-size="34" font-family="Graphik-Regular, Graphik"><tspan x="0" y="0">Wuhan</tspan></text>
</svg>
