<svg xmlns="http://www.w3.org/2000/svg" xmlns:xlink="http://www.w3.org/1999/xlink" width="83.055" height="83.094" viewBox="0 0 83.055 83.094">
  <defs>
    <clipPath id="clip-path">
      <path id="Clip_44" data-name="Clip 44" d="M0,0H13.007V7.868H0Z" fill="none"/>
    </clipPath>
    <clipPath id="clip-path-2">
      <path id="Clip_54" data-name="Clip 54" d="M0,0H8.206V13.591H0Z" fill="none"/>
    </clipPath>
    <clipPath id="clip-path-3">
      <path id="Clip_95" data-name="Clip 95" d="M0,0H12.932V7.944H0Z" fill="none"/>
    </clipPath>
    <clipPath id="clip-path-4">
      <path id="Clip_98" data-name="Clip 98" d="M0,0H12.932V6.464H0Z" fill="none"/>
    </clipPath>
  </defs>
  <g id="Group_17_Copy_6" data-name="Group 17 Copy 6" transform="matrix(0.998, 0.07, -0.07, 0.998, 5.895, 0.534)" opacity="0.15">
    <path id="Stroke_1" data-name="Stroke 1" d="M13.373,6.69A6.687,6.687,0,1,1,6.687,0,6.689,6.689,0,0,1,13.373,6.69Z" transform="translate(22.32 20.045)" fill="none" stroke="#fff" stroke-miterlimit="10" stroke-width="1"/>
    <path id="Stroke_3" data-name="Stroke 3" d="M8.97,4.487A4.485,4.485,0,1,1,4.485,0,4.486,4.486,0,0,1,8.97,4.487Z" transform="translate(44.461 49.07)" fill="none" stroke="#fff" stroke-miterlimit="10" stroke-width="1"/>
    <path id="Stroke_5" data-name="Stroke 5" d="M8.97,4.487A4.485,4.485,0,1,1,4.485,0,4.486,4.486,0,0,1,8.97,4.487Z" transform="translate(18.914 39.08)" fill="none" stroke="#fff" stroke-miterlimit="10" stroke-width="1"/>
    <path id="Stroke_7" data-name="Stroke 7" d="M8.97,4.487A4.485,4.485,0,1,1,4.484,0,4.487,4.487,0,0,1,8.97,4.487Z" transform="translate(35.587 39.058)" fill="none" stroke="#fff" stroke-miterlimit="10" stroke-width="1"/>
    <path id="Stroke_9" data-name="Stroke 9" d="M6.687,3.345A3.343,3.343,0,1,1,3.343,0,3.344,3.344,0,0,1,6.687,3.345Z" transform="translate(53.244 37.9)" fill="none" stroke="#fff" stroke-miterlimit="10" stroke-width="1"/>
    <path id="Stroke_11" data-name="Stroke 11" d="M4.4,2.2A2.2,2.2,0,1,1,2.2,0,2.2,2.2,0,0,1,4.4,2.2Z" transform="translate(35.686 56.872)" fill="none" stroke="#fff" stroke-miterlimit="10" stroke-width="1"/>
    <path id="Stroke_13" data-name="Stroke 13" d="M4.4,2.2A2.2,2.2,0,1,1,2.2,0,2.2,2.2,0,0,1,4.4,2.2Z" transform="translate(45.609 25.753)" fill="none" stroke="#fff" stroke-miterlimit="10" stroke-width="1"/>
    <path id="Stroke_15" data-name="Stroke 15" d="M76.482,37.374a1.861,1.861,0,0,0-2.6-1.172c-.614.266-1.147.479-1.147.479a8.292,8.292,0,0,1-3.053.891h-.3a2.044,2.044,0,0,1-2.026-1.867,29.266,29.266,0,0,0-2.062-8.362,2.04,2.04,0,0,1,.855-2.551l.381-.221a8.305,8.305,0,0,1,3.09-.755s.568-.084,1.232-.16a1.862,1.862,0,0,0,1.663-2.313,4.316,4.316,0,0,0-1.66-2.877,1.862,1.862,0,0,0-2.835.284c-.4.538-.755.989-.755.989a8.288,8.288,0,0,1-2.2,2.3l-.256.148a2.045,2.045,0,0,1-2.69-.607,28.893,28.893,0,0,0-5.968-6.2,2.041,2.041,0,0,1-.54-2.639l.224-.386a8.255,8.255,0,0,1,2.3-2.2s.45-.357.987-.755a1.862,1.862,0,0,0,.284-2.835A4.3,4.3,0,0,0,56.532,4.91a1.862,1.862,0,0,0-2.313,1.663c-.075.664-.158,1.233-.158,1.233a8.348,8.348,0,0,1-.756,3.093l-.155.268a2.04,2.04,0,0,1-2.63.821,28.892,28.892,0,0,0-8.259-2.4,2.04,2.04,0,0,1-1.786-2.017V7.135a8.3,8.3,0,0,1,.891-3.056s.213-.534.479-1.148a1.862,1.862,0,0,0-1.171-2.6,4.3,4.3,0,0,0-3.319,0,1.863,1.863,0,0,0-1.171,2.6c.267.614.479,1.148.479,1.148a8.3,8.3,0,0,1,.891,3.056v.3a2.041,2.041,0,0,1-1.866,2.026,29.217,29.217,0,0,0-8.356,2.064,2.04,2.04,0,0,1-2.55-.855l-.22-.381A8.3,8.3,0,0,1,23.8,7.2s-.084-.569-.159-1.234A1.861,1.861,0,0,0,21.332,4.3a4.313,4.313,0,0,0-2.875,1.661A1.863,1.863,0,0,0,18.742,8.8c.537.4.987.755.987.755a8.322,8.322,0,0,1,2.3,2.2l.149.257A2.048,2.048,0,0,1,21.57,14.7a28.919,28.919,0,0,0-6.192,5.971,2.038,2.038,0,0,1-2.638.539l-.386-.223a8.289,8.289,0,0,1-2.2-2.3S9.8,18.239,9.4,17.7a1.86,1.86,0,0,0-2.833-.284,4.309,4.309,0,0,0-1.66,2.877,1.862,1.862,0,0,0,1.662,2.313c.665.076,1.233.159,1.233.159a8.3,8.3,0,0,1,3.09.756l.269.155a2.04,2.04,0,0,1,.818,2.632,28.926,28.926,0,0,0-2.4,8.264,2.041,2.041,0,0,1-2.017,1.786H7.131a8.291,8.291,0,0,1-3.054-.891s-.534-.211-1.147-.478a1.86,1.86,0,0,0-2.6,1.171,4.308,4.308,0,0,0,0,3.322,1.86,1.86,0,0,0,2.6,1.171c.614-.266,1.147-.478,1.147-.478a8.291,8.291,0,0,1,3.054-.891h.3a2.04,2.04,0,0,1,2.024,1.866,29.346,29.346,0,0,0,2.063,8.362,2.041,2.041,0,0,1-.855,2.552l-.38.22a8.313,8.313,0,0,1-3.09.756s-.57.084-1.235.159A1.863,1.863,0,0,0,4.3,55.513a4.317,4.317,0,0,0,1.66,2.876A1.861,1.861,0,0,0,8.8,58.1c.4-.538.753-.988.753-.988a8.306,8.306,0,0,1,2.2-2.3l.258-.148a2.041,2.041,0,0,1,2.689.607,28.865,28.865,0,0,0,5.969,6.194,2.04,2.04,0,0,1,.537,2.639l-.222.387a8.317,8.317,0,0,1-2.3,2.2s-.451.357-.989.755a1.864,1.864,0,0,0-.284,2.836,4.305,4.305,0,0,0,2.875,1.659,1.86,1.86,0,0,0,2.312-1.663c.076-.664.16-1.233.16-1.233a8.267,8.267,0,0,1,.756-3.092l.155-.269a2.038,2.038,0,0,1,2.629-.82,28.886,28.886,0,0,0,8.26,2.4,2.042,2.042,0,0,1,1.785,2.018v.435a8.3,8.3,0,0,1-.891,3.056s-.213.534-.479,1.148a1.862,1.862,0,0,0,1.171,2.6,4.313,4.313,0,0,0,3.319,0,1.862,1.862,0,0,0,1.171-2.6c-.267-.614-.479-1.148-.479-1.148a8.3,8.3,0,0,1-.891-3.056v-.3a2.043,2.043,0,0,1,1.866-2.026,29.227,29.227,0,0,0,8.356-2.064,2.04,2.04,0,0,1,2.55.855l.22.382a8.313,8.313,0,0,1,.756,3.091s.084.57.16,1.234a1.86,1.86,0,0,0,2.312,1.663,4.294,4.294,0,0,0,2.874-1.661,1.862,1.862,0,0,0-.283-2.835c-.537-.4-.989-.755-.989-.755a8.272,8.272,0,0,1-2.3-2.2l-.148-.257a2.044,2.044,0,0,1,.607-2.69,28.864,28.864,0,0,0,6.191-5.972,2.039,2.039,0,0,1,2.638-.539l.387.223a8.306,8.306,0,0,1,2.2,2.3s.356.452.755.988a1.859,1.859,0,0,0,2.833.284,4.31,4.31,0,0,0,1.66-2.876,1.862,1.862,0,0,0-1.663-2.314c-.663-.075-1.232-.159-1.232-.159a8.29,8.29,0,0,1-3.09-.756l-.267-.155a2.04,2.04,0,0,1-.82-2.631,28.937,28.937,0,0,0,2.4-8.265A2.041,2.041,0,0,1,69.249,40.5h.436a8.291,8.291,0,0,1,3.053.891s.534.213,1.147.479a1.862,1.862,0,0,0,2.6-1.172,4.32,4.32,0,0,0,0-3.321Z" transform="translate(0 0)" fill="none" stroke="#fff" stroke-miterlimit="10" stroke-width="1"/>
  </g>
  <g id="emo" transform="translate(0.816 2.04)">
    <path id="Fill_1" data-name="Fill 1" d="M6.024.4Q5.841.316,5.649.248C5.522.2,5.393.163,5.263.129,5.206.115,5.148.1,5.09.09L5.053.082C5,.07,4.938.06,4.88.051l-.015,0Q4.781.035,4.7.026l-.022,0C4.612.017,4.551.011,4.49.007H4.479Q4.288,0,4.1,0h0a3.6,3.6,0,0,0-.965.167l-.009,0q-.065.021-.129.045l-.013,0A3.262,3.262,0,0,0,2.58.4L2.56.415l-.1.059-.03.018-.093.06L2.305.571C2.27.6,2.234.62,2.2.646L2.188.654Q2.13.7,2.074.745L2.052.764,1.966.839,1.931.871C1.907.894,1.883.916,1.86.94L1.823.976c-.024.024-.047.049-.07.075l-.031.034c-.033.037-.065.075-.1.114A2.226,2.226,0,0,0,1.267,3.28c.015.059.03.118.048.177s.042.14.065.21q.052.161.11.321A6.023,6.023,0,0,1,1.865,5.08c.009.039.017.078.025.117.023.117.04.233.051.348,0,.038.007.077.009.115a2.969,2.969,0,0,1-.018.57,2.873,2.873,0,0,1-.133.565q-.039.114-.088.227a3.8,3.8,0,0,1-.394.688q-.064.09-.131.177C.873,8.3.512,8.668.17,9.052A.755.755,0,0,0,.063,9.2a.548.548,0,0,0-.037.082v0a.471.471,0,0,0-.016.058v.008A.429.429,0,0,0,0,9.4v0a.57.57,0,0,0,0,.123.771.771,0,0,0,.029.121h0c.007.021.014.041.023.062s.018.043.028.066c.023.048.047.1.072.144s.051.1.079.143q.083.143.18.281t.208.267c.037.043.075.085.114.127a3.221,3.221,0,0,0,.245.234q.1.082.2.155c.046.032.092.063.139.092l.071.043c.034.019.067.037.1.054s.062.031.093.045.085.037.129.054a1.994,1.994,0,0,0,.291.085,2.163,2.163,0,0,0,.879.022c.026-.006.052-.012.077-.02s.048-.015.072-.023l.035-.014A.888.888,0,0,0,3.2,11.4a.758.758,0,0,0,.1-.074q.025-.022.049-.047a.658.658,0,0,0,.065-.082.758.758,0,0,0,.1-.205,7.159,7.159,0,0,0,.041-1.374c0-.022,0-.043.007-.065.007-.051.015-.1.024-.152q.04-.227.1-.443a4.862,4.862,0,0,1,.262-.794q.047-.11.1-.217a5.045,5.045,0,0,1,.292-.521,5.163,5.163,0,0,1,1.5-1.52c.9-.6,2.36-.932,2.378-2.2A3.629,3.629,0,0,0,6.024.4" transform="translate(47.592 5.319)" fill="rgba(255,255,255,0.14)"/>
    <path id="Fill_3" data-name="Fill 3" d="M7.908,10.91a.745.745,0,0,1-.175-.243,17.428,17.428,0,0,0-.872-1.724A3.738,3.738,0,0,0,3.177,7.2a7.985,7.985,0,0,1-.808-.074A2.441,2.441,0,0,1,.419,5.883,3.789,3.789,0,0,1,.87,1.765a4.657,4.657,0,0,1,.6-.653A3.968,3.968,0,0,1,5.721.3C7,.857,6.712,2.471,6.942,3.629A5.589,5.589,0,0,0,9.117,7.087a5.421,5.421,0,0,0,.549.375,10.5,10.5,0,0,1,1.432.656c.55.452.23,1.233-.115,1.733a3.294,3.294,0,0,1-2.551,1.207.7.7,0,0,1-.524-.149" transform="translate(7.541 12.022)" fill="#383075"/>
    <path id="Fill_5" data-name="Fill 5" d="M1.339,1.109a4.666,4.666,0,0,0-.595.651A4.373,4.373,0,0,0,0,3.283,4.249,4.249,0,0,1,1.1,1.9C2.347.811,4.564.239,5.536,1.63a6.679,6.679,0,0,1,.65,3.357,1.959,1.959,0,0,0,.7,1.515c.123.091.257.182.4.275a3.765,3.765,0,0,0,.557.335.685.685,0,0,1,.224.2c.033.084.094.258.049.262a1.991,1.991,0,0,0-.133,3.336c.385.278.906.094,1.353-.041.116-.045.232-.1.344-.153a3.454,3.454,0,0,0,.61-.385,3.012,3.012,0,0,0,.3-.282,2.736,2.736,0,0,0,.62-1.062.816.816,0,0,0-.307-.869c-.421-.185-.839-.336-1.226-.53a4.156,4.156,0,0,1-.375-.21,3.035,3.035,0,0,1-.348-.256A2.611,2.611,0,0,1,8.64,6.81q-.158-.136-.306-.284A5.625,5.625,0,0,1,6.8,3.62C6.571,2.465,6.853.854,5.582.3a3.957,3.957,0,0,0-4.243.808" transform="translate(7.709 12.19)" fill="#be0152"/>
    <path id="Fill_7" data-name="Fill 7" d="M6.874,8.178a2.071,2.071,0,0,1,.4.7A2.388,2.388,0,0,0,8.378,6.736.37.37,0,0,0,8.2,6.41a1.477,1.477,0,0,0-.4-.186c-.074-.036-.146-.072-.211-.105a2.332,2.332,0,0,1-.2-.14l-.169-.116q-.083-.058-.16-.115a1.982,1.982,0,0,1-.707-1.53A6.753,6.753,0,0,0,5.7.829C4.72-.576,2.487,0,1.229,1.1A4.283,4.283,0,0,0,.124,2.5a3.531,3.531,0,0,0,.3,2.609A2.451,2.451,0,0,0,2.379,6.356a8.008,8.008,0,0,0,.812.075,4.738,4.738,0,0,1,2.349.443c.074.039.146.081.218.126a2.74,2.74,0,0,1,.611.516c.093.1.183.212.268.325s.164.225.237.337" transform="translate(7.541 12.86)" fill="#eb0065"/>
    <path id="Fill_9" data-name="Fill 9" d="M.835,2.849a1.861,1.861,0,0,1-.818-1.3C-.082.864.248-.223,1.088.04c.764.222.708,1.162.754,1.842a1.007,1.007,0,0,1-.876.942l-.131.025" transform="translate(8.547 15.206)" fill="#be0152"/>
    <path id="Fill_11" data-name="Fill 11" d="M10.637,2.193c-.06-.121-.126-.24-.2-.355s-.148-.226-.229-.333c-.036-.047-.073-.093-.11-.138l-.025-.029C10.038,1.292,10,1.248,9.96,1.2l-.01-.011c-.039-.042-.079-.083-.119-.124l-.016-.016Q9.749.99,9.681.928L9.673.921Q9.53.793,9.376.68l0,0a3.61,3.61,0,0,0-.862-.47L8.5.2C8.46.189,8.417.174,8.374.16l-.013,0A3.209,3.209,0,0,0,7.935.049l-.023,0L7.794.027l-.035,0L7.649.012l-.034,0C7.571.006,7.528,0,7.485,0H7.471c-.049,0-.1,0-.147,0H7.295L7.18.007l-.048,0-.1.01L6.983.026l-.1.015L6.835.049c-.049.009-.1.018-.147.029A2.238,2.238,0,0,0,5.1,1.483q-.038.083-.074.168c-.028.068-.055.136-.081.205q-.06.158-.114.32a5.961,5.961,0,0,1-.39,1.088c-.018.036-.035.072-.054.107-.055.106-.114.207-.178.3-.021.032-.042.064-.065.1a2.993,2.993,0,0,1-.371.435,2.887,2.887,0,0,1-.459.36q-.1.064-.211.123a3.815,3.815,0,0,1-.739.294q-.107.03-.214.057c-.5.125-1.018.192-1.528.279a.769.769,0,0,0-.178.052.61.61,0,0,0-.08.041h0a.538.538,0,0,0-.048.035l-.005.005c-.014.012-.027.024-.039.037l0,0a.546.546,0,0,0-.073.1h0A.747.747,0,0,0,.145,5.7h0c-.007.02-.015.041-.021.062S.11,5.811.1,5.835c-.012.052-.024.1-.034.158S.05,6.1.042,6.154c-.016.109-.028.22-.035.332S0,6.712,0,6.825c0,.056.005.113.01.17a3.122,3.122,0,0,0,.046.336q.024.125.058.246c.016.054.032.107.051.159.01.026.019.052.029.078s.03.071.046.106.029.062.045.093.044.082.067.122a1.976,1.976,0,0,0,.174.248,2.17,2.17,0,0,0,.676.564l.073.032L1.348,9l.036.011a.851.851,0,0,0,.147.029.707.707,0,0,0,.124,0,.618.618,0,0,0,.068-.007.637.637,0,0,0,.1-.024.763.763,0,0,0,.2-.1c.384-.265.573-.723.892-1.05.016-.016.031-.031.047-.046q.056-.053.115-.1.173-.153.355-.286a4.886,4.886,0,0,1,.7-.458q.106-.057.214-.108a5.027,5.027,0,0,1,.555-.226,5.2,5.2,0,0,1,2.127-.256c1.08.087,2.435.74,3.245-.243a3.622,3.622,0,0,0,.354-3.946" transform="translate(63.009 23.25)" fill="rgba(255,255,255,0.14)"/>
    <path id="Fill_15" data-name="Fill 15" d="M2.706.28c-.136.05-.269.106-.4.168s-.257.13-.381.2c-.054.032-.107.066-.159.1L1.733.775c-.052.035-.1.071-.154.107L1.566.892c-.049.036-.1.073-.145.111L1.4,1.018c-.051.041-.1.083-.149.126l-.009.008c-.1.09-.2.185-.289.284l0,0A3.786,3.786,0,0,0,.36,2.29l0,.009q-.032.065-.062.13l-.006.013a3.313,3.313,0,0,0-.16.434L.122,2.9C.11,2.939.1,2.98.09,3.02l-.008.036c-.009.038-.017.077-.024.115L.05,3.206c-.008.045-.015.09-.021.135l0,.014c-.007.051-.012.1-.016.153,0,.01,0,.02,0,.03,0,.04,0,.08-.006.121,0,.016,0,.034,0,.05,0,.034,0,.069,0,.1,0,.018,0,.036,0,.054,0,.036,0,.072.005.108,0,.016,0,.032,0,.048,0,.052.009.1.015.157A2.358,2.358,0,0,0,1.352,5.989q.085.049.172.095c.069.037.139.072.21.106.108.053.218.1.329.154a6.49,6.49,0,0,1,1.118.523l.108.068c.107.069.209.141.305.218l.095.078a3.182,3.182,0,0,1,.423.434,3.037,3.037,0,0,1,.335.518q.057.113.108.234a3.938,3.938,0,0,1,.233.8c.014.077.027.153.038.23.079.538.1,1.085.133,1.626A.787.787,0,0,0,5,11.269a.6.6,0,0,0,.035.088v0a.566.566,0,0,0,.033.054l0,.007a.474.474,0,0,0,.035.045l0,0a.583.583,0,0,0,.1.087h0a.8.8,0,0,0,.114.068h0c.021.01.042.02.064.029l.072.027c.054.019.109.036.165.053s.112.032.169.046c.114.029.232.053.351.072s.239.033.361.041c.06,0,.121.007.182.008a3.469,3.469,0,0,0,.363-.012c.09-.008.18-.019.268-.035.059-.011.117-.023.175-.037l.086-.022c.04-.011.079-.023.118-.036l.1-.037c.047-.018.093-.037.138-.058a2.217,2.217,0,0,0,.284-.156,2.3,2.3,0,0,0,.674-.647c.015-.024.029-.048.042-.072s.025-.047.036-.072.011-.024.015-.036a.861.861,0,0,0,.048-.151.762.762,0,0,0,.017-.13.669.669,0,0,0,0-.072.677.677,0,0,0-.014-.109.785.785,0,0,0-.086-.224c-.241-.43-.709-.676-1.023-1.045-.015-.018-.03-.035-.044-.054-.034-.043-.067-.087-.1-.131q-.145-.2-.266-.4A5.04,5.04,0,0,1,7.1,7.578c-.033-.078-.064-.156-.093-.235a5.425,5.425,0,0,1-.181-.6,5.357,5.357,0,0,1-.044-2.251c.209-1.119,1.052-2.465.091-3.417A3.941,3.941,0,0,0,2.706.28" transform="translate(22.12 7.33)" fill="rgba(255,255,255,0.14)"/>
    <path id="Fill_17" data-name="Fill 17" d="M.434,2.3c-.061.129-.117.262-.165.4s-.092.271-.127.409c-.016.06-.029.121-.043.182,0,.013-.005.026-.008.039q-.019.091-.034.183c0,.005,0,.01,0,.016-.01.06-.018.12-.025.18l0,.024q-.011.1-.017.194s0,.008,0,.012q-.012.2-.006.4a.013.013,0,0,1,0,0A3.809,3.809,0,0,0,.176,5.363s0,.006,0,.01c.015.046.03.091.047.136,0,0,0,.009,0,.014a3.4,3.4,0,0,0,.19.423l.011.021c.02.037.041.073.062.109l.019.031c.02.033.041.066.063.1l.02.031c.025.037.052.075.079.112l.009.012c.031.041.062.082.1.122l.02.023c.026.031.052.061.079.091l.034.037.072.075.039.038c.026.025.052.05.079.074l.036.033c.039.035.079.069.12.1a2.358,2.358,0,0,0,2.2.389c.062-.016.125-.032.188-.05s.149-.044.223-.068c.113-.037.227-.075.34-.116a6.364,6.364,0,0,1,1.157-.392L5.491,6.7q.186-.035.368-.053l.122-.009a3.157,3.157,0,0,1,.6.021,3.084,3.084,0,0,1,.6.143c.08.028.16.059.24.094a4.018,4.018,0,0,1,.726.419c.063.045.126.092.187.14.431.333.824.716,1.229,1.081a.792.792,0,0,0,.159.113.575.575,0,0,0,.086.039h0a.525.525,0,0,0,.061.017h.008a.562.562,0,0,0,.056.008h0a.6.6,0,0,0,.13,0,.8.8,0,0,0,.128-.03h0l.066-.024c.023-.009.046-.019.07-.03q.077-.035.153-.075c.051-.026.1-.054.153-.083.1-.058.2-.121.3-.189s.192-.141.284-.218c.046-.039.091-.079.134-.119a3.355,3.355,0,0,0,.249-.259c.059-.068.114-.138.166-.21.034-.048.067-.1.1-.147l.046-.075c.02-.035.039-.071.058-.107s.032-.065.048-.1.04-.09.057-.137A2.14,2.14,0,0,0,12.17,6.6a2.3,2.3,0,0,0,.026-.93c-.006-.027-.013-.055-.021-.081s-.016-.051-.025-.076-.009-.024-.014-.037a.877.877,0,0,0-.071-.141.822.822,0,0,0-.078-.105.65.65,0,0,0-.051-.052.711.711,0,0,0-.086-.069.8.8,0,0,0-.218-.1,7.6,7.6,0,0,0-1.454-.049l-.069-.008c-.054-.008-.108-.017-.161-.026q-.24-.043-.469-.106a5.1,5.1,0,0,1-.839-.281c-.077-.033-.154-.069-.23-.106a5.414,5.414,0,0,1-.55-.311,5.456,5.456,0,0,1-1.6-1.592C5.626,1.575,5.283.025,3.939,0A3.842,3.842,0,0,0,.434,2.3" transform="translate(4.86 26.099)" fill="rgba(255,255,255,0.14)"/>
    <path id="Fill_21" data-name="Fill 21" d="M.443,7.033q.092.183.2.357c.072.115.151.227.233.335.037.047.074.093.112.139l.025.03c.038.045.077.089.117.132l.01.011q.059.063.121.124l.016.016q.067.065.136.126l.008.007q.145.128.3.24l0,0a3.6,3.6,0,0,0,.869.466l.009,0c.043.016.086.03.13.044l.013,0a3.231,3.231,0,0,0,.428.1l.023,0,.118.017.035,0,.111.01.034,0,.131.006h.014c.049,0,.1,0,.147,0l.029,0,.115-.006.048,0,.1-.011.051-.007.1-.016.046-.008c.049-.009.1-.02.147-.031A2.251,2.251,0,0,0,6,7.691q.037-.084.072-.171c.027-.069.053-.138.079-.208.039-.107.076-.215.111-.325a6.13,6.13,0,0,1,.379-1.1c.017-.037.035-.073.053-.109.054-.107.112-.211.175-.309.02-.033.042-.065.064-.1A3.038,3.038,0,0,1,7.3,4.924a2.91,2.91,0,0,1,.456-.369c.067-.045.138-.087.21-.127a3.815,3.815,0,0,1,.739-.3c.071-.021.142-.041.214-.06.5-.131,1.019-.205,1.529-.3a.768.768,0,0,0,.178-.054.571.571,0,0,0,.08-.043h0a.5.5,0,0,0,.049-.036l.005-.005a.435.435,0,0,0,.039-.038l0,0a.567.567,0,0,0,.072-.1h0a.78.78,0,0,0,.052-.114h0c.007-.02.014-.041.02-.063s.013-.046.019-.07q.018-.079.033-.16c.01-.054.019-.109.026-.164.015-.11.026-.223.032-.336s.006-.228,0-.343c0-.057-.006-.114-.011-.172A3.168,3.168,0,0,0,11,1.722c-.017-.084-.037-.166-.061-.248q-.024-.081-.053-.16c-.01-.026-.02-.053-.03-.079s-.03-.072-.047-.106-.03-.063-.046-.094-.044-.082-.069-.123a2.025,2.025,0,0,0-.177-.249A2.183,2.183,0,0,0,9.828.1C9.8.089,9.779.078,9.755.068L9.683.042,9.647.032A.875.875,0,0,0,9.5,0a.7.7,0,0,0-.125,0c-.023,0-.045,0-.068.008a.748.748,0,0,0-.1.025.76.76,0,0,0-.2.1c-.382.273-.566.738-.884,1.071l-.046.047c-.038.036-.075.072-.114.106-.115.1-.233.2-.353.293a4.851,4.851,0,0,1-.7.471q-.105.059-.214.112a5.1,5.1,0,0,1-.554.234,5.168,5.168,0,0,1-2.13.282c-1.084-.076-2.449-.722-3.25.281a3.691,3.691,0,0,0-.313,4" transform="translate(7.373 50.565)" fill="rgba(255,255,255,0.14)"/>
    <path id="Fill_25" data-name="Fill 25" d="M11.329,6.006q.087-.185.155-.376c.046-.128.086-.257.119-.389.014-.057.027-.115.039-.173,0-.012.005-.025.008-.037.011-.058.022-.116.031-.173a.127.127,0,0,0,0-.015c.009-.057.016-.114.022-.171,0-.007,0-.015,0-.022.006-.061.012-.123.015-.184,0,0,0-.008,0-.011a3.8,3.8,0,0,0,0-.382s0,0,0,0a3.569,3.569,0,0,0-.173-.967l0-.009c-.014-.043-.029-.086-.046-.129L11.5,2.951a3.186,3.186,0,0,0-.185-.4l-.011-.02c-.02-.034-.039-.069-.06-.1l-.018-.03c-.02-.032-.04-.063-.061-.094l-.019-.029c-.025-.036-.05-.071-.076-.106l-.008-.011c-.03-.039-.06-.077-.092-.115l-.019-.022c-.025-.029-.05-.058-.077-.086L10.838,1.9l-.07-.071L10.731,1.8c-.025-.024-.051-.047-.076-.07l-.035-.031c-.038-.032-.076-.065-.116-.1a2.278,2.278,0,0,0-2.111-.352c-.06.015-.12.031-.179.048s-.142.043-.213.066c-.108.035-.217.073-.325.112a6.118,6.118,0,0,1-1.105.38l-.119.025q-.178.035-.352.053l-.117.01a3.039,3.039,0,0,1-.577-.016,2.938,2.938,0,0,1-.574-.131q-.115-.039-.231-.088a3.842,3.842,0,0,1-.7-.392q-.091-.064-.18-.131C3.306.871,2.927.511,2.536.168A.788.788,0,0,0,2.383.062.573.573,0,0,0,2.3.026h0A.48.48,0,0,0,2.24.01H2.232A.511.511,0,0,0,2.178,0h0a.562.562,0,0,0-.124.005.765.765,0,0,0-.122.029h0L1.865.059,1.8.087C1.75.11,1.7.134,1.653.16s-.1.052-.145.08q-.144.084-.284.182C1.13.486,1.04.556.953.63.909.667.867.705.825.744A3.187,3.187,0,0,0,.589.991c-.055.065-.108.131-.157.2-.033.046-.064.093-.093.14L.3,1.4c-.019.034-.037.068-.055.1S.21,1.567.2,1.6s-.037.086-.054.13a1.951,1.951,0,0,0-.086.292A2.148,2.148,0,0,0,.038,2.9c.006.026.013.052.021.077s.015.049.024.072.009.023.014.035a.847.847,0,0,0,.07.133.73.73,0,0,0,.076.1.637.637,0,0,0,.048.049.727.727,0,0,0,.083.064.764.764,0,0,0,.209.1,7.319,7.319,0,0,0,1.393.036l.066.007c.052.007.1.015.155.024q.23.039.449.1a4.9,4.9,0,0,1,.806.26c.074.031.148.064.221.1a5.1,5.1,0,0,1,.529.291,5.2,5.2,0,0,1,1.546,1.5c.613.9.954,2.363,2.241,2.376a3.682,3.682,0,0,0,3.34-2.205" transform="translate(64.685 46.208)" fill="rgba(255,255,255,0.14)"/>
    <path id="Fill_27" data-name="Fill 27" d="M2.3,11.381c.125.054.252.1.381.144s.26.077.392.107c.058.013.116.024.174.034l.037.007c.058.01.116.019.175.026l.015,0c.057.007.114.013.171.017l.022,0c.061,0,.123.008.184.009h.011q.192.005.383-.008h0a3.6,3.6,0,0,0,.962-.2l.009,0,.127-.049.013-.005a3.257,3.257,0,0,0,.394-.2l.019-.012c.034-.02.068-.041.1-.063l.029-.019L6,11.107l.028-.02c.035-.026.069-.052.1-.079L6.142,11q.057-.046.112-.1l.022-.02c.028-.026.056-.052.084-.079l.034-.034.069-.072.035-.038.068-.078.03-.035c.031-.039.062-.078.093-.118a2.261,2.261,0,0,0,.291-2.112c-.017-.059-.035-.118-.054-.177s-.047-.14-.072-.21q-.058-.16-.122-.32a6.093,6.093,0,0,1-.412-1.089c-.01-.039-.02-.078-.028-.117-.027-.117-.048-.233-.063-.349,0-.038-.009-.077-.013-.116a3.072,3.072,0,0,1,0-.575,2.9,2.9,0,0,1,.115-.576c.023-.077.05-.154.081-.232a3.842,3.842,0,0,1,.372-.708q.061-.093.125-.183c.3-.423.65-.811.981-1.21a.789.789,0,0,0,.1-.156.53.53,0,0,0,.034-.084v0a.542.542,0,0,0,.014-.059.051.051,0,0,0,0-.007.528.528,0,0,0,.006-.054v0a.558.558,0,0,0-.009-.123h0A.805.805,0,0,0,8,1.847H8c-.007-.02-.015-.041-.025-.062s-.019-.043-.031-.065c-.024-.048-.05-.1-.077-.143s-.054-.095-.084-.142c-.059-.094-.122-.187-.19-.278S7.455.978,7.379.893Q7.321.83,7.261.769A3.223,3.223,0,0,0,7.007.542c-.066-.053-.135-.1-.2-.151C6.755.36,6.708.33,6.66.3L6.586.262C6.552.244,6.518.227,6.483.21S6.42.182,6.388.168,6.3.134,6.257.118A1.963,1.963,0,0,0,5.962.042,2.157,2.157,0,0,0,5.08.049L5,.072,4.933.1,4.9.113a.876.876,0,0,0-.131.074.755.755,0,0,0-.1.078.642.642,0,0,0-.048.05A.683.683,0,0,0,4.561.4.757.757,0,0,0,4.472.61,7.291,7.291,0,0,0,4.476,2c0,.022,0,.044-.005.066-.006.052-.012.1-.019.154q-.032.231-.084.451a4.849,4.849,0,0,1-.236.81c-.029.075-.06.149-.092.223a5.141,5.141,0,0,1-.276.535A5.19,5.19,0,0,1,2.311,5.82C1.433,6.458-.024,6.839,0,8.122a3.664,3.664,0,0,0,2.3,3.26" transform="translate(26.142 62.463)" fill="rgba(255,255,255,0.14)"/>
    <path id="Fill_29" data-name="Fill 29" d="M6.643,11.565c.133-.054.264-.115.391-.182s.251-.14.371-.218c.052-.034.1-.07.155-.106l.033-.024c.05-.037.1-.074.149-.113l.013-.01c.047-.038.094-.077.14-.117l.018-.015c.049-.043.1-.087.144-.133l.008-.008q.146-.141.277-.3l0,0a3.81,3.81,0,0,0,.562-.876l0-.01c.02-.044.039-.088.057-.133l.006-.014a3.351,3.351,0,0,0,.144-.442c0-.008,0-.016.006-.024.01-.04.019-.082.027-.123,0-.012,0-.024.007-.037.008-.039.014-.077.02-.116l.005-.036c.006-.045.012-.091.017-.137l0-.014c0-.051.008-.1.011-.155,0-.01,0-.02,0-.031q0-.06,0-.121c0-.017,0-.034,0-.051,0-.035,0-.07,0-.1l0-.055c0-.036-.005-.072-.009-.108,0-.016,0-.033,0-.049-.005-.052-.012-.1-.02-.157A2.374,2.374,0,0,0,7.8,5.774c-.057-.031-.115-.061-.174-.09s-.14-.068-.212-.1c-.109-.05-.22-.1-.332-.144A6.407,6.407,0,0,1,5.95,4.95l-.11-.065q-.163-.1-.31-.21c-.033-.025-.066-.05-.1-.075A3.19,3.19,0,0,1,5,4.177a3.028,3.028,0,0,1-.35-.51c-.041-.074-.079-.152-.115-.232a4.046,4.046,0,0,1-.259-.8q-.025-.115-.045-.23c-.1-.539-.131-1.089-.187-1.633A.808.808,0,0,0,4,.578.586.586,0,0,0,3.961.49v0A.507.507,0,0,0,3.926.435L3.921.429A.549.549,0,0,0,3.884.384l0,0A.594.594,0,0,0,3.782.3h0A.8.8,0,0,0,3.666.234h0L3.6.207,3.529.182Q3.448.156,3.364.134T3.194.093C3.08.068,2.962.047,2.843.032S2.6.006,2.483,0c-.06,0-.121,0-.181,0a3.314,3.314,0,0,0-.361.024c-.089.011-.178.025-.265.044C1.618.08,1.561.095,1.5.111L1.419.136C1.38.149,1.341.162,1.3.177S1.235.2,1.2.217,1.11.258,1.066.28A2.169,2.169,0,0,0,.79.446a2.3,2.3,0,0,0-.649.673c-.014.025-.027.049-.04.074s-.023.049-.033.073-.01.025-.014.037a.905.905,0,0,0-.042.153A.751.751,0,0,0,0,1.587c0,.024,0,.048,0,.073a.721.721,0,0,0,.018.109.8.8,0,0,0,.093.223c.254.424.728.657,1.052,1.018l.046.053q.052.064.1.128.151.194.278.4a5.115,5.115,0,0,1,.437.775c.035.077.068.155.1.234a5.476,5.476,0,0,1,.2.6,5.466,5.466,0,0,1,.119,2.265c-.17,1.134-.963,2.517.024,3.443a3.882,3.882,0,0,0,4.171.659" transform="translate(50.776 59.279)" fill="rgba(255,255,255,0.14)"/>
    <path id="Fill_31" data-name="Fill 31" d="M22.355,1.19C4.471,6.147-5.748,27.027,3.435,43.707c5.5,9.984,16.855,15.811,28.158,15.241,12.915-.651,25.844-9.393,29.624-22.025C67.04,17.457,49.233-.524,30.019.012A32.174,32.174,0,0,0,22.355,1.19" transform="translate(9.217 9.676)" fill="#eb0065"/>
    <path id="Fill_33" data-name="Fill 33" d="M51.518,0c-.955,1.947,1.412,3.076,2.147,4.629a35.859,35.859,0,0,1,2.261,6.4q.145.579.266,1.165a24.283,24.283,0,0,1,.533,4.753q.022,1.134-.056,2.256c-.664,9.693-6.844,18.92-16.3,22.412a31.33,31.33,0,0,1-2.916,1.2,33.794,33.794,0,0,1-15.6,1.624c-1.106-.144-2.207-.338-3.3-.571a18.656,18.656,0,0,1-3.062-.784,21.4,21.4,0,0,1-6.7-3.814q-.593-.493-1.154-1.025A30.571,30.571,0,0,1,4.1,33.912q-.257-.391-.5-.794a18.082,18.082,0,0,1-2.7-7.33,1.282,1.282,0,0,0-.831-1.138c-.4,2.967.995,5.72,1.951,8.421.109.29.221.571.337.85a21.066,21.066,0,0,0,2.158,3.971c.335.494.686.971,1.052,1.437a33.961,33.961,0,0,0,9.419,8.092c.734.384,1.474.734,2.225,1.055a32.66,32.66,0,0,0,7.042,2.107,32.416,32.416,0,0,0,4.337.483,28.894,28.894,0,0,0,3.9-.044,30.258,30.258,0,0,0,3.83-.552A34.995,34.995,0,0,0,40.95,49.1a37.015,37.015,0,0,0,8.5-4.5q1.314-.935,2.537-1.987A26.87,26.87,0,0,0,62.009,18.889q-.119-1.034-.328-2.063a28.217,28.217,0,0,0-3.463-9.088q-.311-.523-.645-1.033A27.86,27.86,0,0,0,51.875.3a3.648,3.648,0,0,1-.357-.3" transform="translate(9.384 17.552)" fill="#be0152"/>
    <path id="Fill_35" data-name="Fill 35" d="M.123,9.033a.8.8,0,0,1,.242-.207A18.477,18.477,0,0,0,2.119,7.745,4.011,4.011,0,0,0,3.649,3.662a8.6,8.6,0,0,1,.008-.869A2.615,2.615,0,0,1,4.8.6a4.017,4.017,0,0,1,4.409.12,4.97,4.97,0,0,1,.745.579,4.261,4.261,0,0,1,1.231,4.467c-.477,1.408-2.215,1.247-3.424,1.594a5.954,5.954,0,0,0-3.48,2.623,5.745,5.745,0,0,0-.35.619,11.224,11.224,0,0,1-.571,1.585c-.431.627-1.289.353-1.849.03A3.53,3.53,0,0,1,.01,9.605a.755.755,0,0,1,.112-.572" transform="translate(57.479 9.173)" fill="#302d6d"/>
    <path id="Fill_37" data-name="Fill 37" d="M9.958,1.248A4.992,4.992,0,0,0,9.213.666,4.639,4.639,0,0,0,7.528,0,4.536,4.536,0,0,1,9.092,1.057C10.363,2.3,11.167,4.637,9.771,5.8c-.893.743-2.257.813-3.515,1A2.086,2.086,0,0,0,4.7,7.688c-.858,1.4-1.7,3.963-3.616,2.586A3.518,3.518,0,0,1,.012,9.283a1.064,1.064,0,0,0,0,.307,3.551,3.551,0,0,0,1.5,2.629c.56.325,1.418.6,1.849-.03A11.314,11.314,0,0,0,3.934,10.6a5.783,5.783,0,0,1,.351-.622,5.957,5.957,0,0,1,3.48-2.636c1.208-.349,2.947-.187,3.424-1.6A4.3,4.3,0,0,0,9.958,1.248" transform="translate(57.479 9.173)" fill="#be0152"/>
    <path id="Fill_39" data-name="Fill 39" d="M1.084,10.331c1.933,1.375,2.775-1.182,3.638-2.585a2.1,2.1,0,0,1,1.56-.888c1.266-.182,2.638-.252,3.537-.995,1.4-1.167.6-3.5-.683-4.745A4.567,4.567,0,0,0,7.562.062a3.738,3.738,0,0,0-2.74.545A2.626,2.626,0,0,0,3.668,2.8a8.623,8.623,0,0,0-.008.873,4.025,4.025,0,0,1-1.54,4.1A18.6,18.6,0,0,1,.355,8.865a.8.8,0,0,0-.244.208A.6.6,0,0,0,0,9.34a3.535,3.535,0,0,0,1.084.991" transform="translate(57.479 9.173)" fill="#eb0065"/>
    <path id="Fill_41" data-name="Fill 41" d="M.132,2.65A2.085,2.085,0,0,1,.249.966C.6.293,1.587-.448,2.15.339c.524.7-.127,1.494-.521,2.124a1.071,1.071,0,0,1-1.367.252L.132,2.65" transform="translate(62.003 10.179)" fill="#be0152"/>
    <g id="Group_45" data-name="Group 45" transform="translate(0 39.533)">
      <path id="Clip_44-2" data-name="Clip 44" d="M0,0H13.007V7.868H0Z" transform="translate(0 0)" fill="none"/>
      <g id="Group_45-2" data-name="Group 45" transform="translate(0 0)" clip-path="url(#clip-path)">
        <path id="Fill_43" data-name="Fill 43" d="M11.353,1.246a.751.751,0,0,0-.291.069,17.625,17.625,0,0,1-1.794.728A3.777,3.777,0,0,1,5.326.958a7.9,7.9,0,0,0-.662-.47A2.468,2.468,0,0,0,2.37.152,3.762,3.762,0,0,0,.01,3.54a4.621,4.621,0,0,0,.025.878,3.956,3.956,0,0,0,2.7,3.376c1.331.413,2.175-.985,3.11-1.705A5.641,5.641,0,0,1,9.763,4.9a5.509,5.509,0,0,1,.663.075,10.577,10.577,0,0,0,1.518.438c.714.019.983-.777,1.05-1.376a3.264,3.264,0,0,0-1.145-2.567.71.71,0,0,0-.5-.229" transform="translate(0 0)" fill="#eb0065"/>
      </g>
    </g>
    <g id="Group_48" data-name="Group 48" transform="translate(0 40.754)">
      <path id="Fill_46" data-name="Fill 46" d="M.035,3.15A4.718,4.718,0,0,1,.01,2.26,4.427,4.427,0,0,1,.445.606,4.305,4.305,0,0,0,.373,2.384c.233,1.659,1.544,3.561,3.2,3.141a6.711,6.711,0,0,0,2.7-2.133A1.967,1.967,0,0,1,7.807,2.7c1.534.121,3.928.9,3.958-1.33A3.327,3.327,0,0,0,11.617,0a1,1,0,0,1,.233.169,3.324,3.324,0,0,1,1.145,2.6c-.066.607-.335,1.413-1.05,1.394a10.439,10.439,0,0,1-1.518-.444,5.378,5.378,0,0,0-.663-.076,5.591,5.591,0,0,0-3.919,1.2c-.935.729-1.779,2.145-3.11,1.727a4,4,0,0,1-2.7-3.42" transform="translate(0 0)" fill="#be0152"/>
    </g>
    <path id="Fill_49" data-name="Fill 49" d="M11.385,2.68C11.355,4.893,8.976,4.123,7.451,4a1.955,1.955,0,0,0-1.522.689A6.67,6.67,0,0,1,3.243,6.812C1.6,7.229.294,5.338.062,3.688A4.272,4.272,0,0,1,.134,1.92,3.492,3.492,0,0,1,2.047.153,2.428,2.428,0,0,1,4.327.491a8.11,8.11,0,0,1,.659.474A3.722,3.722,0,0,0,8.9,2.058a17.426,17.426,0,0,0,1.783-.734.746.746,0,0,1,.29-.069.567.567,0,0,1,.261.063,3.3,3.3,0,0,1,.147,1.362" transform="translate(0.168 39.505)" fill="#eb0065"/>
    <path id="Fill_51" data-name="Fill 51" d="M2.849.826a1.863,1.863,0,0,0-1.3-.811C.857-.08-.227.26.042,1.1c.227.764,1.167.7,1.847.743A1.008,1.008,0,0,0,2.825.957c.008-.042.016-.086.024-.131" transform="translate(1.843 40.343)" fill="#be0152"/>
    <g id="Group_55" data-name="Group 55" transform="translate(33.281 0)">
      <path id="Clip_54-2" data-name="Clip 54" d="M0,0H8.206V13.591H0Z" transform="translate(0 0)" fill="none"/>
      <g id="Group_55-2" data-name="Group 55" transform="translate(0 0)" clip-path="url(#clip-path-2)">
        <path id="Fill_53" data-name="Fill 53" d="M2.324,12.178a.788.788,0,0,1,.035-.312,18.518,18.518,0,0,0,.535-1.958A3.953,3.953,0,0,0,1.277,5.944a8.389,8.389,0,0,1-.571-.63A2.584,2.584,0,0,1,.073,2.97,3.95,3.95,0,0,1,3.3.087,4.8,4.8,0,0,1,4.216,0a4.128,4.128,0,0,1,3.842,2.38C8.652,3.715,7.3,4.77,6.672,5.833a5.925,5.925,0,0,0-.744,4.227,5.737,5.737,0,0,0,.16.681,11.088,11.088,0,0,1,.644,1.523c.108.741-.686,1.121-1.3,1.266a3.406,3.406,0,0,1-2.809-.866.742.742,0,0,1-.3-.487" transform="translate(0 0)" fill="#eb0065"/>
      </g>
    </g>
    <path id="Fill_56" data-name="Fill 56" d="M3.9,11.979c2.311-.309,1.2-2.7.886-4.281a2.058,2.058,0,0,1,.528-1.678C6.1,5.042,7.04,4.075,7.189,2.943,7.417,1.169,5.274.044,3.52.008a4.513,4.513,0,0,0-1.84.3A3.672,3.672,0,0,0,.074,2.528,2.558,2.558,0,0,0,.716,4.87,8.432,8.432,0,0,0,1.3,5.5,3.925,3.925,0,0,1,2.934,9.461a18.392,18.392,0,0,1-.542,1.957.778.778,0,0,0-.036.312.594.594,0,0,0,.1.265A3.481,3.481,0,0,0,3.9,11.979" transform="translate(33.18 0.459)" fill="#eb0065"/>
    <path id="Fill_58" data-name="Fill 58" d="M1.064,3.016a1.97,1.97,0,0,1-1-1.271C-.124,1.03.093-.159,1,.018,1.82.16,1.872,1.16,2,1.873a1.073,1.073,0,0,1-.8,1.1l-.133.042" transform="translate(34.186 2.135)" fill="#be0152"/>
    <path id="Fill_60" data-name="Fill 60" d="M5.852.421a.748.748,0,0,0-.1.282,17.26,17.26,0,0,1-.341,1.9A3.76,3.76,0,0,1,2.359,5.329a8.105,8.105,0,0,0-.76.3A2.447,2.447,0,0,0,.075,7.378a3.759,3.759,0,0,0,1.633,3.8,4.741,4.741,0,0,0,.766.452,4.044,4.044,0,0,0,4.347-.451c1.071-.9.328-2.357.214-3.529a5.53,5.53,0,0,1,1.1-3.929,5.375,5.375,0,0,1,.422-.517c.356-.385.893-.6,1.193-1.039.4-.59-.136-1.244-.614-1.622A3.357,3.357,0,0,0,6.315.128a.713.713,0,0,0-.463.293" transform="translate(14.244 57.436)" fill="#383075"/>
    <path id="Fill_62" data-name="Fill 62" d="M1.905,11.633a4.662,4.662,0,0,1-.756-.452A4.363,4.363,0,0,1,0,9.938a4.232,4.232,0,0,0,1.445,1c1.508.685,3.792.593,4.322-1.02a6.69,6.69,0,0,0-.344-3.4,1.964,1.964,0,0,1,.236-1.654c.916-1.225,2.834-2.823.993-4.031A3.272,3.272,0,0,0,5.43.234.969.969,0,0,1,5.694.128,3.274,3.274,0,0,1,8.472.547c.471.378,1,1.032.606,1.622-.3.441-.826.654-1.177,1.039a5.4,5.4,0,0,0-.416.517A5.587,5.587,0,0,0,6.4,7.654c.112,1.172.845,2.633-.211,3.529a3.945,3.945,0,0,1-4.288.451" transform="translate(14.914 57.436)" fill="#be0152"/>
    <path id="Fill_64" data-name="Fill 64" d="M6.428,4.681A1.983,1.983,0,0,0,6.19,6.352a6.749,6.749,0,0,1,.347,3.438C6,11.419,3.694,11.512,2.169,10.82A5.009,5.009,0,0,1,.54,9.8,3.531,3.531,0,0,1,.074,7.218,2.46,2.46,0,0,1,1.594,5.454a7.985,7.985,0,0,1,.758-.307A3.767,3.767,0,0,0,5.4,2.392,17.65,17.65,0,0,0,5.737.474a.757.757,0,0,1,.1-.285A.575.575,0,0,1,6.029,0a4.08,4.08,0,0,1,1.4.609C9.294,1.829,7.355,3.444,6.428,4.681Z" transform="translate(14.244 57.603)" fill="#eb0065"/>
    <path id="Fill_66" data-name="Fill 66" d="M1.854,0A1.871,1.871,0,0,0,.443.7c-.458.557-.756,1.709.118,1.946.785.231,1.244-.636,1.65-1.215A1.083,1.083,0,0,0,1.954.1l-.1-.1" transform="translate(15.082 63.636)" fill="#be0152"/>
    <path id="Fill_68" data-name="Fill 68" d="M.53,10.785a2.9,2.9,0,0,1-.5-2.135c.02-.163.043-.327.069-.49A16.453,16.453,0,0,1,.995,4.9C1.629,3.255,2.81.566,4.745.094c1.388-.339,2.187.252,1.9,1.549C6.1,4.086,4.636,6.674,3.529,8.927a6.372,6.372,0,0,1-.873,1.439,2.724,2.724,0,0,1-.238.24,1.316,1.316,0,0,1-1.593.29l-.3-.112" transform="translate(13.071 25.764)" fill="#f43285"/>
    <path id="Fill_70" data-name="Fill 70" d="M5.964,2.436A2.664,2.664,0,0,0,3.59.008,3.925,3.925,0,0,0,2.066.221,3.558,3.558,0,0,0,.758,1,2.553,2.553,0,0,0,.073,3.461,3.154,3.154,0,0,0,2.383,5.745a3.188,3.188,0,0,0,1.6.035A2.745,2.745,0,0,0,6.023,3.3a2.964,2.964,0,0,0-.06-.861" transform="translate(45.413 36.824)" fill="#eb0065"/>
    <path id="Fill_72" data-name="Fill 72" d="M.236,4.161A2.594,2.594,0,0,1,.669,1.373C1.514.333,3.195-.569,4.309.441c1.314,1.17.015,3.071-1.183,3.836a3.866,3.866,0,0,1-.689.377,2.062,2.062,0,0,1-1.463.119,1.476,1.476,0,0,1-.632-.44C.309,4.276.274,4.218.236,4.161" transform="translate(19.774 19.396)" fill="#f43285"/>
    <path id="Fill_74" data-name="Fill 74" d="M.74,2.671C.636,1.991.468.889,1.332.694a1.043,1.043,0,0,1,1.211.465,3.986,3.986,0,0,1,.315,1.279c.066.416.723.357.656-.062-.143-.9-.3-1.993-1.317-2.3A1.9,1.9,0,0,0,.649.284a1.578,1.578,0,0,0-.62,1.1A4.638,4.638,0,0,0,.084,2.732c.064.417.72.357.656-.062" transform="translate(38.375 39.505)" fill="#81063b"/>
    <path id="Fill_76" data-name="Fill 76" d="M.013,2.944A2.652,2.652,0,0,1,1.843.116a3.761,3.761,0,0,1,1.5-.073,3.443,3.443,0,0,1,1.4.525A2.582,2.582,0,0,1,5.863,2.857a3.138,3.138,0,0,1-1.8,2.672,3.049,3.049,0,0,1-1.529.331A2.715,2.715,0,0,1,.115,3.8a3,3,0,0,1-.1-.857" transform="translate(28.488 38.499)" fill="#eb0065"/>
    <path id="Fill_78" data-name="Fill 78" d="M.009,2.011A2.068,2.068,0,0,1,.03,1.465a2.043,2.043,0,0,1,.157-.5A1.419,1.419,0,0,1,1.22.046C2.355-.161,3.891.325,4.013,1.628a2.052,2.052,0,0,1-.021.545A2.008,2.008,0,0,1,.009,2.011" transform="translate(29.829 38.667)" fill="#740333"/>
    <path id="Fill_80" data-name="Fill 80" d="M0,.692a.754.754,0,0,1,.022-.2A.653.653,0,0,1,.868.033.678.678,0,0,1,1.328.8a.716.716,0,0,1-.9.508A.662.662,0,0,1,0,.692" transform="translate(30.499 39.672)" fill="#fff"/>
    <path id="Fill_82" data-name="Fill 82" d="M4.013,1.671A1.978,1.978,0,0,0,3.644.694,1.417,1.417,0,0,0,2.458,0C1.305.017-.115.77.007,2.047a1.991,1.991,0,0,0,.122.521,2.013,2.013,0,0,0,3.883-.9" transform="translate(45.916 37.159)" fill="#740333"/>
    <path id="Fill_84" data-name="Fill 84" d="M1.331.569a.737.737,0,0,0-.06-.2A.649.649,0,0,0,.356.086a.685.685,0,0,0-.31.841.712.712,0,0,0,.979.328A.668.668,0,0,0,1.331.569" transform="translate(46.754 37.997)" fill="#fff"/>
    <path id="Fill_86" data-name="Fill 86" d="M6.2,26.927C4.268,25.886,2.078,25.642.117,24.473c-.285-.154.018-.77.205-.7a33.572,33.572,0,0,0,29-2.994q1.447-.791,2.817-1.706a22.707,22.707,0,0,0,9.116-10.6c1.128-2.862,1.988-5.7,3.17-8.474,2.087,4.408-.206,9.277-2.481,13.376a24.984,24.984,0,0,1-5.971,6.99q-1.309,1.117-2.72,2.1-1.233.859-2.533,1.6t-2.656,1.367A28.082,28.082,0,0,1,8.5,27.407c-.763-.145-1.53-.305-2.3-.48" transform="translate(24.299 39.337)" fill="#f43285"/>
    <path id="Fill_88" data-name="Fill 88" d="M1.013,1.737a.771.771,0,0,0,.077.291,17.683,17.683,0,0,1,.781,1.781A3.809,3.809,0,0,1,.9,7.8a8.042,8.042,0,0,0-.452.679A2.491,2.491,0,0,0,.177,10.8a3.763,3.763,0,0,0,3.458,2.271,4.56,4.56,0,0,0,.878-.051,3.968,3.968,0,0,0,3.3-2.811c.374-1.35-1.049-2.157-1.8-3.074a5.683,5.683,0,0,1-1.3-3.9,5.453,5.453,0,0,1,.056-.669,10.7,10.7,0,0,0,.395-1.538C5.17.3,4.366.056,3.764.007A3.263,3.263,0,0,0,1.228,1.233a.716.716,0,0,0-.215.5" transform="translate(39.045 63.133)" fill="#383075"/>
    <path id="Fill_90" data-name="Fill 90" d="M2.591,13.068a4.38,4.38,0,0,1-1.662-.389A4.259,4.259,0,0,0,2.7,12.7c1.647-.283,3.506-1.655,3.039-3.307A6.741,6.741,0,0,0,3.538,6.739,1.982,1.982,0,0,1,2.8,5.221c.076-1.545.779-3.973-1.442-3.938A3.289,3.289,0,0,0,0,1.471a1.012,1.012,0,0,1,.162-.239A3.306,3.306,0,0,1,2.721.007c.607.049,1.754.3,1.756,1.014,0,.538-.49,1.016-.566,1.538a5.406,5.406,0,0,0-.057.669A5.52,5.52,0,0,0,5,7.131c.754.918,2.191,1.725,1.812,3.075a3.994,3.994,0,0,1-3.331,2.811A4.67,4.67,0,0,1,2.591,13.068Z" transform="translate(40.051 63.133)" fill="#be0152"/>
    <path id="Fill_92" data-name="Fill 92" d="M3.868,4.071a1.959,1.959,0,0,0,.732,1.5A6.687,6.687,0,0,1,6.8,8.2c.465,1.636-1.387,3-3.029,3.276A4.271,4.271,0,0,1,2,11.459,3.494,3.494,0,0,1,.178,9.594,2.434,2.434,0,0,1,.449,7.3,7.953,7.953,0,0,1,.9,6.628a3.67,3.67,0,0,0,.811-3.956A20.256,20.256,0,0,0,.929.741c-.049-.1.093-.2.09-.288A.566.566,0,0,1,1.074.189,3.3,3.3,0,0,1,2.431,0C4.644-.032,3.943,2.54,3.868,4.071Z" transform="translate(39.045 64.306)" fill="#eb0065"/>
    <g id="Group_96" data-name="Group 96" transform="translate(66.604 33.492)">
      <path id="Clip_95-2" data-name="Clip 95" d="M0,0H12.932V7.944H0Z" transform="translate(0 0)" fill="none"/>
      <g id="Group_96-2" data-name="Group 96" transform="translate(0 0)" clip-path="url(#clip-path-3)">
        <path id="Fill_94" data-name="Fill 94" d="M1.181,2.833a.746.746,0,0,1,.3.014,17.351,17.351,0,0,0,1.9.389A3.748,3.748,0,0,0,7.053,1.4a8.092,8.092,0,0,1,.562-.6A2.441,2.441,0,0,1,9.808.037,3.816,3.816,0,0,1,12.771,2.98a4.817,4.817,0,0,1,.142.884A4.031,4.031,0,0,1,10.9,7.753c-1.231.665-2.326-.574-3.382-1.117a5.572,5.572,0,0,0-4.079-.443,5.329,5.329,0,0,0-.638.2,10.492,10.492,0,0,1-1.41.726C.692,7.274.276,6.528.1,5.941A3.36,3.36,0,0,1,.737,3.156a.707.707,0,0,1,.444-.323" transform="translate(0 0)" fill="#383075"/>
      </g>
    </g>
    <g id="Group_99" data-name="Group 99" transform="translate(66.604 34.973)">
      <path id="Clip_98-2" data-name="Clip 98" d="M0,0H12.932V6.464H0Z" transform="translate(0 0)" fill="none"/>
      <g id="Group_99-2" data-name="Group 99" transform="translate(0 0)" clip-path="url(#clip-path-4)">
        <path id="Fill_97" data-name="Fill 97" d="M12.913,2.416a4.74,4.74,0,0,0-.142-.877A4.4,4.4,0,0,0,12.033,0a4.278,4.278,0,0,1,.4,1.729c.081,1.669-.853,3.78-2.559,3.679A6.718,6.718,0,0,1,6.821,3.826a1.972,1.972,0,0,0-1.636-.391c-1.486.407-3.695,1.616-4.142-.56A3.3,3.3,0,0,1,.934,1.5a.982.982,0,0,0-.2.209A3.31,3.31,0,0,0,.1,4.477C.276,5.06.692,5.8,1.391,5.646a10.488,10.488,0,0,0,1.41-.72,5.419,5.419,0,0,1,.638-.2,5.612,5.612,0,0,1,4.079.439C8.573,5.7,9.668,6.934,10.9,6.274a3.99,3.99,0,0,0,2.014-3.858" transform="translate(0)" fill="#be0152"/>
      </g>
    </g>
    <path id="Fill_100" data-name="Fill 100" d="M.146,4.318c.447,2.189,2.659.973,4.148.564a1.971,1.971,0,0,1,1.638.393A6.712,6.712,0,0,0,8.995,6.867c1.709.1,2.644-2.022,2.563-3.7a4.317,4.317,0,0,0-.4-1.739A3.514,3.514,0,0,0,8.924.037a2.451,2.451,0,0,0-2.2.769,8.16,8.16,0,0,0-.563.6A3.759,3.759,0,0,1,2.488,3.23,17.431,17.431,0,0,1,.583,2.841a.75.75,0,0,0-.3-.013.569.569,0,0,0-.247.112A3.338,3.338,0,0,0,.146,4.318" transform="translate(67.533 33.64)" fill="#eb0065"/>
    <path id="Fill_102" data-name="Fill 102" d="M0,1.155A1.882,1.882,0,0,1,1.139.1c.667-.226,1.81-.092,1.7.8-.08.808-1.026.924-1.694,1.094a1.024,1.024,0,0,1-1.1-.708C.033,1.241.017,1.2,0,1.155" transform="translate(74.404 34.478)" fill="#be0152"/>
    <path id="Fill_104" data-name="Fill 104" d="M2.382.031A2.392,2.392,0,0,0,.908.248C.2.629-.332,1.425.246,2.168a2.6,2.6,0,0,0,3.87.277c.581-.623,0-1.661-.6-2.016a3.18,3.18,0,0,0-1.135-.4" transform="translate(42.565 13.028)" fill="#eb0065"/>
    <path id="Fill_106" data-name="Fill 106" d="M2.131.065C1.234-.173,0,.249,0,1.219c-.012,1.28,1.674,1.7,2.735,1.338a1.182,1.182,0,0,0,.71-.682,1.207,1.207,0,0,0-.418-1.4,2.357,2.357,0,0,0-.9-.407" transform="translate(49.938 15.206)" fill="#eb0065"/>
    <path id="Fill_108" data-name="Fill 108" d="M1.8,0C.874-.02-.211.686.035,1.632.345,2.885,2.072,2.9,3,2.291a1.167,1.167,0,0,0,.512-.835A1.238,1.238,0,0,0,2.761.185,2.34,2.34,0,0,0,1.8,0" transform="translate(30.164 24.255)" fill="#eb0065"/>
    <path id="Fill_110" data-name="Fill 110" d="M1.6.029A1.335,1.335,0,0,0,.012,1.052,1.331,1.331,0,0,0,1.3,2.512a1.638,1.638,0,0,0,1.651-.894A.988.988,0,0,0,2.38.318,1.806,1.806,0,0,0,1.6.029" transform="translate(46.084 17.552)" fill="#eb0065"/>
    <path id="Fill_112" data-name="Fill 112" d="M1.288.011A1.305,1.305,0,0,0,.006,1.376,1.37,1.37,0,0,0,1.633,2.494,1.6,1.6,0,0,0,3.012,1.239a1.013,1.013,0,0,0-.89-1.13,1.837,1.837,0,0,0-.834-.1" transform="translate(27.315 29.45)" fill="#eb0065"/>
    <path id="Fill_114" data-name="Fill 114" d="M1.8,0C.874-.02-.211.686.035,1.632.345,2.885,2.072,2.9,3,2.291a1.166,1.166,0,0,0,.512-.835A1.238,1.238,0,0,0,2.761.185,2.341,2.341,0,0,0,1.8,0" transform="translate(28.488 55.425)" fill="#eb0065"/>
    <path id="Fill_116" data-name="Fill 116" d="M1.288.011A1.305,1.305,0,0,0,.006,1.376,1.371,1.371,0,0,0,1.633,2.494,1.6,1.6,0,0,0,3.012,1.239a1.013,1.013,0,0,0-.89-1.13,1.837,1.837,0,0,0-.834-.1" transform="translate(35.191 56.263)" fill="#eb0065"/>
    <path id="Fill_118" data-name="Fill 118" d="M1.6.029A1.335,1.335,0,0,0,.012,1.052,1.331,1.331,0,0,0,1.3,2.512a1.639,1.639,0,0,0,1.651-.894A.987.987,0,0,0,2.38.318,1.8,1.8,0,0,0,1.6.029" transform="translate(58.484 44.365)" fill="#eb0065"/>
    <path id="Fill_120" data-name="Fill 120" d="M1.066.019A.89.89,0,0,0,.008.7a.887.887,0,0,0,.859.973,1.093,1.093,0,0,0,1.1-.6A.658.658,0,0,0,1.586.212,1.2,1.2,0,0,0,1.066.019" transform="translate(56.306 48.051)" fill="#eb0065"/>
    <path id="Fill_122" data-name="Fill 122" d="M2.674,1.893C2.757.974,2.127-.16,1.164.019-.11.238-.239,1.961.3,2.933a1.174,1.174,0,0,0,.8.57,1.238,1.238,0,0,0,1.322-.661,2.344,2.344,0,0,0,.251-.948" transform="translate(16.758 51.738)" fill="#eb0065"/>
    <path id="Fill_124" data-name="Fill 124" d="M2.512,1.376A1.314,1.314,0,0,0,1.233,0,1.359,1.359,0,0,0,.007,1.538,1.612,1.612,0,0,0,1.169,3a1.008,1.008,0,0,0,1.189-.8,1.824,1.824,0,0,0,.154-.823" transform="translate(13.741 48.386)" fill="#eb0065"/>
    <path id="Fill_126" data-name="Fill 126" d="M.133,3.41a.749.749,0,0,0,.236.183,17.437,17.437,0,0,1,1.689.935A3.743,3.743,0,0,1,3.667,8.275a8.116,8.116,0,0,0,.045.811,2.443,2.443,0,0,0,1.167,1.995,3.779,3.779,0,0,0,4.127-.3,4.677,4.677,0,0,0,.673-.573,3.976,3.976,0,0,0,.963-4.225c-.507-1.295-2.129-1.07-3.276-1.342a5.582,5.582,0,0,1-3.373-2.3,5.414,5.414,0,0,1-.355-.563,10.537,10.537,0,0,0-.6-1.456C2.6-.246,1.813.046,1.3.373A3.3,3.3,0,0,0,0,2.88a.7.7,0,0,0,.129.529" transform="translate(59.657 53.749)" fill="#383075"/>
    <path id="Fill_128" data-name="Fill 128" d="M9.679,10.289a4.687,4.687,0,0,1-.673.577,4.36,4.36,0,0,1-1.551.7A4.261,4.261,0,0,0,8.876,10.5c1.138-1.223,1.791-3.443.434-4.477a6.631,6.631,0,0,0-3.336-.78,1.955,1.955,0,0,1-1.491-.765C3.62,3.2,2.727.844.985,2.216a3.3,3.3,0,0,0-.967.975A1.013,1.013,0,0,1,0,2.9,3.333,3.333,0,0,1,1.3.376C1.813.047,2.6-.248,3.035.323a10.646,10.646,0,0,1,.6,1.468,5.4,5.4,0,0,0,.355.568A5.58,5.58,0,0,0,7.366,4.677c1.147.275,2.769.048,3.276,1.353a4.03,4.03,0,0,1-.963,4.258" transform="translate(59.657 53.749)" fill="#be0152"/>
    <path id="Fill_130" data-name="Fill 130" d="M.967.41c1.742-1.353,2.635.975,3.5,2.236A1.964,1.964,0,0,0,5.957,3.4a6.711,6.711,0,0,1,3.337.769c1.357,1.02.7,3.209-.434,4.416A4.257,4.257,0,0,1,7.438,9.629a3.507,3.507,0,0,1-2.576-.387A2.426,2.426,0,0,1,3.694,7.258a8.022,8.022,0,0,1-.045-.807A3.712,3.712,0,0,0,2.041,2.725,17.509,17.509,0,0,0,.351,1.8a.746.746,0,0,1-.236-.182A.567.567,0,0,1,0,1.371,3.282,3.282,0,0,1,.967.41" transform="translate(59.657 55.592)" fill="#eb0065"/>
    <path id="Fill_132" data-name="Fill 132" d="M.1.221a1.937,1.937,0,0,0,.188,1.6c.376.625,1.371,1.286,1.887.512.482-.69-.189-1.416-.6-2A1.069,1.069,0,0,0,.228.154L.1.221" transform="translate(64.182 61.793)" fill="#be0152"/>
    <path id="Fill_134" data-name="Fill 134" d="M.79,0A1.861,1.861,0,0,0,.01,1.326c-.076.693.3,1.767,1.137,1.474.765-.249.674-1.188.7-1.869A1.013,1.013,0,0,0,.923.02L.79,0" transform="translate(39.883 71.344)" fill="#be0152"/>
  </g>
</svg>
