<svg id="Logo" xmlns="http://www.w3.org/2000/svg" width="39.36" height="39.36" viewBox="0 0 39.36 39.36">
  <g id="Group_17_Copy" data-name="Group 17 Copy" transform="translate(0 0)">
    <path id="Stroke_5" data-name="Stroke 5" d="M2.654,5.309A2.654,2.654,0,1,1,5.309,2.654,2.657,2.657,0,0,1,2.654,5.309Zm0-4.2A1.544,1.544,0,1,0,4.2,2.654,1.545,1.545,0,0,0,2.654,1.111Z" transform="translate(9.329 19.591)" fill="#fff"/>
    <path id="Stroke_7" data-name="Stroke 7" d="M2.654,5.309A2.654,2.654,0,1,1,5.309,2.654,2.657,2.657,0,0,1,2.654,5.309Zm0-4.2A1.544,1.544,0,1,0,4.2,2.654,1.545,1.545,0,0,0,2.654,1.111Z" transform="translate(17.725 19.591)" fill="#fff"/>
    <path id="Stroke_9" data-name="Stroke 9" d="M2.188,4.376A2.188,2.188,0,1,1,4.376,2.188,2.19,2.19,0,0,1,2.188,4.376Zm0-3.265A1.077,1.077,0,1,0,3.265,2.188,1.078,1.078,0,0,0,2.188,1.111Z" transform="translate(26.588 18.658)" fill="#fff"/>
    <path id="Stroke_11" data-name="Stroke 11" d="M1.721,3.443A1.722,1.722,0,1,1,3.443,1.721,1.724,1.724,0,0,1,1.721,3.443Zm0-2.332a.611.611,0,1,0,.611.61A.611.611,0,0,0,1.721,1.111Z" transform="translate(17.725 27.987)" fill="#fff"/>
    <path id="Stroke_13" data-name="Stroke 13" d="M1.721,3.443A1.722,1.722,0,1,1,3.443,1.721,1.724,1.724,0,0,1,1.721,3.443Zm0-2.332a.611.611,0,1,0,.611.61A.611.611,0,0,0,1.721,1.111Z" transform="translate(22.856 12.594)" fill="#fff"/>
    <path id="Stroke_15" data-name="Stroke 15" d="M19.378,39.36a2.641,2.641,0,0,1-1.049-.212,1.478,1.478,0,0,1-.87-2.022l.025-.057.036-.084.334-.8a2.443,2.443,0,0,0,.242-.926v-.217a.459.459,0,0,0-.408-.454,14.944,14.944,0,0,1-4.271-1.241.481.481,0,0,0-.2-.044.45.45,0,0,0-.395.226l-.077.135a2.273,2.273,0,0,0-.238.809l-.164,1.242a1.438,1.438,0,0,1-1.508,1.216,2.158,2.158,0,0,1-.238-.014,2.7,2.7,0,0,1-1.819-1.05,1.478,1.478,0,0,1,.259-2.186l.048-.035.067-.05.778-.6a2.265,2.265,0,0,0,.593-.618l.112-.194a.458.458,0,0,0-.125-.6,14.906,14.906,0,0,1-3.087-3.2.474.474,0,0,0-.384-.2.453.453,0,0,0-.226.061l-.127.073a2.591,2.591,0,0,0-.716.716l-.345.45-.241.32a1.44,1.44,0,0,1-1.167.623,1.734,1.734,0,0,1-1.02-.365,2.7,2.7,0,0,1-1.05-1.818,1.48,1.48,0,0,1,1.317-1.765l.21-.025.84-.111.233-.037a1.992,1.992,0,0,0,.656-.213l.189-.109a.459.459,0,0,0,.19-.578,15.127,15.127,0,0,1-1.067-4.32.461.461,0,0,0-.455-.426H4.106a2.773,2.773,0,0,0-1.075.3L2.954,21l-.351.144-.369.156a1.6,1.6,0,0,1-.639.139A1.516,1.516,0,0,1,.213,20.428a2.7,2.7,0,0,1,0-2.1A1.516,1.516,0,0,1,1.6,17.32a1.6,1.6,0,0,1,.639.139c.115.05.236.1.371.157l.193.078.381.16a2.452,2.452,0,0,0,.926.241h.217a.46.46,0,0,0,.454-.407,14.937,14.937,0,0,1,1.24-4.272.46.46,0,0,0-.181-.6L5.7,12.742a2.3,2.3,0,0,0-.809-.238L3.65,12.341a1.472,1.472,0,0,1-1.2-1.747,2.646,2.646,0,0,1,.341-1.015,2.618,2.618,0,0,1,.708-.8,1.733,1.733,0,0,1,1.02-.365,1.44,1.44,0,0,1,1.167.624c.057.078.114.153.167.222l.514.668a2.287,2.287,0,0,0,.622.6l.192.111a.448.448,0,0,0,.224.06.466.466,0,0,0,.371-.186,14.947,14.947,0,0,1,3.2-3.086.461.461,0,0,0,.144-.608l-.075-.129a2.587,2.587,0,0,0-.713-.713l-.552-.423-.221-.166A1.479,1.479,0,0,1,9.3,3.194a2.7,2.7,0,0,1,1.817-1.049,2.166,2.166,0,0,1,.239-.014,1.452,1.452,0,0,1,1.526,1.331L13,4.414l.049.326a2.018,2.018,0,0,0,.214.66l.109.189a.458.458,0,0,0,.4.226.479.479,0,0,0,.182-.036,15.075,15.075,0,0,1,4.32-1.067.461.461,0,0,0,.426-.456V4.106a2.782,2.782,0,0,0-.3-1.075l-.033-.077-.192-.464-.109-.255A1.478,1.478,0,0,1,18.932.213a2.7,2.7,0,0,1,2.1,0,1.478,1.478,0,0,1,.87,2.022c-.036.083-.073.169-.109.255l-.127.309-.159.381a2.452,2.452,0,0,0-.241.926v.217a.459.459,0,0,0,.408.453,14.925,14.925,0,0,1,4.271,1.241.483.483,0,0,0,.2.044.451.451,0,0,0,.4-.227l.077-.131a2.31,2.31,0,0,0,.238-.81l.006-.043.157-1.2a1.439,1.439,0,0,1,1.508-1.216,2.16,2.16,0,0,1,.238.014A2.7,2.7,0,0,1,30.584,3.5a1.479,1.479,0,0,1-.258,2.187c-.075.055-.149.111-.222.167l-.264.2-.406.31a2.264,2.264,0,0,0-.6.623l-.111.19a.457.457,0,0,0,.126.6,14.94,14.94,0,0,1,3.086,3.2.475.475,0,0,0,.385.2.449.449,0,0,0,.223-.06l.128-.074a2.578,2.578,0,0,0,.713-.713l.348-.454.242-.32a1.44,1.44,0,0,1,1.165-.622,1.739,1.739,0,0,1,1.021.365,2.7,2.7,0,0,1,1.05,1.818A1.477,1.477,0,0,1,35.9,12.88L34.943,13l-.326.049a2.018,2.018,0,0,0-.655.212l-.191.111a.458.458,0,0,0-.189.578,15.106,15.106,0,0,1,1.066,4.319.461.461,0,0,0,.456.426h.152a2.782,2.782,0,0,0,1.074-.3l.665-.277.131-.056a1.6,1.6,0,0,1,.639-.139,1.515,1.515,0,0,1,1.383,1.008,2.7,2.7,0,0,1,0,2.1,1.515,1.515,0,0,1-1.384,1.008,1.6,1.6,0,0,1-.638-.139c-.077-.034-.158-.069-.256-.109l-.309-.127-.38-.159a2.452,2.452,0,0,0-.926-.241h-.217a.459.459,0,0,0-.454.407,14.936,14.936,0,0,1-1.241,4.272.461.461,0,0,0,.183.6l.132.077a2.287,2.287,0,0,0,.8.238l1.247.164a1.472,1.472,0,0,1,1.2,1.748,2.7,2.7,0,0,1-1.049,1.817,1.736,1.736,0,0,1-1.021.366,1.437,1.437,0,0,1-1.165-.623l-.058-.077-.028-.037-.6-.776a2.279,2.279,0,0,0-.621-.6l-.193-.111a.452.452,0,0,0-.225-.06.465.465,0,0,0-.37.185,14.894,14.894,0,0,1-3.2,3.087.462.462,0,0,0-.143.608l.074.128a2.6,2.6,0,0,0,.716.716l.451.345.32.241a1.479,1.479,0,0,1,.258,2.186,2.7,2.7,0,0,1-1.817,1.05,2.166,2.166,0,0,1-.239.014A1.45,1.45,0,0,1,26.48,35.9l-.129-1.006-.043-.275a1.99,1.99,0,0,0-.213-.658l-.109-.189a.458.458,0,0,0-.4-.226.479.479,0,0,0-.183.036,15.106,15.106,0,0,1-4.319,1.067.461.461,0,0,0-.426.455v.152a2.773,2.773,0,0,0,.3,1.075l.033.077.144.35.157.369a1.478,1.478,0,0,1-.87,2.022A2.633,2.633,0,0,1,19.378,39.36Zm-6.162-7.172a1.582,1.582,0,0,1,.665.146,13.833,13.833,0,0,0,3.954,1.149,1.578,1.578,0,0,1,1.371,1.555v.217a3.69,3.69,0,0,1-.39,1.506l-.213.514-.125.293c-.113.258-.026.421.3.562a1.594,1.594,0,0,0,1.207,0c.323-.142.409-.3.3-.562-.067-.153-.124-.287-.174-.411l-.242-.584a3.281,3.281,0,0,1-.313-1.318V35.1a1.568,1.568,0,0,1,1.432-1.561,13.954,13.954,0,0,0,4-.988,1.575,1.575,0,0,1,1.962.663l.109.189A3.253,3.253,0,0,1,27.43,34.6l.007.048.156,1.188c.041.2.162.283.394.283a1.226,1.226,0,0,0,.135-.008,1.585,1.585,0,0,0,1.044-.6c.209-.284.2-.468-.024-.635-.1-.077-.218-.163-.356-.269l-.585-.45a3.217,3.217,0,0,1-.847-.92l-.073-.127a1.567,1.567,0,0,1,.461-2.07,13.787,13.787,0,0,0,2.964-2.858,1.569,1.569,0,0,1,2.032-.41l.193.111a3.5,3.5,0,0,1,1.042,1l.343.448.255.337a.354.354,0,0,0,.285.176.63.63,0,0,0,.351-.151,1.5,1.5,0,0,0,.4-.463,1.517,1.517,0,0,0,.2-.582c.039-.35-.06-.506-.339-.538l-.343-.041-.279-.039-.409-.052-.32-.05a3.027,3.027,0,0,1-1.018-.345l-.132-.077a1.565,1.565,0,0,1-.636-2.022,13.836,13.836,0,0,0,1.149-3.955,1.578,1.578,0,0,1,1.555-1.371h.217a3.693,3.693,0,0,1,1.505.39l.6.249.206.089a.489.489,0,0,0,.193.047c.152,0,.266-.106.37-.344a1.594,1.594,0,0,0,0-1.207c-.1-.238-.218-.344-.369-.344a.488.488,0,0,0-.194.047c-.149.064-.287.123-.41.173l-.585.243a3.28,3.28,0,0,1-1.317.313H35.1a1.569,1.569,0,0,1-1.562-1.433,13.955,13.955,0,0,0-.988-4,1.577,1.577,0,0,1,.661-1.961l.191-.111A3.265,3.265,0,0,1,34.6,11.93l1.173-.153c.28-.032.378-.188.339-.538a1.594,1.594,0,0,0-.6-1.046.631.631,0,0,0-.351-.151.355.355,0,0,0-.285.175c-.093.125-.184.244-.269.355l-.3.394-.152.195a3.19,3.19,0,0,1-.917.843l-.128.075a1.56,1.56,0,0,1-.778.209,1.588,1.588,0,0,1-1.292-.671,13.841,13.841,0,0,0-2.857-2.964,1.578,1.578,0,0,1-.411-2.034l.111-.189a3.483,3.483,0,0,1,1-1.042l.786-.6c.227-.168.234-.352.025-.636a1.589,1.589,0,0,0-1.046-.6,1.213,1.213,0,0,0-.134-.008.347.347,0,0,0-.4.346l-.138,1.078-.043.271a3.064,3.064,0,0,1-.345,1.021L27.5,6.39a1.574,1.574,0,0,1-2.023.636,13.836,13.836,0,0,0-3.954-1.149,1.578,1.578,0,0,1-1.371-1.554V4.106a3.7,3.7,0,0,1,.39-1.506l.25-.6.089-.207c.112-.258.026-.421-.3-.563a1.59,1.59,0,0,0-1.207,0c-.322.141-.408.3-.3.562.055.126.113.264.174.411l.242.584a3.282,3.282,0,0,1,.313,1.319v.151a1.567,1.567,0,0,1-1.432,1.561,13.989,13.989,0,0,0-4,.988,1.573,1.573,0,0,1-1.962-.662L12.3,5.955a3.268,3.268,0,0,1-.374-1.2l-.11-.825-.041-.343a.348.348,0,0,0-.406-.347,1.227,1.227,0,0,0-.133.008,1.594,1.594,0,0,0-1.046.6c-.209.284-.2.469.026.636.109.081.225.169.355.269l.588.453A3.188,3.188,0,0,1,12,6.126l.075.13a1.571,1.571,0,0,1-.462,2.07,13.823,13.823,0,0,0-2.964,2.857,1.568,1.568,0,0,1-2.032.41l-.191-.111a3.489,3.489,0,0,1-1.042-1l-.6-.785a.353.353,0,0,0-.284-.175.63.63,0,0,0-.351.151,1.589,1.589,0,0,0-.6,1.046c-.039.35.06.506.339.538l.181.022.939.123.227.036a3.033,3.033,0,0,1,1.02.345l.133.077a1.563,1.563,0,0,1,.634,2.023,13.838,13.838,0,0,0-1.148,3.954,1.579,1.579,0,0,1-1.554,1.37H4.106a3.685,3.685,0,0,1-1.506-.39L2,18.566l-.207-.088a.486.486,0,0,0-.193-.047c-.151,0-.265.106-.37.344a1.594,1.594,0,0,0,0,1.207c.1.238.218.344.37.344a.486.486,0,0,0,.193-.047c.136-.058.274-.117.411-.173l.584-.241a3.282,3.282,0,0,1,1.319-.313h.151a1.566,1.566,0,0,1,1.561,1.431,14.034,14.034,0,0,0,.988,4,1.578,1.578,0,0,1-.661,1.962l-.19.109a3.251,3.251,0,0,1-1.193.374l-.831.111-.343.042c-.28.032-.378.188-.339.538a1.6,1.6,0,0,0,.6,1.046.629.629,0,0,0,.351.151.355.355,0,0,0,.286-.175c.078-.107.166-.223.269-.355l.45-.586a3.191,3.191,0,0,1,.921-.847l.127-.073a1.56,1.56,0,0,1,.779-.209,1.588,1.588,0,0,1,1.291.671,13.8,13.8,0,0,0,2.857,2.964,1.576,1.576,0,0,1,.411,2.03l-.112.195a3.5,3.5,0,0,1-1,1.038l-.788.6c-.226.168-.234.353-.025.636a1.522,1.522,0,0,0,.464.4,1.5,1.5,0,0,0,.582.2,1.227,1.227,0,0,0,.133.008c.256,0,.377-.1.4-.347l.023-.191.057-.43.051-.406.049-.319a3.029,3.029,0,0,1,.346-1.021l.077-.133A1.569,1.569,0,0,1,13.216,32.188Z" transform="translate(0 0)" fill="#fff"/>
  </g>
</svg>
