<svg xmlns="http://www.w3.org/2000/svg" width="52.984" height="52.984" viewBox="0 0 52.984 52.984">
  <g id="Group_17" data-name="Group 17" transform="translate(0.5 0.5)">
    <path id="Stroke_15_Copy" data-name="Stroke 15 Copy" d="M51.76,25.28A1.26,1.26,0,0,0,50,24.487c-.415.18-.777.324-.777.324a5.614,5.614,0,0,1-2.066.6h-.206a1.383,1.383,0,0,1-1.371-1.263,19.786,19.786,0,0,0-1.4-5.656,1.379,1.379,0,0,1,.579-1.725l.258-.149a5.623,5.623,0,0,1,2.091-.511s.385-.057.834-.108a1.26,1.26,0,0,0,1.126-1.564,2.919,2.919,0,0,0-1.123-1.946,1.261,1.261,0,0,0-1.918.192c-.269.364-.511.669-.511.669a5.608,5.608,0,0,1-1.488,1.556l-.173.1a1.384,1.384,0,0,1-1.821-.41A19.548,19.548,0,0,0,38,10.407a1.38,1.38,0,0,1-.365-1.785l.152-.261a5.586,5.586,0,0,1,1.556-1.488s.3-.242.668-.511A1.259,1.259,0,0,0,40.2,4.444a2.911,2.911,0,0,0-1.946-1.123,1.26,1.26,0,0,0-1.565,1.125c-.051.449-.107.834-.107.834a5.644,5.644,0,0,1-.512,2.092l-.105.181a1.381,1.381,0,0,1-1.78.555A19.561,19.561,0,0,0,28.6,6.484,1.38,1.38,0,0,1,27.392,5.12V4.826a5.613,5.613,0,0,1,.6-2.067s.144-.361.324-.777A1.259,1.259,0,0,0,27.526.225a2.911,2.911,0,0,0-2.246,0,1.26,1.26,0,0,0-.793,1.757c.181.415.324.777.324.777a5.613,5.613,0,0,1,.6,2.067v.205A1.381,1.381,0,0,1,24.151,6.4,19.782,19.782,0,0,0,18.5,7.8a1.381,1.381,0,0,1-1.726-.579l-.149-.258A5.609,5.609,0,0,1,16.11,4.87s-.057-.385-.107-.835a1.259,1.259,0,0,0-1.565-1.125,2.919,2.919,0,0,0-1.946,1.123,1.26,1.26,0,0,0,.193,1.918c.364.27.668.511.668.511a5.631,5.631,0,0,1,1.556,1.488l.1.174A1.385,1.385,0,0,1,14.6,9.945a19.567,19.567,0,0,0-4.191,4.039,1.379,1.379,0,0,1-1.785.364L8.361,14.2a5.608,5.608,0,0,1-1.488-1.556s-.242-.3-.511-.668a1.259,1.259,0,0,0-1.918-.192,2.914,2.914,0,0,0-1.123,1.946,1.259,1.259,0,0,0,1.125,1.564c.45.052.835.107.835.107a5.62,5.62,0,0,1,2.091.512l.182.105a1.38,1.38,0,0,1,.554,1.78,19.558,19.558,0,0,0-1.623,5.589A1.381,1.381,0,0,1,5.12,24.593H4.826a5.613,5.613,0,0,1-2.067-.6s-.361-.143-.777-.323a1.259,1.259,0,0,0-1.757.792,2.913,2.913,0,0,0,0,2.247,1.259,1.259,0,0,0,1.757.792c.415-.18.777-.323.777-.323a5.613,5.613,0,0,1,2.067-.6h.206A1.38,1.38,0,0,1,6.4,27.834a19.841,19.841,0,0,0,1.4,5.656,1.38,1.38,0,0,1-.579,1.726l-.257.149a5.628,5.628,0,0,1-2.091.512s-.385.057-.836.107a1.26,1.26,0,0,0-1.125,1.565,2.92,2.92,0,0,0,1.123,1.945A1.26,1.26,0,0,0,5.952,39.3c.269-.364.51-.668.51-.668a5.62,5.62,0,0,1,1.488-1.556l.175-.1a1.382,1.382,0,0,1,1.82.41,19.529,19.529,0,0,0,4.04,4.19,1.379,1.379,0,0,1,.364,1.785l-.15.262a5.627,5.627,0,0,1-1.556,1.488s-.305.242-.669.511a1.261,1.261,0,0,0-.192,1.918,2.914,2.914,0,0,0,1.946,1.122,1.259,1.259,0,0,0,1.564-1.125c.052-.449.108-.834.108-.834a5.589,5.589,0,0,1,.512-2.091l.105-.182a1.38,1.38,0,0,1,1.779-.554,19.557,19.557,0,0,0,5.59,1.623,1.381,1.381,0,0,1,1.208,1.365v.294a5.613,5.613,0,0,1-.6,2.067s-.144.361-.324.777a1.259,1.259,0,0,0,.793,1.757,2.92,2.92,0,0,0,2.246,0A1.259,1.259,0,0,0,27.5,50c-.181-.415-.324-.777-.324-.777a5.613,5.613,0,0,1-.6-2.067v-.206a1.382,1.382,0,0,1,1.263-1.37,19.788,19.788,0,0,0,5.655-1.4,1.381,1.381,0,0,1,1.726.579l.149.259a5.62,5.62,0,0,1,.512,2.09s.057.385.108.835a1.259,1.259,0,0,0,1.564,1.125,2.907,2.907,0,0,0,1.945-1.123,1.259,1.259,0,0,0-.192-1.918c-.364-.269-.669-.511-.669-.511a5.6,5.6,0,0,1-1.556-1.488l-.1-.174a1.382,1.382,0,0,1,.41-1.82A19.528,19.528,0,0,0,41.577,38a1.381,1.381,0,0,1,1.785-.364l.262.151a5.62,5.62,0,0,1,1.488,1.556s.241.305.511.668a1.259,1.259,0,0,0,1.918.192,2.915,2.915,0,0,0,1.123-1.945,1.26,1.26,0,0,0-1.126-1.565c-.448-.051-.834-.107-.834-.107a5.612,5.612,0,0,1-2.091-.512l-.181-.105a1.379,1.379,0,0,1-.555-1.779A19.564,19.564,0,0,0,45.5,28.6a1.381,1.381,0,0,1,1.365-1.208h.295a5.614,5.614,0,0,1,2.066.6s.361.144.777.324a1.26,1.26,0,0,0,1.757-.793,2.92,2.92,0,0,0,0-2.246Z" transform="translate(0 0)" fill="#CFFBFF"/>
    <path id="Stroke_1" data-name="Stroke 1" d="M8.795,4.4A4.4,4.4,0,1,1,4.4,0,4.4,4.4,0,0,1,8.795,4.4Z" transform="translate(14.999 13.35)" fill="none" stroke="#29BAE8" stroke-miterlimit="10" stroke-width="1"/>
    <path id="Stroke_3" data-name="Stroke 3" d="M5.871,2.935A2.935,2.935,0,1,1,2.936,0,2.935,2.935,0,0,1,5.871,2.935Z" transform="translate(30.292 33.096)" fill="none" stroke="#29BAE8" stroke-miterlimit="10" stroke-width="1"/>
    <path id="Stroke_5" data-name="Stroke 5" d="M5.87,2.935A2.935,2.935,0,1,1,2.935,0,2.935,2.935,0,0,1,5.87,2.935Z" transform="translate(12.064 26.598)" fill="none" stroke="#29BAE8" stroke-miterlimit="10" stroke-width="1"/>
    <path id="Stroke_7" data-name="Stroke 7" d="M5.871,2.935A2.935,2.935,0,1,1,2.935,0,2.935,2.935,0,0,1,5.871,2.935Z" transform="translate(23.794 26.598)" fill="none" stroke="#29BAE8" stroke-miterlimit="10" stroke-width="1"/>
    <path id="Stroke_9" data-name="Stroke 9" d="M4.517,2.259A2.259,2.259,0,1,1,2.259,0,2.259,2.259,0,0,1,4.517,2.259Z" transform="translate(36.163 25.443)" fill="none" stroke="#29BAE8" stroke-miterlimit="10" stroke-width="1"/>
    <path id="Stroke_11" data-name="Stroke 11" d="M3.31,1.654A1.655,1.655,0,1,1,1.655,0,1.655,1.655,0,0,1,3.31,1.654Z" transform="translate(23.734 37.55)" fill="none" stroke="#29BAE8" stroke-miterlimit="10" stroke-width="1"/>
    <path id="Stroke_13" data-name="Stroke 13" d="M3.309,1.654A1.655,1.655,0,1,1,1.654,0,1.655,1.655,0,0,1,3.309,1.654Z" transform="translate(30.849 16.776)" fill="none" stroke="#29BAE8" stroke-miterlimit="10" stroke-width="1"/>
    <path id="Stroke_15" data-name="Stroke 15" d="M51.76,25.28A1.26,1.26,0,0,0,50,24.487c-.415.18-.777.324-.777.324a5.614,5.614,0,0,1-2.066.6h-.206a1.383,1.383,0,0,1-1.371-1.263,19.786,19.786,0,0,0-1.4-5.656,1.379,1.379,0,0,1,.579-1.725l.258-.149a5.623,5.623,0,0,1,2.091-.511s.385-.057.834-.108a1.26,1.26,0,0,0,1.126-1.564,2.919,2.919,0,0,0-1.123-1.946,1.261,1.261,0,0,0-1.918.192c-.269.364-.511.669-.511.669a5.608,5.608,0,0,1-1.488,1.556l-.173.1a1.384,1.384,0,0,1-1.821-.41A19.548,19.548,0,0,0,38,10.407a1.38,1.38,0,0,1-.365-1.785l.152-.261a5.586,5.586,0,0,1,1.556-1.488s.3-.242.668-.511A1.259,1.259,0,0,0,40.2,4.444a2.911,2.911,0,0,0-1.946-1.123,1.26,1.26,0,0,0-1.565,1.125c-.051.449-.107.834-.107.834a5.644,5.644,0,0,1-.512,2.092l-.105.181a1.381,1.381,0,0,1-1.78.555A19.561,19.561,0,0,0,28.6,6.484,1.38,1.38,0,0,1,27.392,5.12V4.826a5.613,5.613,0,0,1,.6-2.067s.144-.361.324-.777A1.259,1.259,0,0,0,27.526.225a2.911,2.911,0,0,0-2.246,0,1.26,1.26,0,0,0-.793,1.757c.181.415.324.777.324.777a5.613,5.613,0,0,1,.6,2.067v.205A1.381,1.381,0,0,1,24.151,6.4,19.782,19.782,0,0,0,18.5,7.8a1.381,1.381,0,0,1-1.726-.579l-.149-.258A5.609,5.609,0,0,1,16.11,4.87s-.057-.385-.107-.835a1.259,1.259,0,0,0-1.565-1.125,2.919,2.919,0,0,0-1.946,1.123,1.26,1.26,0,0,0,.193,1.918c.364.27.668.511.668.511a5.631,5.631,0,0,1,1.556,1.488l.1.174A1.385,1.385,0,0,1,14.6,9.945a19.567,19.567,0,0,0-4.191,4.039,1.379,1.379,0,0,1-1.785.364L8.361,14.2a5.608,5.608,0,0,1-1.488-1.556s-.242-.3-.511-.668a1.259,1.259,0,0,0-1.918-.192,2.914,2.914,0,0,0-1.123,1.946,1.259,1.259,0,0,0,1.125,1.564c.45.052.835.107.835.107a5.62,5.62,0,0,1,2.091.512l.182.105a1.38,1.38,0,0,1,.554,1.78,19.558,19.558,0,0,0-1.623,5.589A1.381,1.381,0,0,1,5.12,24.593H4.826a5.613,5.613,0,0,1-2.067-.6s-.361-.143-.777-.323a1.259,1.259,0,0,0-1.757.792,2.913,2.913,0,0,0,0,2.247,1.259,1.259,0,0,0,1.757.792c.415-.18.777-.323.777-.323a5.613,5.613,0,0,1,2.067-.6h.206A1.38,1.38,0,0,1,6.4,27.834a19.841,19.841,0,0,0,1.4,5.656,1.38,1.38,0,0,1-.579,1.726l-.257.149a5.628,5.628,0,0,1-2.091.512s-.385.057-.836.107a1.26,1.26,0,0,0-1.125,1.565,2.92,2.92,0,0,0,1.123,1.945A1.26,1.26,0,0,0,5.952,39.3c.269-.364.51-.668.51-.668a5.62,5.62,0,0,1,1.488-1.556l.175-.1a1.382,1.382,0,0,1,1.82.41,19.529,19.529,0,0,0,4.04,4.19,1.379,1.379,0,0,1,.364,1.785l-.15.262a5.627,5.627,0,0,1-1.556,1.488s-.305.242-.669.511a1.261,1.261,0,0,0-.192,1.918,2.914,2.914,0,0,0,1.946,1.122,1.259,1.259,0,0,0,1.564-1.125c.052-.449.108-.834.108-.834a5.589,5.589,0,0,1,.512-2.091l.105-.182a1.38,1.38,0,0,1,1.779-.554,19.557,19.557,0,0,0,5.59,1.623,1.381,1.381,0,0,1,1.208,1.365v.294a5.613,5.613,0,0,1-.6,2.067s-.144.361-.324.777a1.259,1.259,0,0,0,.793,1.757,2.92,2.92,0,0,0,2.246,0A1.259,1.259,0,0,0,27.5,50c-.181-.415-.324-.777-.324-.777a5.613,5.613,0,0,1-.6-2.067v-.206a1.382,1.382,0,0,1,1.263-1.37,19.788,19.788,0,0,0,5.655-1.4,1.381,1.381,0,0,1,1.726.579l.149.259a5.62,5.62,0,0,1,.512,2.09s.057.385.108.835a1.259,1.259,0,0,0,1.564,1.125,2.907,2.907,0,0,0,1.945-1.123,1.259,1.259,0,0,0-.192-1.918c-.364-.269-.669-.511-.669-.511a5.6,5.6,0,0,1-1.556-1.488l-.1-.174a1.382,1.382,0,0,1,.41-1.82A19.528,19.528,0,0,0,41.577,38a1.381,1.381,0,0,1,1.785-.364l.262.151a5.62,5.62,0,0,1,1.488,1.556s.241.305.511.668a1.259,1.259,0,0,0,1.918.192,2.915,2.915,0,0,0,1.123-1.945,1.26,1.26,0,0,0-1.126-1.565c-.448-.051-.834-.107-.834-.107a5.612,5.612,0,0,1-2.091-.512l-.181-.105a1.379,1.379,0,0,1-.555-1.779A19.564,19.564,0,0,0,45.5,28.6a1.381,1.381,0,0,1,1.365-1.208h.295a5.614,5.614,0,0,1,2.066.6s.361.144.777.324a1.26,1.26,0,0,0,1.757-.793,2.92,2.92,0,0,0,0-2.246Z" transform="translate(0 0)" fill="none" stroke="#29BAE8" stroke-miterlimit="10" stroke-width="1"/>
  </g>
</svg>
