<svg xmlns="http://www.w3.org/2000/svg" xmlns:xlink="http://www.w3.org/1999/xlink" width="272.831" height="261.403" viewBox="0 0 272.831 261.403">
  <defs>
    <clipPath id="clip-path">
      <path id="Clip_44" data-name="Clip 44" d="M0,0H44.616V26.99H0Z" fill="none"/>
    </clipPath>
    <clipPath id="clip-path-2">
      <path id="Clip_54" data-name="Clip 54" d="M0,0H28.15V46.62H0Z" fill="none"/>
    </clipPath>
    <clipPath id="clip-path-3">
      <path id="Clip_95" data-name="Clip 95" d="M0,0H44.359V27.25H0Z" fill="none"/>
    </clipPath>
    <clipPath id="clip-path-4">
      <path id="Clip_98" data-name="Clip 98" d="M0,0H44.359V22.173H0Z" fill="none"/>
    </clipPath>
  </defs>
  <g id="emo" transform="translate(0.001 -0.758)">
    <path id="Fill_1" data-name="Fill 1" d="M20.665,1.381q-.63-.3-1.287-.531C18.943.694,18.5.558,18.053.444c-.2-.05-.394-.094-.591-.136L17.333.281c-.2-.039-.394-.076-.592-.108l-.05-.008Q16.4.122,16.107.089l-.076-.01c-.209-.022-.419-.04-.629-.053l-.037,0q-.656-.037-1.308-.014h-.013a12.333,12.333,0,0,0-3.309.575L10.7.595q-.222.072-.441.153l-.045.016a11.19,11.19,0,0,0-1.367.621l-.069.038c-.118.065-.236.133-.352.2l-.1.062q-.162.1-.32.205l-.1.065c-.122.084-.243.169-.362.258l-.038.027q-.2.15-.393.311l-.076.065c-.1.084-.2.169-.3.257-.04.037-.079.074-.119.112-.084.077-.164.155-.245.236l-.124.125c-.082.084-.161.169-.239.256l-.107.117c-.112.127-.223.257-.33.391C3.74,6.4,3.739,8.822,4.346,11.252c.051.2.1.405.163.607.07.241.145.481.223.721q.18.551.379,1.1A20.66,20.66,0,0,1,6.4,17.424c.029.135.058.268.085.4.077.4.137.8.175,1.193.013.131.023.263.03.394a10.185,10.185,0,0,1-.062,1.954,9.856,9.856,0,0,1-.455,1.94q-.134.389-.3.779a13.029,13.029,0,0,1-1.35,2.36q-.219.308-.45.608c-1.074,1.4-2.312,2.681-3.488,4a2.591,2.591,0,0,0-.366.518,1.88,1.88,0,0,0-.126.28.01.01,0,0,1,0,.005,1.615,1.615,0,0,0-.054.2l0,.026a1.473,1.473,0,0,0-.026.182v.01a1.956,1.956,0,0,0,.015.42,2.646,2.646,0,0,0,.1.414h0c.023.071.049.141.077.214s.062.148.1.225c.077.165.16.33.246.5s.176.329.271.492q.284.49.617.966t.712.917c.126.149.257.293.39.434a11.05,11.05,0,0,0,.84.8q.33.282.683.533c.157.111.316.217.478.317q.121.075.245.147c.115.065.231.127.348.186s.211.105.319.154c.145.066.293.127.442.184a6.837,6.837,0,0,0,1,.293A7.42,7.42,0,0,0,9.9,39.54c.088-.02.177-.042.263-.068s.165-.051.246-.08l.12-.047a3.047,3.047,0,0,0,.455-.235,2.6,2.6,0,0,0,.341-.255q.087-.077.167-.163a2.257,2.257,0,0,0,.222-.281,2.6,2.6,0,0,0,.33-.7c.458-1.527-.016-3.155.14-4.712.008-.075.015-.149.025-.224.025-.176.052-.35.084-.522q.136-.779.337-1.52a16.679,16.679,0,0,1,.9-2.725q.162-.376.342-.745a17.307,17.307,0,0,1,1-1.786,17.709,17.709,0,0,1,5.139-5.212c3.075-2.065,8.095-3.2,8.157-7.551a12.449,12.449,0,0,0-7.5-11.328" transform="translate(163.254 19.005)" fill="rgba(255,255,255,0.14)"/>
    <path id="Fill_3" data-name="Fill 3" d="M27.128,37.425a2.557,2.557,0,0,1-.6-.832,59.783,59.783,0,0,0-2.992-5.915C20.523,25.842,16.4,24.585,10.9,24.69a27.391,27.391,0,0,1-2.773-.254C5.417,24.022,2.974,23,1.438,20.18c-2.56-4.7-1.491-10.095,1.547-14.126A15.975,15.975,0,0,1,5.031,3.815,13.611,13.611,0,0,1,19.624,1.037c4.372,1.9,3.4,7.44,4.19,11.411a19.171,19.171,0,0,0,7.46,11.863A18.6,18.6,0,0,0,33.158,25.6c1.541.92,3.5,1.092,4.912,2.252,1.888,1.55.789,4.23-.393,5.943-1.88,2.726-5.563,4.011-8.752,4.142a2.413,2.413,0,0,1-1.8-.51" transform="translate(25.867 41.998)" fill="#383075"/>
    <path id="Fill_5" data-name="Fill 5" d="M4.595,3.8a16.005,16.005,0,0,0-2.04,2.233A15,15,0,0,0,0,11.262,14.574,14.574,0,0,1,3.763,6.528C8.05,2.784,15.655.819,18.99,5.593c2.121,3.054,1.982,7.44,2.231,11.516.152,1.777.614,3.941,2.408,5.2.423.312.881.625,1.359.943A12.916,12.916,0,0,0,26.9,24.4a2.35,2.35,0,0,1,.768.7c.112.287.322.884.169.9-4.163,3.167-4.588,8.446-.457,11.444,1.322.953,3.108.322,4.642-.14.4-.154.8-.33,1.181-.523a11.848,11.848,0,0,0,2.092-1.322,10.333,10.333,0,0,0,1.031-.967,9.387,9.387,0,0,0,2.127-3.644A2.8,2.8,0,0,0,37.4,27.866c-1.444-.634-2.878-1.153-4.2-1.817a14.257,14.257,0,0,1-1.285-.721,10.412,10.412,0,0,1-1.193-.878,8.955,8.955,0,0,1-1.078-1.089q-.543-.467-1.05-.973a19.3,19.3,0,0,1-5.263-9.972c-.787-3.961.181-9.485-4.178-11.381A13.574,13.574,0,0,0,4.595,3.8" transform="translate(26.442 42.573)" fill="#be0152"/>
    <path id="Fill_7" data-name="Fill 7" d="M23.579,28.052a7.1,7.1,0,0,1,1.359,2.415c2.606-1.958,3.814-3.94,3.8-7.36a1.271,1.271,0,0,0-.623-1.117,5.066,5.066,0,0,0-1.356-.639c-.255-.125-.5-.246-.723-.361a8,8,0,0,1-.684-.48c-.2-.133-.391-.266-.58-.4s-.373-.264-.55-.394c-1.806-1.269-2.271-3.453-2.425-5.249-.25-4.115-.111-8.542-2.247-11.626C16.192-1.976,8.532.007,4.215,3.788A14.69,14.69,0,0,0,.425,8.566a12.111,12.111,0,0,0,1.018,8.95c1.544,2.838,4,3.869,6.718,4.286a27.47,27.47,0,0,0,2.786.257,16.254,16.254,0,0,1,8.059,1.52c.254.134.5.278.746.433a9.4,9.4,0,0,1,2.095,1.77c.321.352.628.728.919,1.113s.561.773.813,1.157" transform="translate(25.867 44.872)" fill="#eb0065"/>
    <path id="Fill_9" data-name="Fill 9" d="M2.864,9.772a6.385,6.385,0,0,1-2.8-4.445C-.282,2.963.852-.765,3.731.138,6.352.9,6.161,4.125,6.318,6.456c.106,1.553-1.37,2.917-3,3.231-.145.029-.294.058-.45.085" transform="translate(29.316 52.92)" fill="#be0152"/>
    <path id="Fill_11" data-name="Fill 11" d="M36.487,7.521c-.205-.416-.432-.822-.676-1.217s-.507-.776-.786-1.144c-.122-.161-.249-.319-.378-.474-.027-.034-.055-.067-.084-.1-.129-.153-.261-.306-.4-.453L34.132,4.1c-.134-.145-.27-.286-.409-.424-.019-.018-.035-.037-.055-.054q-.224-.222-.46-.433l-.027-.026q-.491-.439-1.019-.825l-.01-.008A12.384,12.384,0,0,0,29.2.714L29.166.7C29.02.648,28.873.6,28.725.548L28.68.534A11.007,11.007,0,0,0,27.219.168C27.192.163,27.166.16,27.14.155c-.133-.023-.267-.043-.4-.061L26.618.079c-.126-.015-.253-.028-.38-.039-.039,0-.079-.008-.118-.01-.148-.011-.3-.02-.445-.024l-.047,0c-.168,0-.335-.005-.5,0-.034,0-.068,0-.1,0-.131,0-.261.01-.393.018-.055,0-.109.009-.165.013-.111.009-.225.02-.337.033L23.953.09c-.117.015-.233.033-.349.051-.052.009-.1.016-.157.026-.168.029-.335.062-.5.1-2.876.646-4.393,2.54-5.439,4.82q-.131.285-.252.577c-.1.232-.188.466-.277.7q-.2.541-.392,1.1A20.448,20.448,0,0,1,15.245,11.2c-.061.124-.121.246-.186.367-.19.362-.392.71-.61,1.043-.072.111-.145.221-.222.328a10.265,10.265,0,0,1-1.273,1.491,9.9,9.9,0,0,1-1.573,1.235q-.349.22-.725.421A13.087,13.087,0,0,1,8.12,17.088q-.367.1-.735.2c-1.721.429-3.493.659-5.241.958a2.639,2.639,0,0,0-.611.177,2.091,2.091,0,0,0-.274.141l0,0a1.845,1.845,0,0,0-.166.121.148.148,0,0,0-.019.018c-.047.04-.093.082-.135.126l-.007.009a1.874,1.874,0,0,0-.25.338,0,0,0,0,1,0,0,2.564,2.564,0,0,0-.181.385,0,0,0,0,0,0,0c-.025.07-.05.14-.073.214s-.044.155-.064.237c-.043.178-.082.358-.118.54s-.068.367-.1.555c-.056.374-.1.755-.119,1.139s-.031.774-.017,1.162c.007.194.017.388.033.582A10.711,10.711,0,0,0,.2,25.145q.082.427.2.843c.053.184.111.366.176.546.033.089.066.178.1.266.049.123.1.244.156.363s.1.214.154.319c.073.142.151.283.231.42a6.778,6.778,0,0,0,.6.85,7.443,7.443,0,0,0,2.319,1.935c.082.039.166.076.249.11s.163.063.245.09c.04.013.082.026.122.037a2.92,2.92,0,0,0,.5.1,2.424,2.424,0,0,0,.426.012,2.12,2.12,0,0,0,.235-.024,2.185,2.185,0,0,0,.348-.082,2.617,2.617,0,0,0,.7-.347c1.316-.91,1.964-2.48,3.061-3.6.053-.053.1-.108.16-.159q.193-.183.393-.358.594-.524,1.217-.98a16.759,16.759,0,0,1,2.412-1.572q.362-.194.735-.371a17.242,17.242,0,0,1,1.905-.774,17.839,17.839,0,0,1,7.3-.88c3.706.3,8.351,2.539,11.13-.833A12.423,12.423,0,0,0,36.487,7.521" transform="translate(216.139 80.512)" fill="rgba(255,255,255,0.14)"/>
    <path id="Fill_15" data-name="Fill 15" d="M9.281.962c-.466.171-.924.364-1.37.576s-.883.447-1.306.7c-.185.111-.367.227-.547.345l-.116.076c-.178.119-.355.242-.527.368l-.043.033c-.169.124-.334.252-.5.382-.022.016-.043.034-.064.051-.174.14-.344.285-.512.433l-.03.028c-.346.309-.678.635-.99.974l-.009.01A12.988,12.988,0,0,0,1.235,7.856l-.017.03q-.109.221-.212.446c-.007.015-.014.03-.02.046A11.365,11.365,0,0,0,.439,9.866c-.007.026-.014.052-.021.079-.04.137-.075.276-.109.415-.01.041-.02.082-.029.123-.03.131-.058.263-.083.394-.008.041-.017.081-.024.123-.028.154-.052.308-.073.463,0,.016-.006.033-.008.049-.023.174-.042.349-.056.526,0,.035,0,.069-.008.1-.009.137-.017.275-.022.413,0,.056,0,.115,0,.173,0,.118,0,.238,0,.357,0,.062,0,.125,0,.187,0,.123.01.246.018.37,0,.055,0,.111.009.166.013.179.031.357.053.537.379,3.074,2.235,4.862,4.554,6.2q.291.168.589.326c.236.126.477.246.721.365.369.181.747.357,1.127.527a22.262,22.262,0,0,1,3.836,1.795c.125.077.248.154.37.233.366.237.716.485,1.048.749.109.087.218.177.325.267a10.913,10.913,0,0,1,1.452,1.489,10.419,10.419,0,0,1,1.148,1.777q.2.387.37.8a13.508,13.508,0,0,1,.8,2.758c.047.263.092.525.13.789.271,1.845.326,3.721.455,5.579a2.7,2.7,0,0,0,.123.658,2.057,2.057,0,0,0,.12.3l0,.005a1.941,1.941,0,0,0,.112.186.173.173,0,0,0,.017.023,1.628,1.628,0,0,0,.121.154l.007.008a2,2,0,0,0,.335.3h0a2.757,2.757,0,0,0,.391.232h0c.071.035.144.068.221.1s.161.064.246.093c.185.064.373.125.565.181s.384.11.58.158c.393.1.8.182,1.2.247s.821.113,1.237.142c.207.013.416.023.624.027a11.9,11.9,0,0,0,1.245-.041c.31-.027.617-.066.921-.119.2-.037.4-.078.6-.126.1-.024.2-.05.3-.077.136-.038.27-.08.4-.125s.238-.081.355-.126c.161-.061.318-.127.473-.2a7.607,7.607,0,0,0,.973-.535A7.9,7.9,0,0,0,30.5,37.247c.052-.081.1-.164.144-.247s.085-.163.122-.246c.019-.041.037-.082.053-.124a2.954,2.954,0,0,0,.163-.517,2.614,2.614,0,0,0,.057-.445,2.3,2.3,0,0,0,0-.246,2.321,2.321,0,0,0-.049-.374,2.694,2.694,0,0,0-.3-.768c-.828-1.474-2.434-2.318-3.51-3.585-.052-.061-.1-.12-.151-.184-.117-.148-.229-.3-.34-.448q-.5-.677-.913-1.377A17.289,17.289,0,0,1,24.364,26c-.112-.267-.219-.536-.318-.807a18.611,18.611,0,0,1-.62-2.074,18.376,18.376,0,0,1-.151-7.721c.718-3.84,3.608-8.457.312-11.72A13.52,13.52,0,0,0,9.281.962" transform="translate(75.878 25.903)" fill="rgba(255,255,255,0.14)"/>
    <path id="Fill_17" data-name="Fill 17" d="M1.488,7.89c-.21.444-.4.9-.567,1.359s-.314.93-.437,1.4c-.053.207-.1.415-.147.624-.009.045-.018.089-.028.134q-.064.314-.116.628c0,.017,0,.036-.008.053-.034.2-.061.411-.085.617l-.01.081q-.038.332-.06.665c0,.013,0,.027,0,.04q-.042.693-.021,1.385a.045.045,0,0,1,0,.012A13.065,13.065,0,0,0,.6,18.4c0,.011.007.022.01.033.05.157.1.313.161.468.005.015.012.031.016.047a11.674,11.674,0,0,0,.653,1.449l.039.073c.069.125.139.25.212.374.022.036.044.072.066.108.069.114.141.228.215.34.024.036.046.071.07.106.087.129.177.257.271.384.011.013.018.027.029.04.106.142.213.281.327.418.021.026.046.053.067.08.088.106.178.21.272.314l.117.128q.122.131.248.258c.044.045.088.088.133.132.088.087.178.171.27.255.042.038.083.076.125.113.134.12.27.238.411.351,2.414,1.955,4.977,1.967,7.551,1.335.214-.053.43-.11.644-.171.255-.072.51-.151.765-.232.388-.125.778-.257,1.165-.4a21.829,21.829,0,0,1,3.97-1.345q.212-.047.424-.088.638-.121,1.264-.181c.139-.012.278-.023.418-.031a10.829,10.829,0,0,1,2.068.073,10.578,10.578,0,0,1,2.053.492c.273.1.547.2.822.324a13.782,13.782,0,0,1,2.492,1.437c.216.156.432.316.643.48,1.479,1.143,2.828,2.457,4.216,3.707a2.715,2.715,0,0,0,.546.389,1.971,1.971,0,0,0,.3.134l.007,0a1.8,1.8,0,0,0,.209.058l.027,0a1.929,1.929,0,0,0,.194.028h.01a2.051,2.051,0,0,0,.446-.015,2.754,2.754,0,0,0,.438-.1h0c.074-.024.15-.051.226-.082s.157-.064.239-.1q.263-.121.524-.257c.175-.09.349-.186.523-.286.346-.2.689-.415,1.024-.65s.66-.483.974-.749c.158-.133.312-.27.461-.41a11.506,11.506,0,0,0,.854-.887c.2-.232.391-.473.569-.719.117-.165.231-.333.337-.5.053-.085.106-.172.157-.258.07-.121.135-.244.2-.367s.111-.223.163-.337q.106-.23.2-.469a7.342,7.342,0,0,0,.315-1.054,7.879,7.879,0,0,0,.09-3.19c-.021-.094-.045-.187-.072-.279s-.053-.175-.085-.262c-.014-.043-.032-.084-.049-.125a3.01,3.01,0,0,0-.245-.484,2.821,2.821,0,0,0-.269-.361,2.231,2.231,0,0,0-.174-.178,2.438,2.438,0,0,0-.295-.236,2.746,2.746,0,0,0-.746-.351c-1.614-.491-3.341,0-4.986-.169-.079-.009-.158-.016-.236-.028-.186-.026-.371-.057-.554-.089q-.822-.147-1.608-.365a17.482,17.482,0,0,1-2.879-.962c-.265-.114-.528-.236-.789-.364a18.574,18.574,0,0,1-1.885-1.068,18.716,18.716,0,0,1-5.5-5.462C19.3,5.4,18.123.086,13.512,0A13.179,13.179,0,0,0,1.488,7.89" transform="translate(16.67 90.285)" fill="rgba(255,255,255,0.14)"/>
    <path id="Fill_21" data-name="Fill 21" d="M1.52,24.127q.317.629.691,1.223c.249.4.517.78.8,1.149.126.162.254.319.384.475l.085.1c.131.154.265.306.4.454l.035.037q.2.216.415.425l.055.054q.228.223.466.433l.028.025q.5.439,1.029.824l.01.008a12.339,12.339,0,0,0,2.98,1.6l.032.011c.147.054.3.1.444.152l.046.014a11.082,11.082,0,0,0,1.469.354l.078.012c.135.022.269.041.405.057l.119.014c.127.014.254.025.382.035l.118.009c.149.009.3.016.448.02h.047c.168,0,.335,0,.5,0l.1-.005c.13,0,.263-.012.394-.022l.164-.014c.113-.011.226-.023.339-.037.058-.007.117-.014.176-.023.116-.016.232-.035.348-.055l.159-.027c.166-.032.334-.067.5-.107,2.876-.685,4.377-2.617,5.4-4.935q.128-.289.247-.586c.094-.235.183-.474.27-.715.132-.366.259-.739.381-1.113a21.027,21.027,0,0,1,1.3-3.789c.059-.126.119-.251.182-.374.186-.368.385-.723.6-1.061.07-.113.145-.224.219-.334a10.423,10.423,0,0,1,1.259-1.521,9.981,9.981,0,0,1,1.566-1.266c.231-.153.472-.3.721-.434a13.086,13.086,0,0,1,2.533-1.046c.243-.074.488-.142.735-.207,1.721-.451,3.495-.7,5.244-1.024a2.635,2.635,0,0,0,.61-.186,1.959,1.959,0,0,0,.274-.146l0,0a1.727,1.727,0,0,0,.166-.124c.005-.006.011-.012.019-.019a1.493,1.493,0,0,0,.134-.13l.007-.008a1.946,1.946,0,0,0,.247-.345h0a2.676,2.676,0,0,0,.177-.392s0,0,0,0c.025-.069.049-.142.07-.218s.044-.157.063-.24q.061-.271.112-.548c.034-.186.065-.373.09-.562.053-.378.089-.764.108-1.154s.022-.783,0-1.176c-.009-.2-.022-.393-.039-.588a10.873,10.873,0,0,0-.17-1.164c-.057-.287-.128-.571-.21-.85q-.082-.279-.182-.55c-.033-.09-.068-.18-.1-.269-.05-.123-.1-.245-.16-.365s-.1-.214-.159-.321c-.073-.142-.152-.283-.236-.421a6.948,6.948,0,0,0-.609-.855A7.488,7.488,0,0,0,33.713.344c-.082-.04-.166-.075-.25-.109S33.3.172,33.217.146L33.093.109a3,3,0,0,0-.507-.1,2.418,2.418,0,0,0-.428-.008c-.078.005-.155.013-.234.026a2.564,2.564,0,0,0-.349.086,2.607,2.607,0,0,0-.7.36c-1.31.935-1.942,2.53-3.031,3.675-.053.055-.1.11-.159.163-.129.124-.258.246-.39.365-.393.359-.8.693-1.211,1a16.641,16.641,0,0,1-2.4,1.617q-.361.2-.732.384a17.5,17.5,0,0,1-1.9.8,17.729,17.729,0,0,1-7.308.968c-3.717-.261-8.4-2.477-11.149.964A12.66,12.66,0,0,0,1.52,24.127" transform="translate(25.293 174.211)" fill="rgba(255,255,255,0.14)"/>
    <path id="Fill_25" data-name="Fill 25" d="M38.862,20.6q.3-.634.532-1.291c.157-.438.294-.883.409-1.333.048-.2.093-.394.135-.593.008-.043.018-.085.026-.128.039-.2.075-.4.107-.595a.437.437,0,0,0,.007-.051c.031-.194.055-.39.077-.585,0-.025.007-.05.009-.076.022-.21.04-.42.052-.63,0-.013,0-.026,0-.039a13.041,13.041,0,0,0,.01-1.312s0-.008,0-.012a12.242,12.242,0,0,0-.595-3.316c0-.011-.008-.022-.011-.032-.048-.148-.1-.295-.156-.441-.006-.015-.011-.029-.018-.045a10.927,10.927,0,0,0-.634-1.369l-.039-.069c-.067-.118-.135-.236-.207-.353-.02-.034-.042-.068-.063-.1-.068-.109-.138-.215-.21-.321-.021-.034-.044-.067-.066-.1-.085-.122-.172-.242-.262-.362l-.029-.037c-.1-.134-.207-.265-.316-.394-.021-.025-.045-.05-.066-.075-.086-.1-.173-.2-.263-.295l-.113-.12c-.078-.082-.159-.164-.239-.243l-.128-.124c-.085-.081-.174-.16-.262-.239-.04-.036-.078-.072-.119-.107-.129-.111-.26-.222-.4-.33C33.705,3.65,31.253,3.658,28.79,4.277c-.2.051-.411.107-.616.166-.243.071-.486.147-.73.226-.371.121-.743.25-1.113.384a20.986,20.986,0,0,1-3.791,1.3c-.137.032-.272.06-.407.086q-.61.121-1.209.181-.2.02-.4.033a10.426,10.426,0,0,1-1.98-.055,10.078,10.078,0,0,1-1.97-.45q-.395-.133-.791-.3a13.178,13.178,0,0,1-2.4-1.344q-.314-.219-.619-.449C11.342,2.988,10.04,1.752,8.7.578A2.7,2.7,0,0,0,8.175.213,1.965,1.965,0,0,0,7.89.089H7.884a1.646,1.646,0,0,0-.2-.053l-.026,0A1.752,1.752,0,0,0,7.472,0H7.461a1.927,1.927,0,0,0-.425.017,2.623,2.623,0,0,0-.42.1h0C6.544.147,6.472.172,6.4.2s-.15.062-.227.1c-.167.079-.334.162-.5.248s-.333.179-.5.274q-.5.287-.976.623c-.318.224-.629.464-.927.717-.15.128-.3.258-.439.392a10.931,10.931,0,0,0-.811.847c-.189.222-.37.45-.537.685-.112.157-.22.318-.32.48-.051.082-.1.164-.148.247-.066.116-.128.232-.188.349s-.106.213-.154.32c-.066.147-.128.295-.184.445a6.694,6.694,0,0,0-.294,1A7.368,7.368,0,0,0,.13,9.952c.021.09.044.177.07.263s.052.167.083.248c.014.04.031.08.048.119a2.9,2.9,0,0,0,.239.456,2.505,2.505,0,0,0,.26.339A2.185,2.185,0,0,0,1,11.545a2.494,2.494,0,0,0,.285.22A2.621,2.621,0,0,0,2,12.093c1.552.454,3.2-.028,4.778.122.076.008.151.015.226.025.178.025.357.051.532.082q.788.133,1.542.333a16.824,16.824,0,0,1,2.765.891c.254.107.508.219.757.338a17.5,17.5,0,0,1,1.815,1,17.852,17.852,0,0,1,5.3,5.133c2.1,3.075,3.272,8.1,7.689,8.149A12.629,12.629,0,0,0,38.862,20.6" transform="translate(221.887 159.265)" fill="rgba(255,255,255,0.14)"/>
    <path id="Fill_27" data-name="Fill 27" d="M7.9,39.041c.428.184.865.35,1.308.492s.892.265,1.345.366c.2.044.4.082.6.117l.128.023c.2.033.4.064.6.089l.05.005c.2.024.391.044.588.059l.076.007c.21.015.422.026.631.032h.038q.66.018,1.313-.029h.012a12.356,12.356,0,0,0,3.3-.691l.032-.011c.146-.054.292-.11.436-.169l.044-.019a11.169,11.169,0,0,0,1.352-.672l.066-.041c.118-.069.233-.141.348-.216l.1-.066c.106-.071.212-.144.315-.218l.1-.069c.12-.088.238-.179.355-.272.012-.011.024-.02.037-.03q.195-.158.383-.327c.026-.022.049-.045.074-.068.1-.088.192-.178.287-.27l.117-.116c.08-.08.158-.162.237-.246l.12-.132c.078-.087.155-.177.232-.267l.1-.122c.107-.133.214-.267.318-.406,1.766-2.37,1.687-4.813,1-7.245-.058-.2-.12-.4-.185-.608q-.118-.36-.248-.721-.2-.548-.417-1.1a20.9,20.9,0,0,1-1.415-3.736c-.035-.135-.068-.269-.1-.4-.093-.4-.165-.8-.217-1.2-.016-.132-.032-.264-.045-.4a10.537,10.537,0,0,1,0-1.973,9.951,9.951,0,0,1,.393-1.974c.08-.264.173-.529.276-.8A13.178,13.178,0,0,1,23.257,13.2q.21-.318.43-.628c1.031-1.451,2.23-2.783,3.366-4.151a2.705,2.705,0,0,0,.35-.534,1.817,1.817,0,0,0,.116-.287l0-.005a1.861,1.861,0,0,0,.047-.2.176.176,0,0,0,0-.025,1.811,1.811,0,0,0,.02-.185V7.175a1.916,1.916,0,0,0-.031-.422h0a2.761,2.761,0,0,0-.111-.415,0,0,0,0,1,0,0c-.025-.07-.052-.14-.085-.213s-.067-.148-.1-.224c-.082-.165-.17-.328-.263-.491s-.187-.326-.287-.488c-.2-.324-.418-.643-.652-.953s-.481-.613-.744-.9q-.2-.217-.405-.424a11.054,11.054,0,0,0-.87-.782c-.227-.183-.462-.356-.7-.517-.162-.106-.324-.208-.489-.3C22.761.989,22.677.943,22.592.9c-.116-.063-.235-.121-.354-.177s-.215-.1-.326-.145c-.149-.061-.3-.118-.45-.171a6.735,6.735,0,0,0-1.01-.262A7.4,7.4,0,0,0,17.427.17c-.09.023-.176.049-.263.077S17,.3,16.921.337L16.8.388a3,3,0,0,0-.45.252,2.591,2.591,0,0,0-.331.269,2.2,2.2,0,0,0-.164.171,2.342,2.342,0,0,0-.212.29,2.6,2.6,0,0,0-.307.724c-.409,1.556.122,3.184.016,4.759-.005.076-.011.151-.017.227-.02.178-.042.355-.067.53q-.11.791-.288,1.545a16.633,16.633,0,0,1-.811,2.779c-.1.258-.2.512-.317.763a17.635,17.635,0,0,1-.946,1.836,17.8,17.8,0,0,1-4.981,5.432C4.914,22.152-.083,23.461,0,27.86A12.569,12.569,0,0,0,7.9,39.041" transform="translate(89.674 215.024)" fill="rgba(255,255,255,0.14)"/>
    <path id="Fill_29" data-name="Fill 29" d="M22.787,39.672c.457-.187.906-.4,1.342-.625s.862-.479,1.274-.748c.18-.117.356-.24.532-.365l.113-.081c.172-.126.343-.254.51-.387l.044-.034c.162-.13.321-.265.479-.4l.062-.052c.168-.149.331-.3.493-.455.01-.009.019-.019.029-.028q.5-.485.952-1.014l.009-.01a13.069,13.069,0,0,0,1.927-3l.014-.033c.068-.15.134-.3.2-.455l.02-.047a11.5,11.5,0,0,0,.493-1.516c.008-.027.013-.054.02-.081.034-.139.065-.28.094-.421.009-.042.016-.083.024-.126.026-.132.048-.265.07-.4.007-.042.012-.083.019-.125.022-.155.041-.312.057-.469l.007-.049c.016-.176.029-.353.037-.531,0-.035,0-.07,0-.106q.01-.207.01-.416c0-.057,0-.116,0-.174,0-.119,0-.239-.01-.36l-.01-.188c-.008-.122-.018-.247-.03-.372-.005-.056-.01-.111-.015-.167-.019-.179-.042-.359-.07-.539-.48-3.083-2.385-4.822-4.735-6.091-.2-.106-.395-.209-.6-.308-.238-.118-.481-.232-.727-.343-.374-.171-.754-.334-1.138-.494a21.979,21.979,0,0,1-3.873-1.681c-.127-.072-.252-.146-.377-.222q-.558-.339-1.065-.719c-.113-.084-.225-.171-.333-.258a10.942,10.942,0,0,1-1.492-1.452,10.388,10.388,0,0,1-1.2-1.751c-.14-.255-.272-.52-.4-.795a13.88,13.88,0,0,1-.888-2.751q-.086-.394-.156-.79c-.331-1.848-.448-3.735-.64-5.6a2.772,2.772,0,0,0-.144-.658,2.011,2.011,0,0,0-.132-.3l0-.005a1.738,1.738,0,0,0-.116-.184c-.005-.009-.012-.014-.018-.022a1.883,1.883,0,0,0-.125-.152l-.009-.008a2.038,2.038,0,0,0-.341-.289h0a2.743,2.743,0,0,0-.4-.221h0C12.5.769,12.431.738,12.352.709s-.16-.058-.246-.085q-.28-.087-.567-.164T10.957.318c-.394-.086-.8-.156-1.2-.209s-.82-.087-1.235-.1C8.313,0,8.1,0,7.9,0A11.369,11.369,0,0,0,6.661.083c-.306.036-.611.086-.91.151-.2.042-.4.091-.593.145-.1.028-.2.057-.292.087-.134.043-.266.09-.4.139S4.235.7,4.12.745c-.157.067-.311.139-.463.214a7.439,7.439,0,0,0-.948.571A7.886,7.886,0,0,0,.484,3.838c-.048.084-.093.169-.136.255S.27,4.26.235,4.344c-.018.042-.033.084-.048.127A3.106,3.106,0,0,0,.043,5,2.576,2.576,0,0,0,0,5.445c0,.083,0,.166.008.249a2.474,2.474,0,0,0,.061.375,2.754,2.754,0,0,0,.319.764C1.261,8.289,2.885,9.087,4,10.327c.054.059.107.119.159.18q.179.22.351.441.516.666.954,1.357a17.546,17.546,0,0,1,1.5,2.66c.121.265.234.532.342.8a18.783,18.783,0,0,1,.685,2.067A18.752,18.752,0,0,1,8.395,25.6c-.583,3.89-3.3,8.633.083,11.81a13.317,13.317,0,0,0,14.309,2.261" transform="translate(174.176 204.102)" fill="rgba(255,255,255,0.14)"/>
    <path id="Fill_31" data-name="Fill 31" d="M76.685,4.083c-61.348,17-96.4,88.63-64.9,145.847,18.858,34.249,57.817,54.237,96.589,52.282,44.3-2.233,88.653-32.219,101.618-75.551C229.969,59.884,168.884-1.8,102.975.04a110.366,110.366,0,0,0-26.29,4.043" transform="translate(31.616 33.95)" fill="#eb0065"/>
    <path id="Fill_33" data-name="Fill 33" d="M176.723,0c-3.276,6.68,4.843,10.551,7.364,15.878a123,123,0,0,1,7.757,21.955q.5,1.987.914,4a83.3,83.3,0,0,1,1.828,16.3q.074,3.889-.193,7.737c-2.276,33.25-23.476,64.9-55.913,76.88a107.471,107.471,0,0,1-10,4.131,115.925,115.925,0,0,1-53.5,5.571c-3.794-.493-7.57-1.159-11.305-1.959a64,64,0,0,1-10.5-2.688,73.405,73.405,0,0,1-22.977-13.082q-2.036-1.691-3.958-3.516a104.865,104.865,0,0,1-12.157-14.878q-.883-1.341-1.712-2.725C7.695,105.954,4.1,97.483,3.089,88.457a4.4,4.4,0,0,0-2.851-3.9c-1.359,10.176,3.412,19.62,6.693,28.885.373.993.757,1.96,1.157,2.917a72.263,72.263,0,0,0,7.4,13.623c1.149,1.694,2.352,3.331,3.608,4.931a116.5,116.5,0,0,0,32.31,27.758c2.518,1.316,5.056,2.518,7.633,3.619A112.03,112.03,0,0,0,83.2,173.511a111.187,111.187,0,0,0,14.878,1.658,99.116,99.116,0,0,0,13.382-.152,103.792,103.792,0,0,0,13.138-1.895,120.037,120.037,0,0,0,15.878-4.681A126.972,126.972,0,0,0,169.645,153q4.508-3.208,8.7-6.817c24.208-19.142,37.909-50.7,34.361-81.388q-.407-3.547-1.126-7.078a96.792,96.792,0,0,0-11.879-31.176q-1.067-1.8-2.212-3.543c-5.74-8-11.625-16.1-19.546-21.982A12.511,12.511,0,0,1,176.723,0" transform="translate(32.191 60.968)" fill="#be0152"/>
    <path id="Fill_35" data-name="Fill 35" d="M.421,30.987a2.731,2.731,0,0,1,.831-.712,63.381,63.381,0,0,0,6.016-3.709c4.869-3.641,5.842-8.144,5.25-14.006a29.5,29.5,0,0,1,.028-2.98c.2-2.926,1.076-5.621,3.934-7.506C21.242-1.069,27.063-.4,31.606,2.485A17.049,17.049,0,0,1,34.16,4.472,14.617,14.617,0,0,1,38.382,19.8c-1.636,4.829-7.6,4.278-11.745,5.469a20.423,20.423,0,0,0-11.938,9,19.707,19.707,0,0,0-1.2,2.123c-.842,1.723-.851,3.827-1.96,5.436-1.48,2.151-4.422,1.213-6.342.1C2.138,40.154.453,36.339.036,32.948a2.592,2.592,0,0,1,.385-1.961" transform="translate(197.169 32.226)" fill="#302d6d"/>
    <path id="Fill_37" data-name="Fill 37" d="M34.16,4.281a17.126,17.126,0,0,0-2.555-2A15.913,15.913,0,0,0,25.823,0a15.56,15.56,0,0,1,5.366,3.627c4.36,4.277,7.118,12.279,2.329,16.285-3.064,2.549-7.743,2.788-12.059,3.414-1.878.321-4.14,1.008-5.32,3.047-2.943,4.816-5.815,13.593-12.4,8.871a12.069,12.069,0,0,1-3.694-3.4A3.65,3.65,0,0,0,.035,32.9c.417,3.407,2.1,7.242,5.159,9.017,1.922,1.116,4.863,2.059,6.343-.1,1.107-1.617,1.118-3.731,1.959-5.463a19.838,19.838,0,0,1,1.2-2.134,20.435,20.435,0,0,1,11.938-9.041c4.145-1.2,10.109-.643,11.745-5.5a14.738,14.738,0,0,0-4.222-15.4" transform="translate(197.169 32.226)" fill="#be0152"/>
    <path id="Fill_39" data-name="Fill 39" d="M3.717,35.438c6.63,4.718,9.519-4.054,12.481-8.867,1.188-2.038,3.463-2.725,5.351-3.045,4.342-.626,9.05-.864,12.134-3.412,4.817-4,2.043-12-2.343-16.277A15.665,15.665,0,0,0,25.94.212a12.823,12.823,0,0,0-9.4,1.869c-2.876,1.894-3.754,4.6-3.958,7.54a29.581,29.581,0,0,0-.028,2.994c.6,5.888-.383,10.411-5.282,14.067a63.8,63.8,0,0,1-6.053,3.726,2.746,2.746,0,0,0-.836.715A2.064,2.064,0,0,0,0,32.04a12.125,12.125,0,0,0,3.717,3.4" transform="translate(197.169 32.226)" fill="#eb0065"/>
    <path id="Fill_41" data-name="Fill 41" d="M.454,9.091c-.861-1.852-.367-4.038.4-5.776C2.07,1,5.446-1.537,7.376,1.163c1.8,2.4-.434,5.124-1.789,7.284-.9,1.44-3.062,1.67-4.688.866C.756,9.244.609,9.17.454,9.091" transform="translate(212.69 35.675)" fill="#be0152"/>
    <g id="Group_45" data-name="Group 45" transform="translate(0 136.368)">
      <path id="Clip_44-2" data-name="Clip 44" d="M0,0H44.616V26.99H0Z" transform="translate(0 0)" fill="none"/>
      <g id="Group_45-2" data-name="Group 45" transform="translate(0 0)" clip-path="url(#clip-path)">
        <path id="Fill_43" data-name="Fill 43" d="M38.946,4.274a2.577,2.577,0,0,0-1,.236,60.461,60.461,0,0,1-6.153,2.5c-5.46,1.672-9.413-.063-13.522-3.721A27.1,27.1,0,0,0,16,1.674C13.671.222,11.144-.6,8.128.522,3.1,2.387.373,7.136.036,12.142a15.851,15.851,0,0,0,.085,3.012,13.569,13.569,0,0,0,9.257,11.58c4.567,1.416,7.462-3.379,10.668-5.849a19.35,19.35,0,0,1,13.445-4.061,18.9,18.9,0,0,1,2.276.259c1.773.311,3.372,1.456,5.207,1.5,2.45.064,3.373-2.666,3.6-4.721.361-3.272-1.593-6.633-3.927-8.805a2.437,2.437,0,0,0-1.7-.785" transform="translate(0 0)" fill="#eb0065"/>
      </g>
    </g>
    <g id="Group_48" data-name="Group 48" transform="translate(-0.001 140.557)">
      <path id="Fill_46" data-name="Fill 46" d="M.121,10.805A16.183,16.183,0,0,1,.036,7.753,15.186,15.186,0,0,1,1.527,2.079a14.769,14.769,0,0,0-.248,6.1c.8,5.691,5.3,12.215,10.978,10.776,3.622-.93,6.4-4.368,9.271-7.315,1.286-1.255,3.06-2.6,5.253-2.376,5.263.415,13.473,3.073,13.577-4.563a11.413,11.413,0,0,0-.51-4.7,3.413,3.413,0,0,1,.8.579c2.334,2.2,4.288,5.606,3.926,8.919-.226,2.083-1.149,4.848-3.6,4.783-1.834-.047-3.433-1.207-5.206-1.522a18.449,18.449,0,0,0-2.276-.262,19.177,19.177,0,0,0-13.445,4.114c-3.206,2.5-6.1,7.358-10.668,5.925A13.712,13.712,0,0,1,.121,10.805" transform="translate(0 0)" fill="#be0152"/>
    </g>
    <path id="Fill_49" data-name="Fill 49" d="M39.055,9.192c-.1,7.593-8.264,4.95-13.494,4.538-2.18-.225-3.944,1.114-5.222,2.363-2.852,2.931-5.615,6.35-9.215,7.275C5.478,24.8,1.008,18.311.212,12.652A14.655,14.655,0,0,1,.459,6.588,11.978,11.978,0,0,1,7.02.525c3-1.127,5.509-.3,7.823,1.16A27.821,27.821,0,0,1,17.1,3.31C21.188,7,25.115,8.744,30.544,7.06a59.779,59.779,0,0,0,6.115-2.518,2.557,2.557,0,0,1,.995-.238,1.944,1.944,0,0,1,.9.216,11.335,11.335,0,0,1,.505,4.672" transform="translate(0.575 136.272)" fill="#eb0065"/>
    <path id="Fill_51" data-name="Fill 51" d="M9.772,2.834A6.392,6.392,0,0,0,5.308.053C2.941-.273-.78.89.145,3.77c.778,2.621,4,2.407,6.335,2.549,1.555.1,2.909-1.394,3.211-3.034.028-.144.055-.294.082-.451" transform="translate(6.323 139.146)" fill="#be0152"/>
    <g id="Group_55" data-name="Group 55" transform="translate(114.161 0.758)">
      <path id="Clip_54-2" data-name="Clip 54" d="M0,0H28.15V46.62H0Z" transform="translate(0 0)" fill="none"/>
      <g id="Group_55-2" data-name="Group 55" transform="translate(0 0)" clip-path="url(#clip-path-2)">
        <path id="Fill_53" data-name="Fill 53" d="M7.973,41.775A2.7,2.7,0,0,1,8.093,40.7a63.523,63.523,0,0,0,1.834-6.716c1.059-5.893-1.233-9.785-5.545-13.6A28.776,28.776,0,0,1,2.424,18.23C.626,15.993-.538,13.469.251,10.189,1.566,4.723,6.163,1.284,11.321.3A16.451,16.451,0,0,1,14.464.006a14.161,14.161,0,0,1,13.18,8.165c2.037,4.572-2.585,8.191-4.755,11.839a20.324,20.324,0,0,0-2.552,14.5,19.681,19.681,0,0,0,.551,2.335c.543,1.8,1.931,3.323,2.209,5.226.37,2.541-2.352,3.846-4.46,4.344C15.28,47.205,11.546,45.6,9,43.445a2.545,2.545,0,0,1-1.026-1.669" transform="translate(0 0)" fill="#eb0065"/>
      </g>
    </g>
    <path id="Fill_56" data-name="Fill 56" d="M13.371,41.09c7.928-1.062,4.131-9.264,3.038-14.685-.511-2.252.666-4.264,1.81-5.758,2.7-3.351,5.93-6.67,6.442-10.553C25.444,4.01,18.093.149,12.075.027a15.482,15.482,0,0,0-6.311,1.02A12.6,12.6,0,0,0,.255,8.671c-.8,3.278.381,5.8,2.2,8.037a28.925,28.925,0,0,0,1.986,2.159c4.37,3.81,6.695,7.7,5.621,13.588a63.091,63.091,0,0,1-1.858,6.712,2.668,2.668,0,0,0-.124,1.07,2.039,2.039,0,0,0,.34.91,11.942,11.942,0,0,0,4.949-.057" transform="translate(113.818 2.334)" fill="#eb0065"/>
    <path id="Fill_58" data-name="Fill 58" d="M3.648,10.347C1.847,9.618.786,7.737.207,5.989-.426,3.532.32-.545,3.426.061c2.818.487,3,3.92,3.433,6.363C7.15,8.053,5.772,9.674,4.106,10.2c-.146.049-.3.1-.458.144" transform="translate(117.267 8.083)" fill="#be0152"/>
    <path id="Fill_60" data-name="Fill 60" d="M20.074,1.445a2.567,2.567,0,0,0-.337.967,59.208,59.208,0,0,1-1.171,6.511c-1.509,5.485-5.125,7.872-10.475,9.356a27.8,27.8,0,0,0-2.608,1.041C2.986,20.494.922,22.176.256,25.31c-1.107,5.226,1.493,10.071,5.6,13.047a16.265,16.265,0,0,0,2.628,1.549A13.872,13.872,0,0,0,23.4,38.359c3.673-3.074,1.124-8.085.732-12.105a18.97,18.97,0,0,1,3.761-13.477A18.439,18.439,0,0,1,29.341,11c1.221-1.322,3.064-2.049,4.092-3.565,1.376-2.024-.466-4.267-2.107-5.564C28.717-.186,24.783-.353,21.663.44a2.447,2.447,0,0,0-1.589,1.005" transform="translate(48.861 197.779)" fill="#383075"/>
    <path id="Fill_62" data-name="Fill 62" d="M6.535,39.906a15.994,15.994,0,0,1-2.592-1.549A14.967,14.967,0,0,1,0,34.091a14.516,14.516,0,0,0,4.958,3.447c5.174,2.348,13.008,2.035,14.824-3.5,1.149-3.537-.244-7.7-1.179-11.671-.364-1.746-.546-3.952.808-5.673,3.143-4.2,9.723-9.685,3.4-13.826A11.224,11.224,0,0,0,18.625.8,3.325,3.325,0,0,1,19.531.44c3.077-.793,6.958-.625,9.532,1.437,1.617,1.3,3.435,3.54,2.078,5.564C30.126,8.954,28.308,9.682,27.1,11a18.536,18.536,0,0,0-1.429,1.773,19.166,19.166,0,0,0-3.708,13.477c.385,4.02,2.9,9.03-.722,12.105A13.532,13.532,0,0,1,6.535,39.906" transform="translate(51.16 197.779)" fill="#be0152"/>
    <path id="Fill_64" data-name="Fill 64" d="M22.051,16.057c-1.368,1.739-1.185,3.967-.817,5.731.946,4.017,2.354,8.219,1.192,11.792-1.836,5.591-9.754,5.909-14.986,3.536a17.182,17.182,0,0,1-5.587-3.483,12.113,12.113,0,0,1-1.6-8.873c.663-3.166,2.72-4.865,5.212-6.052a27.391,27.391,0,0,1,2.6-1.052C13.4,16.158,17,13.747,18.509,8.2a60.543,60.543,0,0,0,1.169-6.578,2.6,2.6,0,0,1,.334-.977A1.974,1.974,0,0,1,20.681,0a14,14,0,0,1,4.812,2.088C31.88,6.273,25.229,11.813,22.051,16.057Z" transform="translate(48.861 198.354)" fill="#eb0065"/>
    <path id="Fill_66" data-name="Fill 66" d="M6.36.01C4.466-.125,2.751,1.086,1.519,2.391c-1.571,1.91-2.593,5.863.4,6.675C4.616,9.86,6.19,6.883,7.583,4.9,8.512,3.575,7.962,1.533,6.7.337,6.6.231,6.481.122,6.36.01" transform="translate(51.735 219.048)" fill="#be0152"/>
    <path id="Fill_68" data-name="Fill 68" d="M1.818,37A9.956,9.956,0,0,1,.107,29.671c.068-.561.148-1.123.238-1.682A56.437,56.437,0,0,1,3.413,16.8C5.589,11.165,9.639,1.941,16.275.322c4.762-1.162,7.5.865,6.519,5.313C20.94,14.017,15.9,22.894,12.106,30.623a21.856,21.856,0,0,1-3,4.938,9.345,9.345,0,0,1-.816.824c-1.355,1.316-3.606,2.174-5.463,1-.316-.12-.653-.249-1.013-.385" transform="translate(44.837 89.135)" fill="#f43285"/>
    <path id="Fill_70" data-name="Fill 70" d="M20.458,8.356A9.138,9.138,0,0,0,12.315.026,13.464,13.464,0,0,0,7.086.759,12.2,12.2,0,0,0,2.6,3.44,8.757,8.757,0,0,0,.252,11.874a10.818,10.818,0,0,0,7.921,7.833,10.934,10.934,0,0,0,5.48.12,9.415,9.415,0,0,0,7.009-8.517,10.168,10.168,0,0,0-.2-2.954" transform="translate(155.781 127.074)" fill="#eb0065"/>
    <path id="Fill_72" data-name="Fill 72" d="M.811,14.275A8.9,8.9,0,0,1,2.293,4.709c2.9-3.566,8.666-6.662,12.488-3.2,4.509,4.012.053,10.533-4.059,13.157a13.26,13.26,0,0,1-2.363,1.293,7.073,7.073,0,0,1-5.018.41,5.064,5.064,0,0,1-2.167-1.51c-.114-.2-.234-.394-.363-.589" transform="translate(67.831 67.291)" fill="#f43285"/>
    <path id="Fill_74" data-name="Fill 74" d="M2.539,9.161C2.183,6.828,1.605,3.049,4.571,2.38A3.577,3.577,0,0,1,8.726,3.974,13.673,13.673,0,0,1,9.8,8.362c.227,1.426,2.48,1.223,2.251-.212-.49-3.089-1.018-6.835-4.517-7.88a6.511,6.511,0,0,0-5.313.7A5.414,5.414,0,0,0,.1,4.763,15.91,15.91,0,0,0,.287,9.373C.505,10.8,2.758,10.6,2.539,9.161" transform="translate(131.638 136.272)" fill="#81063b"/>
    <path id="Fill_76" data-name="Fill 76" d="M.043,10.1C-.37,5.852,2.211,1.48,6.322.4A12.9,12.9,0,0,1,11.484.15a11.81,11.81,0,0,1,4.809,1.8A8.858,8.858,0,0,1,20.113,9.8a10.765,10.765,0,0,1-6.158,9.167A10.458,10.458,0,0,1,8.71,20.105,9.315,9.315,0,0,1,.4,13.038,10.307,10.307,0,0,1,.043,10.1" transform="translate(97.722 132.823)" fill="#eb0065"/>
    <path id="Fill_78" data-name="Fill 78" d="M.031,6.9A7.093,7.093,0,0,1,.1,5.027,7.009,7.009,0,0,1,.641,3.3C1.366,1.762,2.55.313,4.184.157c3.894-.708,9.162.958,9.581,5.426a7.038,7.038,0,0,1-.073,1.87A6.888,6.888,0,0,1,.031,6.9" transform="translate(102.321 133.397)" fill="#740333"/>
    <path id="Fill_80" data-name="Fill 80" d="M0,2.372a2.585,2.585,0,0,1,.077-.7A2.239,2.239,0,0,1,2.978.113,2.327,2.327,0,0,1,4.555,2.737,2.456,2.456,0,0,1,1.465,4.48,2.269,2.269,0,0,1,0,2.372" transform="translate(104.62 136.846)" fill="#fff"/>
    <path id="Fill_82" data-name="Fill 82" d="M13.765,5.732A6.786,6.786,0,0,0,12.5,2.381c-1-1.347-2.43-2.522-4.066-2.368C4.477.057-.393,2.642.025,7.021A6.83,6.83,0,0,0,.444,8.81,6.906,6.906,0,0,0,13.765,5.732" transform="translate(157.505 128.224)" fill="#740333"/>
    <path id="Fill_84" data-name="Fill 84" d="M4.567,1.951a2.527,2.527,0,0,0-.205-.671A2.227,2.227,0,0,0,1.223.294,2.348,2.348,0,0,0,.159,3.18,2.441,2.441,0,0,0,3.518,4.306,2.292,2.292,0,0,0,4.567,1.951" transform="translate(160.38 131.098)" fill="#fff"/>
    <path id="Fill_86" data-name="Fill 86" d="M21.268,92.367C14.641,88.8,7.128,87.959.4,83.949c-.978-.527.061-2.64.7-2.391,33.37,12.33,69.776,7.643,99.479-10.269q4.964-2.713,9.664-5.852C124,56.6,135.4,44.52,141.52,29.068c3.87-9.816,6.82-19.545,10.874-29.068,7.159,15.122-.706,31.823-8.51,45.885-5.419,9.807-12.468,17.136-20.482,23.976q-4.489,3.83-9.33,7.2-4.228,2.946-8.691,5.505T96.27,87.259C75.4,97.758,51.591,99.7,29.144,94.014c-2.617-.5-5.25-1.048-7.876-1.647" transform="translate(83.351 135.697)" fill="#f43285"/>
    <path id="Fill_88" data-name="Fill 88" d="M3.475,5.96a2.645,2.645,0,0,0,.265,1,60.659,60.659,0,0,1,2.678,6.108c1.83,5.438.207,9.461-3.336,13.7a27.587,27.587,0,0,0-1.55,2.331C.147,31.476-.6,34.039.606,37.037c2.011,5,6.844,7.6,11.863,7.789a15.642,15.642,0,0,0,3.013-.174,13.613,13.613,0,0,0,11.324-9.642c1.284-4.63-3.6-7.4-6.161-10.546a19.494,19.494,0,0,1-4.451-13.391,18.7,18.7,0,0,1,.193-2.294c.26-1.791,1.359-3.431,1.355-5.276C17.735,1.038,14.978.19,12.912.023c-3.285-.267-6.592,1.8-8.7,4.206a2.455,2.455,0,0,0-.739,1.73" transform="translate(133.937 217.324)" fill="#383075"/>
    <path id="Fill_90" data-name="Fill 90" d="M8.887,44.826a15.025,15.025,0,0,1-5.7-1.333,14.609,14.609,0,0,0,6.088.073C14.924,42.6,21.3,37.887,19.7,32.222c-1.033-3.614-4.542-6.306-7.564-9.1-1.287-1.254-2.683-3-2.52-5.209.261-5.3,2.672-13.627-4.945-13.51A11.282,11.282,0,0,0,0,5.047a3.472,3.472,0,0,1,.555-.819C2.682,1.819,6.02-.244,9.335.023,11.418.19,15.351,1.038,15.358,3.5c0,1.845-1.681,3.485-1.942,5.276a18.545,18.545,0,0,0-.2,2.294c-.278,4.832.833,9.71,3.918,13.39,2.588,3.149,7.514,5.917,6.217,10.547a13.7,13.7,0,0,1-11.427,9.642A16.02,16.02,0,0,1,8.887,44.826Z" transform="translate(137.386 217.324)" fill="#be0152"/>
    <path id="Fill_92" data-name="Fill 92" d="M13.268,13.964c-.163,2.189,1.229,3.917,2.512,5.16,3.013,2.773,6.51,5.439,7.54,9.019,1.594,5.611-4.76,10.276-10.392,11.236a14.65,14.65,0,0,1-6.068-.072,11.984,11.984,0,0,1-6.25-6.4c-1.214-2.97-.463-5.507.932-7.867A27.282,27.282,0,0,1,3.1,22.736c3.565-4.2,4.622-8.181,2.78-13.569A69.485,69.485,0,0,0,3.187,2.542c-.167-.354.321-.68.309-.989a1.942,1.942,0,0,1,.189-.9A11.31,11.31,0,0,1,8.339.007C15.931-.109,13.527,8.713,13.268,13.964Z" transform="translate(133.937 221.348)" fill="#eb0065"/>
    <g id="Group_96" data-name="Group 96" transform="translate(228.471 115.645)">
      <path id="Clip_95-2" data-name="Clip 95" d="M0,0H44.359V27.25H0Z" transform="translate(0 0)" fill="none"/>
      <g id="Group_96-2" data-name="Group 96" transform="translate(0 0)" clip-path="url(#clip-path-3)">
        <path id="Fill_94" data-name="Fill 94" d="M4.05,9.717a2.56,2.56,0,0,1,1.028.046A59.518,59.518,0,0,0,11.6,11.1c5.688.64,9.246-1.845,12.593-6.284A27.759,27.759,0,0,1,26.124,2.77C28.139.876,30.467-.422,33.646.127c5.3.915,8.881,5.151,10.163,10.1a16.523,16.523,0,0,1,.487,3.032,13.829,13.829,0,0,1-6.908,13.34c-4.222,2.28-7.98-1.969-11.6-3.833A19.112,19.112,0,0,0,11.8,21.242a18.28,18.28,0,0,0-2.189.69c-1.685.647-3.04,2.095-4.835,2.49-2.4.529-3.823-2.029-4.437-4.043-.974-3.205.309-6.938,2.193-9.555A2.426,2.426,0,0,1,4.05,9.717" transform="translate(0 0)" fill="#383075"/>
      </g>
    </g>
    <g id="Group_99" data-name="Group 99" transform="translate(228.471 120.725)">
      <path id="Clip_98-2" data-name="Clip 98" d="M0,0H44.359V22.173H0Z" transform="translate(0 0)" fill="none"/>
      <g id="Group_99-2" data-name="Group 99" transform="translate(0 0)" clip-path="url(#clip-path-4)">
        <path id="Fill_97" data-name="Fill 97" d="M44.3,8.288a16.261,16.261,0,0,0-.487-3.007A15.09,15.09,0,0,0,41.278,0a14.674,14.674,0,0,1,1.387,5.93c.277,5.726-2.925,12.965-8.779,12.621-3.737-.231-7.114-3.079-10.487-5.428-1.5-.989-3.5-1.975-5.61-1.341-5.1,1.395-12.675,5.543-14.207-1.922a11.329,11.329,0,0,1-.378-4.7,3.368,3.368,0,0,0-.676.717C.643,8.474-.641,12.177.335,15.357c.612,2,2.038,4.534,4.436,4.011,1.8-.392,3.15-1.829,4.835-2.471a18.59,18.59,0,0,1,2.189-.684,19.249,19.249,0,0,1,13.993,1.507c3.62,1.85,7.378,6.066,11.6,3.8A13.688,13.688,0,0,0,44.3,8.288" transform="translate(0)" fill="#be0152"/>
      </g>
    </g>
    <path id="Fill_100" data-name="Fill 100" d="M.5,14.812c1.533,7.51,9.121,3.337,14.23,1.933,2.116-.637,4.117.356,5.62,1.35,3.379,2.364,6.761,5.23,10.5,5.461,5.863.346,9.07-6.936,8.792-12.7A14.81,14.81,0,0,0,38.259,4.89,12.053,12.053,0,0,0,30.614.126C27.43-.421,25.1.874,23.08,2.764a27.99,27.99,0,0,0-1.932,2.041C17.8,9.236,14.232,11.716,8.535,11.079A59.794,59.794,0,0,1,2,9.745,2.573,2.573,0,0,0,.97,9.7a1.95,1.95,0,0,0-.848.384A11.449,11.449,0,0,0,.5,14.812" transform="translate(231.66 116.152)" fill="#eb0065"/>
    <path id="Fill_102" data-name="Fill 102" d="M0,3.961A6.457,6.457,0,0,1,3.906.331C6.2-.443,10.115.014,9.748,3.071c-.273,2.772-3.52,3.17-5.81,3.754C2.411,7.215.782,5.982.167,4.4.112,4.258.057,4.113,0,3.961" transform="translate(255.228 119.026)" fill="#be0152"/>
    <path id="Fill_104" data-name="Fill 104" d="M8.17.106A8.205,8.205,0,0,0,3.115.852C.679,2.157-1.138,4.889.844,7.437c3.212,4.125,9.707,4.773,13.274.949,1.995-2.138.017-5.7-2.056-6.915A10.91,10.91,0,0,0,8.17.106" transform="translate(146.009 45.447)" fill="#eb0065"/>
    <path id="Fill_106" data-name="Fill 106" d="M7.311.223C4.234-.594-.013.854,0,4.181c-.041,4.391,5.744,5.83,9.383,4.589a4.056,4.056,0,0,0,2.435-2.34,4.141,4.141,0,0,0-1.435-4.811A8.086,8.086,0,0,0,7.311.223" transform="translate(171.302 52.92)" fill="#eb0065"/>
    <path id="Fill_108" data-name="Fill 108" d="M6.165,0C3-.067-.723,2.352.122,5.6,1.184,9.9,7.107,9.932,10.3,7.859A4,4,0,0,0,12.055,5,4.248,4.248,0,0,0,9.47.636,8.028,8.028,0,0,0,6.165,0" transform="translate(103.471 83.961)" fill="#eb0065"/>
    <path id="Fill_110" data-name="Fill 110" d="M5.484.1A4.58,4.58,0,0,0,.043,3.609,4.566,4.566,0,0,0,4.464,8.617c2.364.087,4.781-.884,5.663-3.066A3.387,3.387,0,0,0,8.165,1.089,6.2,6.2,0,0,0,5.484.1" transform="translate(158.08 60.968)" fill="#eb0065"/>
    <path id="Fill_112" data-name="Fill 112" d="M4.419.039a4.478,4.478,0,0,0-4.4,4.682A4.7,4.7,0,0,0,5.6,8.555c2.323-.468,4.428-1.976,4.73-4.3A3.474,3.474,0,0,0,7.28.375,6.3,6.3,0,0,0,4.419.039" transform="translate(93.698 101.781)" fill="#eb0065"/>
    <path id="Fill_114" data-name="Fill 114" d="M6.164,0C3-.067-.723,2.352.122,5.6,1.183,9.9,7.107,9.932,10.3,7.859A4,4,0,0,0,12.055,5,4.248,4.248,0,0,0,9.47.636,8.029,8.029,0,0,0,6.164,0" transform="translate(97.722 190.881)" fill="#eb0065"/>
    <path id="Fill_116" data-name="Fill 116" d="M4.419.039a4.478,4.478,0,0,0-4.4,4.682A4.7,4.7,0,0,0,5.6,8.556c2.324-.469,4.428-1.976,4.73-4.3A3.475,3.475,0,0,0,7.28.375,6.3,6.3,0,0,0,4.419.039" transform="translate(120.716 193.755)" fill="#eb0065"/>
    <path id="Fill_118" data-name="Fill 118" d="M5.484.1A4.58,4.58,0,0,0,.043,3.609,4.566,4.566,0,0,0,4.464,8.617c2.364.086,4.781-.885,5.663-3.067A3.385,3.385,0,0,0,8.165,1.09,6.183,6.183,0,0,0,5.484.1" transform="translate(200.618 152.942)" fill="#eb0065"/>
    <path id="Fill_120" data-name="Fill 120" d="M3.656.067A3.054,3.054,0,0,0,.029,2.406,3.044,3.044,0,0,0,2.975,5.745,3.748,3.748,0,0,0,6.751,3.7,2.257,2.257,0,0,0,5.442.726,4.125,4.125,0,0,0,3.656.067" transform="translate(193.145 165.588)" fill="#eb0065"/>
    <path id="Fill_122" data-name="Fill 122" d="M9.172,6.494C9.459,3.341,7.3-.548,3.991.064c-4.369.753-4.812,6.662-2.958,10a4.026,4.026,0,0,0,2.742,1.957A4.246,4.246,0,0,0,8.311,9.748a8.04,8.04,0,0,0,.861-3.254" transform="translate(57.484 178.235)" fill="#eb0065"/>
    <path id="Fill_124" data-name="Fill 124" d="M8.617,4.721A4.509,4.509,0,0,0,4.231,0,4.66,4.66,0,0,0,.022,5.277C.336,7.624,1.7,9.829,4.009,10.3a3.457,3.457,0,0,0,4.08-2.754,6.255,6.255,0,0,0,.527-2.824" transform="translate(47.136 166.738)" fill="#eb0065"/>
    <path id="Fill_126" data-name="Fill 126" d="M.458,11.7a2.569,2.569,0,0,0,.809.629,59.815,59.815,0,0,1,5.8,3.206c4.717,3.191,5.821,7.356,5.517,12.856a27.839,27.839,0,0,0,.154,2.783c.315,2.723,1.247,5.2,4,6.842,4.6,2.731,10.021,1.858,14.156-1.034A16.045,16.045,0,0,0,33.2,35.014a13.639,13.639,0,0,0,3.3-14.492c-1.739-4.442-7.3-3.671-11.238-4.605A19.149,19.149,0,0,1,13.7,8.026,18.573,18.573,0,0,1,12.481,6.1c-.863-1.574-.963-3.539-2.068-4.994C8.934-.844,6.218.158,4.466,1.278,1.677,3.059.26,6.7.015,9.88A2.414,2.414,0,0,0,.458,11.7" transform="translate(204.642 185.133)" fill="#383075"/>
    <path id="Fill_128" data-name="Fill 128" d="M33.2,35.293a16.079,16.079,0,0,1-2.308,1.98,14.956,14.956,0,0,1-5.322,2.39,14.616,14.616,0,0,0,4.875-3.63c3.9-4.2,6.145-11.81,1.49-15.356C28.958,18.422,24.563,18.4,20.493,18c-1.773-.22-3.922-.766-5.114-2.625C12.417,10.992,9.353,2.894,3.38,7.6A11.336,11.336,0,0,0,.063,10.946a3.475,3.475,0,0,1-.049-.988C.26,6.749,1.677,3.083,4.465,1.289,6.219.16,8.934-.851,10.412,1.11c1.107,1.468,1.207,3.447,2.069,5.034A18.511,18.511,0,0,0,13.7,8.091a19.142,19.142,0,0,0,11.569,7.953c3.935.942,9.5.165,11.237,4.642a13.824,13.824,0,0,1-3.3,14.608" transform="translate(204.642 185.133)" fill="#be0152"/>
    <path id="Fill_130" data-name="Fill 130" d="M3.318,1.4c5.974-4.642,9.038,3.345,12,7.669,1.192,1.834,3.341,2.373,5.114,2.589,4.071.395,8.465.415,11.446,2.639,4.656,3.5,2.413,11.009-1.49,15.148a14.6,14.6,0,0,1-4.876,3.579A12.03,12.03,0,0,1,16.678,31.7c-2.759-1.63-3.692-4.1-4.007-6.8a27.517,27.517,0,0,1-.154-2.767c.306-5.468-.8-9.609-5.516-12.782A60.061,60.061,0,0,0,1.2,6.161a2.56,2.56,0,0,1-.81-.625A1.944,1.944,0,0,1,0,4.7,11.259,11.259,0,0,1,3.318,1.4" transform="translate(204.642 191.456)" fill="#eb0065"/>
    <path id="Fill_132" data-name="Fill 132" d="M.355.76C-.406,2.559.173,4.618,1,6.238,2.29,8.384,5.7,10.65,7.474,8,9.127,5.63,6.825,3.14,5.406,1.144,4.459-.186,2.337-.308.782.529.644.6.5.678.355.76" transform="translate(220.163 212.725)" fill="#be0152"/>
    <path id="Fill_134" data-name="Fill 134" d="M2.708,0A6.384,6.384,0,0,0,.033,4.547c-.261,2.376,1.02,6.062,3.9,5.055C6.556,8.746,6.246,5.526,6.322,3.19,6.372,1.633,4.829.322,3.166.068,3.019.045,2.867.022,2.708,0" transform="translate(136.811 245.491)" fill="#be0152"/>
  </g>
</svg>
